G04 Layer_Physical_Order=2*
G04 Layer_Color=36540*
%FSLAX23Y23*%
%MOIN*%
G70*
G01*
G75*
%ADD37C,0.006*%
%ADD38C,0.010*%
%ADD57C,0.056*%
%ADD60R,0.060X0.060*%
%ADD61R,0.060X0.060*%
%ADD62C,0.050*%
%ADD63R,0.050X0.050*%
%ADD64R,0.050X0.050*%
%ADD65C,0.020*%
%ADD67C,0.024*%
%ADD68C,0.040*%
%ADD69C,0.030*%
G36*
X2226Y5170D02*
X2227Y5162D01*
X2232Y5156D01*
X2238Y5151D01*
X2246Y5150D01*
X4770D01*
Y5070D01*
X4765Y5070D01*
X4764Y5071D01*
X4760Y5087D01*
X4751Y5102D01*
X4741Y5116D01*
X4727Y5126D01*
X4712Y5135D01*
X4696Y5139D01*
X4679Y5141D01*
X4662Y5139D01*
X4646Y5135D01*
X4631Y5126D01*
X4617Y5116D01*
X4607Y5102D01*
X4598Y5087D01*
X4594Y5071D01*
X4592Y5054D01*
X4594Y5037D01*
X4598Y5021D01*
X4607Y5006D01*
X4617Y4992D01*
X4631Y4982D01*
X4646Y4973D01*
X4662Y4969D01*
X4679Y4967D01*
X4696Y4969D01*
X4712Y4973D01*
X4727Y4982D01*
X4741Y4992D01*
X4751Y5006D01*
X4760Y5021D01*
X4764Y5037D01*
X4765Y5038D01*
X4770Y5038D01*
Y4525D01*
X4088D01*
X4084Y4530D01*
X4085Y4535D01*
Y4770D01*
X4084Y4778D01*
X4079Y4784D01*
X4073Y4789D01*
X4065Y4790D01*
X4015D01*
X4007Y4789D01*
X4001Y4784D01*
X3996Y4778D01*
X3995Y4770D01*
Y4535D01*
X3996Y4530D01*
X3992Y4525D01*
X3201D01*
X3199Y4530D01*
X3199Y4531D01*
X3204Y4537D01*
X3205Y4545D01*
Y4780D01*
X3204Y4788D01*
X3199Y4794D01*
X3193Y4799D01*
X3185Y4800D01*
X3135D01*
X3127Y4799D01*
X3121Y4794D01*
X3116Y4788D01*
X3115Y4780D01*
Y4733D01*
X3110Y4731D01*
X3105Y4734D01*
X3098Y4735D01*
X3091Y4734D01*
X3085Y4730D01*
X3081Y4724D01*
X3080Y4717D01*
X3081Y4710D01*
X3085Y4704D01*
X3091Y4700D01*
X3098Y4699D01*
X3105Y4700D01*
X3110Y4703D01*
X3115Y4701D01*
Y4545D01*
X3116Y4537D01*
X3121Y4531D01*
X3121Y4530D01*
X3119Y4525D01*
X2281D01*
X2280Y4530D01*
X2284Y4534D01*
X2289Y4540D01*
X2290Y4548D01*
Y4783D01*
X2289Y4791D01*
X2284Y4797D01*
X2278Y4802D01*
X2270Y4803D01*
X2240D01*
X2232Y4802D01*
X2226Y4797D01*
X2221Y4791D01*
X2220Y4783D01*
Y4569D01*
X2215Y4565D01*
X2210Y4566D01*
X2203Y4565D01*
X2197Y4561D01*
X2193Y4555D01*
X2192Y4548D01*
X2193Y4541D01*
X2197Y4535D01*
X2203Y4531D01*
X2206Y4530D01*
X2206Y4525D01*
X518D01*
X517Y4530D01*
X522Y4534D01*
X536Y4544D01*
X546Y4558D01*
X555Y4573D01*
X559Y4589D01*
X561Y4606D01*
X559Y4623D01*
X555Y4639D01*
X546Y4654D01*
X536Y4668D01*
X522Y4678D01*
X507Y4687D01*
X491Y4691D01*
X474Y4693D01*
X457Y4691D01*
X441Y4687D01*
X426Y4678D01*
X412Y4668D01*
X402Y4654D01*
X398Y4648D01*
X393Y4650D01*
X395Y5403D01*
X400Y5404D01*
X402Y5401D01*
X412Y5387D01*
X426Y5377D01*
X441Y5368D01*
X457Y5364D01*
X474Y5362D01*
X491Y5364D01*
X507Y5368D01*
X522Y5377D01*
X536Y5387D01*
X546Y5401D01*
X555Y5416D01*
X559Y5432D01*
X561Y5449D01*
X559Y5466D01*
X555Y5482D01*
X546Y5497D01*
X536Y5511D01*
X522Y5521D01*
X507Y5530D01*
X491Y5534D01*
X474Y5536D01*
X457Y5534D01*
X441Y5530D01*
X426Y5521D01*
X412Y5511D01*
X402Y5497D01*
X400Y5494D01*
X395Y5495D01*
X395Y5551D01*
X2226D01*
Y5170D01*
D02*
G37*
%LPC*%
G36*
X1626Y5541D02*
X1619Y5540D01*
X1613Y5536D01*
X1609Y5530D01*
X1608Y5523D01*
X1609Y5516D01*
X1613Y5510D01*
X1619Y5506D01*
X1626Y5505D01*
X1633Y5506D01*
X1639Y5510D01*
X1643Y5516D01*
X1644Y5523D01*
X1643Y5530D01*
X1639Y5536D01*
X1633Y5540D01*
X1626Y5541D01*
D02*
G37*
G36*
X1085Y5538D02*
X1078Y5537D01*
X1072Y5533D01*
X1068Y5527D01*
X1067Y5520D01*
X1068Y5513D01*
X1072Y5507D01*
X1078Y5503D01*
X1085Y5502D01*
X1092Y5503D01*
X1098Y5507D01*
X1102Y5513D01*
X1103Y5520D01*
X1102Y5527D01*
X1098Y5533D01*
X1092Y5537D01*
X1085Y5538D01*
D02*
G37*
G36*
X1297Y5518D02*
X1290Y5517D01*
X1284Y5513D01*
X1280Y5507D01*
X1279Y5500D01*
X1279Y5499D01*
X1275Y5496D01*
X1272Y5497D01*
X1263Y5499D01*
X1253Y5497D01*
X1244Y5494D01*
X1237Y5488D01*
X1231Y5480D01*
X1227Y5472D01*
X1226Y5462D01*
X1227Y5453D01*
X1231Y5444D01*
X1237Y5436D01*
X1244Y5430D01*
X1253Y5427D01*
X1263Y5426D01*
X1272Y5427D01*
X1281Y5430D01*
X1288Y5436D01*
X1294Y5444D01*
X1298Y5453D01*
X1299Y5462D01*
X1298Y5472D01*
X1296Y5477D01*
X1296Y5478D01*
X1299Y5482D01*
X1304Y5483D01*
X1307Y5485D01*
X1311Y5481D01*
X1310Y5480D01*
X1306Y5472D01*
X1305Y5462D01*
X1306Y5453D01*
X1310Y5444D01*
X1316Y5436D01*
X1323Y5430D01*
X1332Y5427D01*
X1341Y5426D01*
X1351Y5427D01*
X1360Y5430D01*
X1367Y5436D01*
X1373Y5444D01*
X1377Y5453D01*
X1378Y5462D01*
X1377Y5472D01*
X1373Y5480D01*
X1367Y5488D01*
X1360Y5494D01*
X1351Y5497D01*
X1341Y5499D01*
X1332Y5497D01*
X1323Y5494D01*
X1318Y5489D01*
X1314Y5493D01*
X1314Y5493D01*
X1315Y5500D01*
X1314Y5507D01*
X1310Y5513D01*
X1304Y5517D01*
X1297Y5518D01*
D02*
G37*
G36*
X1026Y5499D02*
X1017Y5497D01*
X1008Y5494D01*
X1001Y5488D01*
X995Y5480D01*
X991Y5472D01*
X990Y5462D01*
X991Y5453D01*
X995Y5444D01*
X995Y5443D01*
X993Y5438D01*
X988Y5439D01*
X981Y5438D01*
X981Y5438D01*
X978Y5442D01*
X979Y5444D01*
X983Y5453D01*
X984Y5462D01*
X983Y5472D01*
X979Y5480D01*
X973Y5488D01*
X966Y5494D01*
X957Y5497D01*
X948Y5499D01*
X938Y5497D01*
X929Y5494D01*
X922Y5488D01*
X916Y5480D01*
X912Y5472D01*
X911Y5462D01*
X912Y5453D01*
X916Y5444D01*
X922Y5436D01*
X929Y5430D01*
X938Y5427D01*
X948Y5426D01*
X957Y5427D01*
X966Y5430D01*
X968Y5432D01*
X971Y5428D01*
X971Y5428D01*
X970Y5421D01*
X971Y5414D01*
X975Y5408D01*
X981Y5404D01*
X988Y5403D01*
X995Y5404D01*
X1001Y5408D01*
X1005Y5414D01*
X1006Y5421D01*
X1005Y5426D01*
X1006Y5428D01*
X1009Y5430D01*
X1009Y5430D01*
X1017Y5427D01*
X1026Y5426D01*
X1036Y5427D01*
X1045Y5430D01*
X1052Y5436D01*
X1058Y5444D01*
X1062Y5453D01*
X1063Y5462D01*
X1062Y5472D01*
X1058Y5480D01*
X1052Y5488D01*
X1045Y5494D01*
X1036Y5497D01*
X1026Y5499D01*
D02*
G37*
G36*
X1184D02*
X1174Y5497D01*
X1166Y5494D01*
X1158Y5488D01*
X1152Y5480D01*
X1149Y5472D01*
X1147Y5462D01*
X1149Y5453D01*
X1152Y5444D01*
X1158Y5436D01*
X1166Y5430D01*
X1174Y5427D01*
X1184Y5426D01*
X1193Y5427D01*
X1202Y5430D01*
X1210Y5436D01*
X1215Y5444D01*
X1219Y5453D01*
X1220Y5462D01*
X1219Y5472D01*
X1215Y5480D01*
X1210Y5488D01*
X1202Y5494D01*
X1193Y5497D01*
X1184Y5499D01*
D02*
G37*
G36*
X869D02*
X859Y5497D01*
X851Y5494D01*
X843Y5488D01*
X837Y5480D01*
X834Y5472D01*
X832Y5462D01*
X834Y5453D01*
X837Y5444D01*
X843Y5436D01*
X851Y5430D01*
X859Y5427D01*
X869Y5426D01*
X878Y5427D01*
X887Y5430D01*
X895Y5436D01*
X900Y5444D01*
X904Y5453D01*
X905Y5462D01*
X904Y5472D01*
X900Y5480D01*
X895Y5488D01*
X887Y5494D01*
X878Y5497D01*
X869Y5499D01*
D02*
G37*
G36*
X790D02*
X781Y5497D01*
X772Y5494D01*
X764Y5488D01*
X759Y5480D01*
X755Y5472D01*
X754Y5462D01*
X755Y5453D01*
X759Y5444D01*
X764Y5436D01*
X772Y5430D01*
X781Y5427D01*
X790Y5426D01*
X800Y5427D01*
X808Y5430D01*
X816Y5436D01*
X822Y5444D01*
X825Y5453D01*
X827Y5462D01*
X825Y5472D01*
X822Y5480D01*
X816Y5488D01*
X808Y5494D01*
X800Y5497D01*
X790Y5499D01*
D02*
G37*
G36*
X711D02*
X702Y5497D01*
X693Y5494D01*
X686Y5488D01*
X680Y5480D01*
X676Y5472D01*
X675Y5462D01*
X676Y5453D01*
X680Y5444D01*
X686Y5436D01*
X693Y5430D01*
X702Y5427D01*
X711Y5426D01*
X721Y5427D01*
X730Y5430D01*
X737Y5436D01*
X743Y5444D01*
X747Y5453D01*
X748Y5462D01*
X747Y5472D01*
X743Y5480D01*
X737Y5488D01*
X730Y5494D01*
X721Y5497D01*
X711Y5499D01*
D02*
G37*
G36*
X633D02*
X623Y5497D01*
X614Y5494D01*
X607Y5488D01*
X601Y5480D01*
X597Y5472D01*
X596Y5462D01*
X597Y5453D01*
X601Y5444D01*
X607Y5436D01*
X614Y5430D01*
X623Y5427D01*
X633Y5426D01*
X642Y5427D01*
X651Y5430D01*
X658Y5436D01*
X664Y5444D01*
X668Y5453D01*
X669Y5462D01*
X668Y5472D01*
X664Y5480D01*
X658Y5488D01*
X651Y5494D01*
X642Y5497D01*
X633Y5499D01*
D02*
G37*
G36*
X1105D02*
X1096Y5497D01*
X1087Y5494D01*
X1079Y5488D01*
X1074Y5480D01*
X1070Y5472D01*
X1069Y5462D01*
X1070Y5453D01*
X1074Y5444D01*
X1079Y5436D01*
X1087Y5430D01*
X1096Y5427D01*
X1105Y5426D01*
X1108Y5426D01*
X1111Y5422D01*
X1110Y5421D01*
X1109Y5414D01*
X1110Y5407D01*
X1114Y5401D01*
X1120Y5397D01*
X1127Y5396D01*
X1134Y5397D01*
X1140Y5401D01*
X1144Y5407D01*
X1145Y5414D01*
X1144Y5421D01*
X1140Y5427D01*
X1134Y5431D01*
X1133Y5431D01*
X1131Y5435D01*
X1131Y5437D01*
X1137Y5444D01*
X1140Y5453D01*
X1142Y5462D01*
X1140Y5472D01*
X1137Y5480D01*
X1131Y5488D01*
X1123Y5494D01*
X1115Y5497D01*
X1105Y5499D01*
D02*
G37*
G36*
X2121Y5536D02*
X2104Y5534D01*
X2088Y5530D01*
X2073Y5521D01*
X2059Y5511D01*
X2049Y5497D01*
X2040Y5482D01*
X2036Y5466D01*
X2034Y5449D01*
X2036Y5432D01*
X2040Y5416D01*
X2049Y5401D01*
X2059Y5387D01*
X2073Y5377D01*
X2088Y5368D01*
X2104Y5364D01*
X2121Y5362D01*
X2138Y5364D01*
X2154Y5368D01*
X2169Y5377D01*
X2183Y5387D01*
X2193Y5401D01*
X2202Y5416D01*
X2206Y5432D01*
X2208Y5449D01*
X2206Y5466D01*
X2202Y5482D01*
X2193Y5497D01*
X2183Y5511D01*
X2169Y5521D01*
X2154Y5530D01*
X2138Y5534D01*
X2121Y5536D01*
D02*
G37*
G36*
X1353Y5391D02*
X1346Y5390D01*
X1340Y5386D01*
X1336Y5380D01*
X1335Y5373D01*
X1336Y5366D01*
X1340Y5360D01*
X1346Y5356D01*
X1353Y5355D01*
X1360Y5356D01*
X1366Y5360D01*
X1370Y5366D01*
X1371Y5373D01*
X1370Y5380D01*
X1366Y5386D01*
X1360Y5390D01*
X1353Y5391D01*
D02*
G37*
G36*
X1616Y5388D02*
X1609Y5387D01*
X1603Y5383D01*
X1599Y5377D01*
X1598Y5370D01*
X1599Y5363D01*
X1603Y5357D01*
X1609Y5353D01*
X1616Y5352D01*
X1623Y5353D01*
X1629Y5357D01*
X1633Y5363D01*
X1634Y5370D01*
X1633Y5377D01*
X1629Y5383D01*
X1623Y5387D01*
X1616Y5388D01*
D02*
G37*
G36*
X1176Y5386D02*
X1169Y5385D01*
X1163Y5381D01*
X1159Y5375D01*
X1158Y5368D01*
X1159Y5361D01*
X1163Y5355D01*
X1169Y5351D01*
X1176Y5350D01*
X1183Y5351D01*
X1189Y5355D01*
X1193Y5361D01*
X1194Y5368D01*
X1193Y5375D01*
X1189Y5381D01*
X1183Y5385D01*
X1176Y5386D01*
D02*
G37*
G36*
X1268Y5370D02*
X1261Y5369D01*
X1255Y5365D01*
X1251Y5359D01*
X1250Y5352D01*
X1251Y5345D01*
X1255Y5339D01*
X1261Y5335D01*
X1268Y5334D01*
X1275Y5335D01*
X1281Y5339D01*
X1285Y5345D01*
X1286Y5352D01*
X1285Y5359D01*
X1281Y5365D01*
X1275Y5369D01*
X1268Y5370D01*
D02*
G37*
G36*
X1232Y5401D02*
X1224Y5400D01*
X1219Y5396D01*
X1215Y5390D01*
X1213Y5383D01*
X1215Y5376D01*
X1217Y5373D01*
X1214Y5367D01*
X1213Y5367D01*
X1207Y5363D01*
X1203Y5357D01*
X1202Y5350D01*
X1203Y5343D01*
X1207Y5337D01*
X1213Y5333D01*
X1220Y5332D01*
X1227Y5333D01*
X1233Y5337D01*
X1237Y5343D01*
X1238Y5350D01*
X1237Y5357D01*
X1235Y5360D01*
X1237Y5366D01*
X1239Y5366D01*
X1244Y5370D01*
X1248Y5376D01*
X1250Y5383D01*
X1248Y5390D01*
X1244Y5396D01*
X1239Y5400D01*
X1232Y5401D01*
D02*
G37*
G36*
X628Y5363D02*
X621Y5362D01*
X615Y5358D01*
X611Y5352D01*
X610Y5345D01*
X611Y5338D01*
X615Y5332D01*
X621Y5328D01*
X628Y5327D01*
X635Y5328D01*
X641Y5332D01*
X645Y5338D01*
X646Y5345D01*
X645Y5352D01*
X641Y5358D01*
X635Y5362D01*
X628Y5363D01*
D02*
G37*
G36*
X1439Y5349D02*
X1432Y5348D01*
X1426Y5344D01*
X1422Y5338D01*
X1421Y5331D01*
X1422Y5324D01*
X1426Y5318D01*
X1432Y5314D01*
X1439Y5313D01*
X1446Y5314D01*
X1452Y5318D01*
X1456Y5324D01*
X1457Y5331D01*
X1456Y5338D01*
X1452Y5344D01*
X1446Y5348D01*
X1439Y5349D01*
D02*
G37*
G36*
X721Y5346D02*
X714Y5345D01*
X708Y5341D01*
X704Y5335D01*
X703Y5328D01*
X704Y5321D01*
X708Y5315D01*
X714Y5311D01*
X721Y5310D01*
X728Y5311D01*
X734Y5315D01*
X738Y5321D01*
X739Y5328D01*
X738Y5335D01*
X734Y5341D01*
X728Y5345D01*
X721Y5346D01*
D02*
G37*
G36*
X915Y5335D02*
X908Y5334D01*
X902Y5330D01*
X898Y5324D01*
X897Y5317D01*
X898Y5310D01*
X902Y5304D01*
X908Y5300D01*
X915Y5299D01*
X922Y5300D01*
X928Y5304D01*
X932Y5310D01*
X933Y5317D01*
X932Y5324D01*
X928Y5330D01*
X922Y5334D01*
X915Y5335D01*
D02*
G37*
G36*
X1511Y5327D02*
X1504Y5326D01*
X1498Y5322D01*
X1494Y5316D01*
X1493Y5309D01*
X1494Y5302D01*
X1498Y5296D01*
X1504Y5292D01*
X1511Y5291D01*
X1518Y5292D01*
X1524Y5296D01*
X1528Y5302D01*
X1529Y5309D01*
X1528Y5316D01*
X1524Y5322D01*
X1518Y5326D01*
X1511Y5327D01*
D02*
G37*
G36*
X1275Y5305D02*
X1268Y5304D01*
X1262Y5300D01*
X1258Y5294D01*
X1257Y5287D01*
X1258Y5280D01*
X1262Y5274D01*
X1268Y5270D01*
X1275Y5269D01*
X1282Y5270D01*
X1288Y5274D01*
X1292Y5280D01*
X1293Y5287D01*
X1292Y5294D01*
X1288Y5300D01*
X1282Y5304D01*
X1275Y5305D01*
D02*
G37*
G36*
X1972Y5299D02*
X1965Y5298D01*
X1959Y5294D01*
X1955Y5288D01*
X1954Y5281D01*
X1955Y5274D01*
X1959Y5268D01*
X1965Y5264D01*
X1972Y5263D01*
X1979Y5264D01*
X1985Y5268D01*
X1989Y5274D01*
X1990Y5281D01*
X1989Y5288D01*
X1985Y5294D01*
X1979Y5298D01*
X1972Y5299D01*
D02*
G37*
G36*
X1613Y5278D02*
X1606Y5277D01*
X1600Y5273D01*
X1596Y5267D01*
X1595Y5260D01*
X1596Y5253D01*
X1600Y5247D01*
X1606Y5243D01*
X1613Y5242D01*
X1620Y5243D01*
X1626Y5247D01*
X1630Y5253D01*
X1631Y5260D01*
X1630Y5267D01*
X1626Y5273D01*
X1620Y5277D01*
X1613Y5278D01*
D02*
G37*
G36*
X1722Y5274D02*
X1715Y5273D01*
X1709Y5269D01*
X1705Y5263D01*
X1704Y5256D01*
X1705Y5249D01*
X1709Y5243D01*
X1715Y5239D01*
X1722Y5238D01*
X1729Y5239D01*
X1735Y5243D01*
X1739Y5249D01*
X1740Y5256D01*
X1739Y5263D01*
X1735Y5269D01*
X1729Y5273D01*
X1722Y5274D01*
D02*
G37*
G36*
X714Y5298D02*
X707Y5297D01*
X701Y5293D01*
X697Y5287D01*
X696Y5280D01*
X697Y5273D01*
X701Y5267D01*
X703Y5266D01*
Y5250D01*
X703Y5250D01*
X704Y5246D01*
X706Y5242D01*
X710Y5238D01*
X709Y5233D01*
X707Y5232D01*
X703Y5226D01*
X702Y5219D01*
X703Y5212D01*
X707Y5206D01*
X713Y5202D01*
X720Y5201D01*
X727Y5202D01*
X733Y5206D01*
X737Y5212D01*
X738Y5219D01*
X738Y5222D01*
X742Y5227D01*
X1420D01*
X1422Y5223D01*
X1428Y5219D01*
X1435Y5218D01*
X1442Y5219D01*
X1448Y5223D01*
X1452Y5229D01*
X1453Y5236D01*
X1452Y5243D01*
X1449Y5247D01*
X1449Y5251D01*
X1451Y5253D01*
X1455Y5256D01*
X1459Y5262D01*
X1460Y5269D01*
X1459Y5276D01*
X1455Y5282D01*
X1449Y5286D01*
X1442Y5287D01*
X1435Y5286D01*
X1429Y5282D01*
X1425Y5276D01*
X1424Y5269D01*
X1425Y5262D01*
X1428Y5258D01*
X1428Y5257D01*
X1427Y5253D01*
X1426Y5252D01*
X1422Y5249D01*
X731D01*
X725Y5255D01*
Y5266D01*
X727Y5267D01*
X731Y5273D01*
X732Y5280D01*
X731Y5287D01*
X727Y5293D01*
X721Y5297D01*
X714Y5298D01*
D02*
G37*
G36*
X2156Y5268D02*
X2147Y5267D01*
X2139Y5263D01*
X2132Y5258D01*
X2127Y5251D01*
X2124Y5243D01*
X2123Y5234D01*
X2124Y5226D01*
X2127Y5218D01*
X2132Y5211D01*
X2139Y5206D01*
X2147Y5202D01*
X2156Y5201D01*
X2165Y5202D01*
X2173Y5206D01*
X2180Y5211D01*
X2185Y5218D01*
X2188Y5226D01*
X2189Y5234D01*
X2188Y5243D01*
X2185Y5251D01*
X2180Y5258D01*
X2173Y5263D01*
X2165Y5267D01*
X2156Y5268D01*
D02*
G37*
G36*
X667Y5212D02*
X660Y5211D01*
X654Y5207D01*
X650Y5201D01*
X649Y5194D01*
X650Y5187D01*
X654Y5181D01*
X660Y5177D01*
X667Y5176D01*
X674Y5177D01*
X680Y5181D01*
X684Y5187D01*
X685Y5194D01*
X684Y5201D01*
X680Y5207D01*
X674Y5211D01*
X667Y5212D01*
D02*
G37*
G36*
X418Y5267D02*
X411Y5266D01*
X405Y5262D01*
X401Y5256D01*
X400Y5249D01*
X401Y5242D01*
X405Y5236D01*
X411Y5232D01*
X414Y5231D01*
Y5226D01*
X413Y5226D01*
X407Y5222D01*
X403Y5216D01*
X402Y5209D01*
X403Y5202D01*
X407Y5196D01*
X413Y5192D01*
X420Y5191D01*
X423Y5186D01*
X422Y5185D01*
X421Y5178D01*
X422Y5171D01*
X426Y5165D01*
X432Y5161D01*
X439Y5160D01*
X446Y5161D01*
X452Y5165D01*
X456Y5171D01*
X457Y5178D01*
X456Y5185D01*
X452Y5191D01*
X446Y5195D01*
X439Y5196D01*
X436Y5201D01*
X437Y5202D01*
X438Y5209D01*
X437Y5216D01*
X433Y5222D01*
X427Y5226D01*
X424Y5227D01*
Y5232D01*
X425Y5232D01*
X431Y5236D01*
X435Y5242D01*
X436Y5249D01*
X435Y5256D01*
X431Y5262D01*
X425Y5266D01*
X418Y5267D01*
D02*
G37*
G36*
X572Y5186D02*
X565Y5185D01*
X559Y5181D01*
X555Y5175D01*
X554Y5168D01*
X555Y5161D01*
X559Y5155D01*
X565Y5151D01*
X572Y5150D01*
X579Y5151D01*
X585Y5155D01*
X589Y5161D01*
X590Y5168D01*
X589Y5175D01*
X585Y5181D01*
X579Y5185D01*
X572Y5186D01*
D02*
G37*
G36*
X878Y5154D02*
X871Y5153D01*
X865Y5149D01*
X861Y5143D01*
X860Y5139D01*
X855Y5140D01*
X848Y5139D01*
X842Y5135D01*
X838Y5129D01*
X837Y5122D01*
X838Y5115D01*
X842Y5109D01*
X848Y5105D01*
X855Y5104D01*
X862Y5105D01*
X868Y5109D01*
X871Y5114D01*
X871Y5114D01*
X873Y5112D01*
X875Y5109D01*
X874Y5103D01*
X875Y5096D01*
X879Y5090D01*
X885Y5086D01*
X892Y5085D01*
X899Y5086D01*
X905Y5090D01*
X909Y5096D01*
X910Y5103D01*
X909Y5110D01*
X905Y5116D01*
X899Y5120D01*
X895Y5121D01*
X893Y5126D01*
X895Y5129D01*
X896Y5136D01*
X895Y5143D01*
X891Y5149D01*
X885Y5153D01*
X878Y5154D01*
D02*
G37*
G36*
X1018Y5191D02*
X1010Y5189D01*
X1005Y5185D01*
X1001Y5180D01*
X999Y5172D01*
X1001Y5165D01*
X1005Y5160D01*
X1010Y5156D01*
X1018Y5154D01*
X1025Y5156D01*
X1030Y5160D01*
X1036Y5158D01*
X1036Y5157D01*
X1040Y5151D01*
X1046Y5147D01*
X1053Y5146D01*
X1060Y5147D01*
X1063Y5149D01*
X1064Y5149D01*
X1068Y5146D01*
X1069Y5141D01*
X1073Y5135D01*
X1079Y5131D01*
X1086Y5130D01*
X1093Y5131D01*
X1099Y5135D01*
X1103Y5141D01*
X1104Y5148D01*
X1103Y5155D01*
X1099Y5161D01*
X1093Y5165D01*
X1086Y5166D01*
X1079Y5165D01*
X1076Y5163D01*
X1075Y5163D01*
X1071Y5166D01*
X1070Y5171D01*
X1066Y5177D01*
X1060Y5181D01*
X1053Y5182D01*
X1046Y5181D01*
X1040Y5177D01*
X1035Y5178D01*
X1034Y5180D01*
X1030Y5185D01*
X1025Y5189D01*
X1018Y5191D01*
D02*
G37*
G36*
X476Y5175D02*
X469Y5174D01*
X463Y5170D01*
X459Y5164D01*
X458Y5157D01*
X459Y5150D01*
X463Y5144D01*
X469Y5140D01*
X476Y5139D01*
X483Y5140D01*
X488Y5144D01*
X492Y5143D01*
X494Y5142D01*
X494Y5140D01*
X498Y5134D01*
X504Y5130D01*
X511Y5129D01*
X518Y5130D01*
X524Y5134D01*
X528Y5140D01*
X529Y5147D01*
X528Y5154D01*
X524Y5160D01*
X518Y5164D01*
X511Y5165D01*
X504Y5164D01*
X499Y5160D01*
X495Y5161D01*
X493Y5162D01*
X493Y5164D01*
X489Y5170D01*
X483Y5174D01*
X476Y5175D01*
D02*
G37*
G36*
X2156Y5189D02*
X2147Y5188D01*
X2139Y5185D01*
X2132Y5179D01*
X2127Y5172D01*
X2124Y5164D01*
X2123Y5156D01*
X2124Y5147D01*
X2127Y5139D01*
X2132Y5132D01*
X2139Y5127D01*
X2147Y5124D01*
X2156Y5122D01*
X2165Y5124D01*
X2173Y5127D01*
X2180Y5132D01*
X2185Y5139D01*
X2188Y5147D01*
X2189Y5156D01*
X2188Y5164D01*
X2185Y5172D01*
X2180Y5179D01*
X2173Y5185D01*
X2165Y5188D01*
X2156Y5189D01*
D02*
G37*
G36*
X421Y5146D02*
X414Y5145D01*
X408Y5141D01*
X404Y5135D01*
X403Y5128D01*
X404Y5121D01*
X408Y5115D01*
X414Y5111D01*
X421Y5110D01*
X428Y5111D01*
X434Y5115D01*
X438Y5121D01*
X439Y5128D01*
X438Y5135D01*
X434Y5141D01*
X428Y5145D01*
X421Y5146D01*
D02*
G37*
G36*
X2050Y5265D02*
X2040Y5263D01*
X2031Y5259D01*
X2023Y5253D01*
X2017Y5245D01*
X2013Y5236D01*
X2012Y5226D01*
X2013Y5216D01*
X2017Y5207D01*
X2023Y5199D01*
X2031Y5193D01*
X2039Y5189D01*
X2040Y5187D01*
Y5187D01*
X2039Y5184D01*
X2031Y5181D01*
X2023Y5175D01*
X2017Y5167D01*
X2013Y5157D01*
X2012Y5147D01*
X2013Y5138D01*
X2017Y5128D01*
X2023Y5120D01*
X2031Y5114D01*
X2040Y5110D01*
X2050Y5109D01*
X2060Y5110D01*
X2069Y5114D01*
X2077Y5120D01*
X2083Y5128D01*
X2087Y5138D01*
X2088Y5147D01*
X2087Y5157D01*
X2083Y5167D01*
X2077Y5175D01*
X2069Y5181D01*
X2061Y5184D01*
X2060Y5187D01*
Y5187D01*
X2061Y5189D01*
X2069Y5193D01*
X2077Y5199D01*
X2083Y5207D01*
X2087Y5216D01*
X2088Y5226D01*
X2087Y5236D01*
X2083Y5245D01*
X2077Y5253D01*
X2069Y5259D01*
X2060Y5263D01*
X2050Y5265D01*
D02*
G37*
G36*
X600Y5144D02*
X593Y5143D01*
X587Y5139D01*
X583Y5133D01*
X582Y5126D01*
X583Y5119D01*
X587Y5113D01*
X593Y5109D01*
X600Y5108D01*
X607Y5109D01*
X613Y5113D01*
X617Y5119D01*
X618Y5126D01*
X617Y5133D01*
X613Y5139D01*
X607Y5143D01*
X600Y5144D01*
D02*
G37*
G36*
X1196Y5111D02*
X1189Y5110D01*
X1183Y5106D01*
X1182Y5104D01*
X1177Y5103D01*
X1176Y5104D01*
X1171Y5107D01*
X1164Y5108D01*
X1157Y5107D01*
X1151Y5103D01*
X1147Y5097D01*
X1146Y5090D01*
X1147Y5083D01*
X1151Y5077D01*
X1157Y5073D01*
X1164Y5072D01*
X1168Y5072D01*
X1168Y5072D01*
X1170Y5068D01*
X1170Y5068D01*
X1166Y5065D01*
X1162Y5059D01*
X1161Y5052D01*
X1162Y5045D01*
X1166Y5039D01*
X1172Y5035D01*
X1179Y5034D01*
X1181Y5034D01*
X1185Y5031D01*
X1184Y5028D01*
X1186Y5021D01*
X1190Y5015D01*
X1196Y5011D01*
X1203Y5010D01*
X1210Y5011D01*
X1216Y5015D01*
X1220Y5021D01*
X1221Y5028D01*
X1220Y5035D01*
X1216Y5041D01*
X1210Y5045D01*
X1203Y5046D01*
X1200Y5046D01*
X1197Y5049D01*
X1197Y5052D01*
X1196Y5059D01*
X1192Y5065D01*
X1186Y5069D01*
X1179Y5070D01*
X1175Y5070D01*
X1175Y5070D01*
X1173Y5074D01*
X1173Y5074D01*
X1177Y5077D01*
X1178Y5079D01*
X1183Y5080D01*
X1184Y5079D01*
X1189Y5076D01*
X1196Y5075D01*
X1203Y5076D01*
X1209Y5080D01*
X1213Y5086D01*
X1214Y5093D01*
X1213Y5100D01*
X1209Y5106D01*
X1203Y5110D01*
X1196Y5111D01*
D02*
G37*
G36*
X1867Y5124D02*
X1860Y5123D01*
X1854Y5119D01*
X1850Y5113D01*
X1849Y5106D01*
X1850Y5099D01*
X1854Y5093D01*
X1860Y5089D01*
X1867Y5088D01*
X1874Y5089D01*
X1880Y5093D01*
X1884Y5099D01*
X1885Y5106D01*
X1884Y5113D01*
X1880Y5119D01*
X1874Y5123D01*
X1867Y5124D01*
D02*
G37*
G36*
X1814Y5120D02*
X1807Y5119D01*
X1801Y5115D01*
X1797Y5109D01*
X1796Y5102D01*
X1797Y5095D01*
X1801Y5089D01*
X1807Y5085D01*
X1814Y5084D01*
X1821Y5085D01*
X1827Y5089D01*
X1831Y5095D01*
X1832Y5102D01*
X1831Y5109D01*
X1827Y5115D01*
X1821Y5119D01*
X1814Y5120D01*
D02*
G37*
G36*
X1440D02*
X1433Y5119D01*
X1427Y5115D01*
X1423Y5109D01*
X1422Y5102D01*
X1423Y5095D01*
X1427Y5089D01*
X1433Y5085D01*
X1440Y5084D01*
X1447Y5085D01*
X1453Y5089D01*
X1457Y5095D01*
X1458Y5102D01*
X1457Y5109D01*
X1453Y5115D01*
X1447Y5119D01*
X1440Y5120D01*
D02*
G37*
G36*
X2770Y5108D02*
X2763Y5107D01*
X2757Y5103D01*
X2753Y5097D01*
X2752Y5090D01*
X2753Y5083D01*
X2757Y5077D01*
X2763Y5073D01*
X2770Y5072D01*
X2777Y5073D01*
X2783Y5077D01*
X2787Y5083D01*
X2788Y5090D01*
X2787Y5097D01*
X2783Y5103D01*
X2777Y5107D01*
X2770Y5108D01*
D02*
G37*
G36*
X2156Y5110D02*
X2147Y5109D01*
X2139Y5106D01*
X2132Y5101D01*
X2127Y5094D01*
X2124Y5086D01*
X2123Y5077D01*
X2124Y5068D01*
X2127Y5060D01*
X2132Y5053D01*
X2139Y5048D01*
X2147Y5045D01*
X2156Y5044D01*
X2165Y5045D01*
X2173Y5048D01*
X2180Y5053D01*
X2185Y5060D01*
X2188Y5068D01*
X2189Y5077D01*
X2188Y5086D01*
X2185Y5094D01*
X2180Y5101D01*
X2173Y5106D01*
X2165Y5109D01*
X2156Y5110D01*
D02*
G37*
G36*
X4395Y5118D02*
X4385Y5117D01*
X4376Y5113D01*
X4368Y5107D01*
X4362Y5099D01*
X4358Y5090D01*
X4357Y5080D01*
X4358Y5070D01*
X4362Y5061D01*
X4368Y5053D01*
X4376Y5047D01*
X4385Y5043D01*
X4395Y5042D01*
X4405Y5043D01*
X4414Y5047D01*
X4422Y5053D01*
X4428Y5061D01*
X4432Y5070D01*
X4433Y5080D01*
X4432Y5090D01*
X4428Y5099D01*
X4422Y5107D01*
X4414Y5113D01*
X4405Y5117D01*
X4395Y5118D01*
D02*
G37*
G36*
X4295D02*
X4285Y5117D01*
X4276Y5113D01*
X4268Y5107D01*
X4262Y5099D01*
X4258Y5090D01*
X4257Y5080D01*
X4258Y5070D01*
X4262Y5061D01*
X4268Y5053D01*
X4276Y5047D01*
X4285Y5043D01*
X4295Y5042D01*
X4305Y5043D01*
X4314Y5047D01*
X4322Y5053D01*
X4328Y5061D01*
X4332Y5070D01*
X4333Y5080D01*
X4332Y5090D01*
X4328Y5099D01*
X4322Y5107D01*
X4314Y5113D01*
X4305Y5117D01*
X4295Y5118D01*
D02*
G37*
G36*
X867Y5084D02*
X860Y5083D01*
X854Y5079D01*
X850Y5073D01*
X849Y5066D01*
X850Y5059D01*
X854Y5053D01*
X860Y5049D01*
X860Y5048D01*
X861Y5044D01*
X858Y5039D01*
X857Y5032D01*
X858Y5025D01*
X862Y5019D01*
X868Y5015D01*
X875Y5014D01*
X882Y5015D01*
X888Y5019D01*
X892Y5025D01*
X893Y5032D01*
X892Y5039D01*
X888Y5045D01*
X882Y5049D01*
X882Y5050D01*
X881Y5054D01*
X884Y5059D01*
X885Y5066D01*
X884Y5073D01*
X880Y5079D01*
X874Y5083D01*
X867Y5084D01*
D02*
G37*
G36*
X1028Y5045D02*
X1021Y5044D01*
X1015Y5040D01*
X1011Y5034D01*
X1010Y5027D01*
X1011Y5020D01*
X1015Y5014D01*
X1021Y5010D01*
X1028Y5009D01*
X1035Y5010D01*
X1041Y5014D01*
X1045Y5020D01*
X1046Y5027D01*
X1045Y5034D01*
X1041Y5040D01*
X1035Y5044D01*
X1028Y5045D01*
D02*
G37*
G36*
X3680Y5078D02*
X3670Y5077D01*
X3661Y5073D01*
X3653Y5067D01*
X3647Y5059D01*
X3643Y5050D01*
X3642Y5040D01*
X3643Y5030D01*
X3647Y5021D01*
X3653Y5013D01*
X3661Y5007D01*
X3670Y5003D01*
X3680Y5002D01*
X3690Y5003D01*
X3699Y5007D01*
X3707Y5013D01*
X3713Y5021D01*
X3717Y5030D01*
X3718Y5040D01*
X3717Y5050D01*
X3713Y5059D01*
X3707Y5067D01*
X3699Y5073D01*
X3690Y5077D01*
X3680Y5078D01*
D02*
G37*
G36*
X3580D02*
X3570Y5077D01*
X3561Y5073D01*
X3553Y5067D01*
X3547Y5059D01*
X3543Y5050D01*
X3542Y5040D01*
X3543Y5030D01*
X3547Y5021D01*
X3553Y5013D01*
X3561Y5007D01*
X3570Y5003D01*
X3580Y5002D01*
X3590Y5003D01*
X3599Y5007D01*
X3607Y5013D01*
X3613Y5021D01*
X3617Y5030D01*
X3618Y5040D01*
X3617Y5050D01*
X3613Y5059D01*
X3607Y5067D01*
X3599Y5073D01*
X3590Y5077D01*
X3580Y5078D01*
D02*
G37*
G36*
X1401Y5054D02*
X1394Y5053D01*
X1388Y5049D01*
X1384Y5043D01*
X1383Y5036D01*
X1384Y5029D01*
X1388Y5023D01*
X1391Y5021D01*
Y5015D01*
X1388Y5013D01*
X1384Y5007D01*
X1383Y5000D01*
X1384Y4993D01*
X1388Y4987D01*
X1394Y4983D01*
X1401Y4982D01*
X1408Y4983D01*
X1414Y4987D01*
X1418Y4993D01*
X1419Y5000D01*
X1418Y5007D01*
X1414Y5013D01*
X1411Y5015D01*
Y5021D01*
X1414Y5023D01*
X1418Y5029D01*
X1419Y5036D01*
X1418Y5043D01*
X1414Y5049D01*
X1408Y5053D01*
X1401Y5054D01*
D02*
G37*
G36*
X2939Y5011D02*
X2932Y5010D01*
X2926Y5006D01*
X2922Y5000D01*
X2921Y4993D01*
X2922Y4986D01*
X2926Y4980D01*
X2932Y4976D01*
X2939Y4975D01*
X2946Y4976D01*
X2952Y4980D01*
X2956Y4986D01*
X2957Y4993D01*
X2956Y5000D01*
X2952Y5006D01*
X2946Y5010D01*
X2939Y5011D01*
D02*
G37*
G36*
X1204Y5003D02*
X1197Y5002D01*
X1191Y4998D01*
X1187Y4992D01*
X1186Y4985D01*
X1187Y4978D01*
X1191Y4972D01*
X1197Y4968D01*
X1204Y4967D01*
X1211Y4968D01*
X1217Y4972D01*
X1221Y4978D01*
X1222Y4985D01*
X1221Y4992D01*
X1217Y4998D01*
X1211Y5002D01*
X1204Y5003D01*
D02*
G37*
G36*
X2156Y5032D02*
X2147Y5030D01*
X2139Y5027D01*
X2132Y5022D01*
X2127Y5015D01*
X2124Y5007D01*
X2123Y4998D01*
X2124Y4990D01*
X2127Y4982D01*
X2132Y4975D01*
X2139Y4969D01*
X2147Y4966D01*
X2156Y4965D01*
X2165Y4966D01*
X2173Y4969D01*
X2180Y4975D01*
X2185Y4982D01*
X2188Y4990D01*
X2189Y4998D01*
X2188Y5007D01*
X2185Y5015D01*
X2180Y5022D01*
X2173Y5027D01*
X2165Y5030D01*
X2156Y5032D01*
D02*
G37*
G36*
X878Y5000D02*
X871Y4999D01*
X865Y4995D01*
X861Y4989D01*
X860Y4982D01*
X861Y4975D01*
X865Y4969D01*
X871Y4965D01*
X878Y4964D01*
X885Y4965D01*
X891Y4969D01*
X895Y4975D01*
X896Y4982D01*
X895Y4989D01*
X891Y4995D01*
X885Y4999D01*
X878Y5000D01*
D02*
G37*
G36*
X3315Y5132D02*
X3298Y5130D01*
X3282Y5126D01*
X3267Y5117D01*
X3253Y5107D01*
X3243Y5093D01*
X3234Y5078D01*
X3230Y5062D01*
X3228Y5045D01*
X3230Y5028D01*
X3234Y5012D01*
X3243Y4997D01*
X3253Y4983D01*
X3267Y4973D01*
X3282Y4964D01*
X3298Y4960D01*
X3315Y4958D01*
X3332Y4960D01*
X3348Y4964D01*
X3363Y4973D01*
X3377Y4983D01*
X3387Y4997D01*
X3396Y5012D01*
X3400Y5028D01*
X3402Y5045D01*
X3400Y5062D01*
X3396Y5078D01*
X3387Y5093D01*
X3377Y5107D01*
X3363Y5117D01*
X3348Y5126D01*
X3332Y5130D01*
X3315Y5132D01*
D02*
G37*
G36*
X2270Y5133D02*
X2240D01*
X2232Y5132D01*
X2226Y5127D01*
X2221Y5121D01*
X2220Y5113D01*
Y4838D01*
X2221Y4830D01*
X2226Y4824D01*
X2232Y4819D01*
X2240Y4818D01*
X2270D01*
X2278Y4819D01*
X2284Y4824D01*
X2289Y4830D01*
X2290Y4838D01*
Y4985D01*
X2295Y4986D01*
X2298Y4982D01*
X2308Y4968D01*
X2322Y4958D01*
X2337Y4949D01*
X2353Y4945D01*
X2370Y4943D01*
X2387Y4945D01*
X2403Y4949D01*
X2418Y4958D01*
X2432Y4968D01*
X2442Y4982D01*
X2451Y4997D01*
X2455Y5013D01*
X2457Y5030D01*
X2455Y5047D01*
X2451Y5063D01*
X2442Y5078D01*
X2432Y5092D01*
X2418Y5102D01*
X2403Y5111D01*
X2387Y5115D01*
X2370Y5117D01*
X2353Y5115D01*
X2337Y5111D01*
X2322Y5102D01*
X2308Y5092D01*
X2298Y5078D01*
X2295Y5074D01*
X2290Y5075D01*
Y5113D01*
X2289Y5121D01*
X2284Y5127D01*
X2278Y5132D01*
X2270Y5133D01*
D02*
G37*
G36*
X1390Y4978D02*
X1383Y4977D01*
X1377Y4973D01*
X1373Y4967D01*
X1372Y4960D01*
X1373Y4953D01*
X1377Y4947D01*
X1383Y4943D01*
X1390Y4942D01*
X1397Y4943D01*
X1403Y4947D01*
X1407Y4953D01*
X1408Y4960D01*
X1407Y4967D01*
X1403Y4973D01*
X1397Y4977D01*
X1390Y4978D01*
D02*
G37*
G36*
X1816Y4975D02*
X1809Y4974D01*
X1803Y4970D01*
X1799Y4964D01*
X1798Y4957D01*
X1799Y4950D01*
X1803Y4944D01*
X1809Y4940D01*
X1816Y4939D01*
X1823Y4940D01*
X1829Y4944D01*
X1833Y4950D01*
X1834Y4957D01*
X1833Y4964D01*
X1829Y4970D01*
X1823Y4974D01*
X1816Y4975D01*
D02*
G37*
G36*
X2560Y4968D02*
X2553Y4967D01*
X2547Y4963D01*
X2543Y4957D01*
X2542Y4950D01*
X2543Y4943D01*
X2547Y4937D01*
X2553Y4933D01*
X2560Y4932D01*
X2567Y4933D01*
X2573Y4937D01*
X2577Y4943D01*
X2578Y4950D01*
X2577Y4957D01*
X2573Y4963D01*
X2567Y4967D01*
X2560Y4968D01*
D02*
G37*
G36*
X3089Y4966D02*
X3082Y4965D01*
X3076Y4961D01*
X3072Y4955D01*
X3071Y4948D01*
X3072Y4941D01*
X3076Y4935D01*
X3082Y4931D01*
X3089Y4930D01*
X3096Y4931D01*
X3102Y4935D01*
X3106Y4941D01*
X3107Y4948D01*
X3106Y4955D01*
X3102Y4961D01*
X3096Y4965D01*
X3089Y4966D01*
D02*
G37*
G36*
X1160Y4965D02*
X1153Y4964D01*
X1147Y4960D01*
X1143Y4954D01*
X1142Y4947D01*
X1143Y4940D01*
X1147Y4934D01*
X1153Y4930D01*
X1160Y4929D01*
X1167Y4930D01*
X1173Y4934D01*
X1177Y4940D01*
X1178Y4947D01*
X1177Y4954D01*
X1173Y4960D01*
X1167Y4964D01*
X1160Y4965D01*
D02*
G37*
G36*
X1203Y4948D02*
X1196Y4947D01*
X1190Y4943D01*
X1186Y4937D01*
X1185Y4930D01*
X1186Y4923D01*
X1190Y4917D01*
X1196Y4913D01*
X1203Y4912D01*
X1210Y4913D01*
X1216Y4917D01*
X1220Y4923D01*
X1221Y4930D01*
X1220Y4937D01*
X1216Y4943D01*
X1210Y4947D01*
X1203Y4948D01*
D02*
G37*
G36*
X590Y4936D02*
X583Y4935D01*
X577Y4931D01*
X573Y4925D01*
X572Y4918D01*
X573Y4911D01*
X577Y4905D01*
X583Y4901D01*
X590Y4900D01*
X597Y4901D01*
X603Y4905D01*
X607Y4911D01*
X608Y4918D01*
X607Y4925D01*
X603Y4931D01*
X597Y4935D01*
X590Y4936D01*
D02*
G37*
G36*
X1346Y4931D02*
X1339Y4930D01*
X1333Y4926D01*
X1329Y4920D01*
X1328Y4913D01*
X1329Y4906D01*
X1333Y4900D01*
X1339Y4896D01*
X1346Y4895D01*
X1353Y4896D01*
X1359Y4900D01*
X1363Y4906D01*
X1364Y4913D01*
X1363Y4920D01*
X1359Y4926D01*
X1353Y4930D01*
X1346Y4931D01*
D02*
G37*
G36*
X448Y4921D02*
X441Y4920D01*
X435Y4916D01*
X431Y4910D01*
X430Y4903D01*
X431Y4896D01*
X434Y4892D01*
X430Y4888D01*
X429Y4889D01*
X422Y4890D01*
X415Y4889D01*
X409Y4885D01*
X405Y4879D01*
X404Y4872D01*
X405Y4865D01*
X409Y4859D01*
X415Y4855D01*
X422Y4854D01*
X429Y4855D01*
X435Y4859D01*
X439Y4865D01*
X440Y4872D01*
X439Y4879D01*
X436Y4883D01*
X440Y4887D01*
X441Y4886D01*
X448Y4885D01*
X455Y4886D01*
X461Y4890D01*
X465Y4896D01*
X466Y4903D01*
X465Y4910D01*
X461Y4916D01*
X455Y4920D01*
X448Y4921D01*
D02*
G37*
G36*
X4255Y4913D02*
X4248Y4912D01*
X4242Y4908D01*
X4238Y4902D01*
X4237Y4895D01*
X4238Y4888D01*
X4242Y4882D01*
X4248Y4878D01*
X4255Y4877D01*
X4262Y4878D01*
X4268Y4882D01*
X4272Y4888D01*
X4273Y4895D01*
X4272Y4902D01*
X4268Y4908D01*
X4262Y4912D01*
X4255Y4913D01*
D02*
G37*
G36*
X942Y4909D02*
X935Y4908D01*
X929Y4904D01*
X925Y4898D01*
X924Y4891D01*
X925Y4884D01*
X929Y4878D01*
X932Y4876D01*
X931Y4870D01*
X929Y4870D01*
X923Y4866D01*
X922Y4865D01*
X917Y4866D01*
X916Y4870D01*
X912Y4876D01*
X906Y4880D01*
X899Y4881D01*
X894Y4880D01*
X890Y4884D01*
X890Y4884D01*
X890Y4888D01*
X889Y4895D01*
X885Y4901D01*
X879Y4905D01*
X872Y4906D01*
X865Y4905D01*
X859Y4901D01*
X855Y4895D01*
X854Y4888D01*
X855Y4881D01*
X859Y4875D01*
X862Y4873D01*
X861Y4868D01*
X855Y4864D01*
X851Y4858D01*
X850Y4851D01*
X851Y4844D01*
X855Y4838D01*
X861Y4834D01*
X868Y4833D01*
X875Y4834D01*
X881Y4838D01*
X885Y4844D01*
X885Y4846D01*
X890Y4848D01*
X892Y4846D01*
X899Y4845D01*
X906Y4846D01*
X912Y4850D01*
X913Y4851D01*
X918Y4850D01*
X919Y4846D01*
X923Y4840D01*
X929Y4836D01*
X936Y4835D01*
X943Y4836D01*
X949Y4840D01*
X953Y4846D01*
X954Y4853D01*
X953Y4860D01*
X949Y4866D01*
X946Y4868D01*
X947Y4874D01*
X949Y4874D01*
X955Y4878D01*
X959Y4884D01*
X960Y4891D01*
X959Y4898D01*
X955Y4904D01*
X949Y4908D01*
X942Y4909D01*
D02*
G37*
G36*
X1184Y4899D02*
X1177Y4898D01*
X1171Y4894D01*
X1167Y4888D01*
X1166Y4881D01*
X1167Y4874D01*
X1171Y4868D01*
X1177Y4864D01*
X1184Y4863D01*
X1191Y4864D01*
X1197Y4868D01*
X1201Y4874D01*
X1202Y4881D01*
X1201Y4888D01*
X1197Y4894D01*
X1191Y4898D01*
X1184Y4899D01*
D02*
G37*
G36*
X2050Y4933D02*
X2040Y4932D01*
X2031Y4928D01*
X2023Y4922D01*
X2017Y4914D01*
X2013Y4905D01*
X2012Y4895D01*
X2013Y4885D01*
X2017Y4876D01*
X2023Y4868D01*
X2031Y4862D01*
X2040Y4858D01*
X2050Y4857D01*
X2060Y4858D01*
X2069Y4862D01*
X2077Y4868D01*
X2083Y4876D01*
X2087Y4885D01*
X2088Y4895D01*
X2087Y4905D01*
X2083Y4914D01*
X2077Y4922D01*
X2069Y4928D01*
X2060Y4932D01*
X2050Y4933D01*
D02*
G37*
G36*
X708Y4892D02*
X701Y4890D01*
X695Y4886D01*
X691Y4880D01*
X689Y4873D01*
X691Y4866D01*
X695Y4860D01*
X701Y4856D01*
X708Y4855D01*
X715Y4856D01*
X721Y4860D01*
X725Y4866D01*
X726Y4873D01*
X725Y4880D01*
X721Y4886D01*
X715Y4890D01*
X708Y4892D01*
D02*
G37*
G36*
X1535Y4895D02*
X1527Y4893D01*
X1520Y4889D01*
X1516Y4882D01*
X1514Y4874D01*
X1516Y4866D01*
X1520Y4859D01*
X1527Y4855D01*
X1535Y4853D01*
X1543Y4855D01*
X1550Y4859D01*
X1554Y4866D01*
X1556Y4874D01*
X1554Y4882D01*
X1550Y4889D01*
X1543Y4893D01*
X1535Y4895D01*
D02*
G37*
G36*
X3185Y5105D02*
X3135D01*
X3127Y5104D01*
X3121Y5099D01*
X3116Y5093D01*
X3115Y5085D01*
Y4850D01*
X3116Y4842D01*
X3121Y4836D01*
X3127Y4831D01*
X3135Y4830D01*
X3185D01*
X3193Y4831D01*
X3199Y4836D01*
X3204Y4842D01*
X3205Y4850D01*
Y5085D01*
X3204Y5093D01*
X3199Y5099D01*
X3193Y5104D01*
X3185Y5105D01*
D02*
G37*
G36*
X4065Y5095D02*
X4015D01*
X4007Y5094D01*
X4001Y5089D01*
X3996Y5083D01*
X3995Y5075D01*
Y4840D01*
X3996Y4832D01*
X4001Y4826D01*
X4007Y4821D01*
X4015Y4820D01*
X4065D01*
X4073Y4821D01*
X4079Y4826D01*
X4084Y4832D01*
X4085Y4840D01*
Y5075D01*
X4084Y5083D01*
X4079Y5089D01*
X4073Y5094D01*
X4065Y5095D01*
D02*
G37*
G36*
X988Y4852D02*
X981Y4851D01*
X975Y4847D01*
X971Y4841D01*
X970Y4834D01*
X971Y4827D01*
X975Y4821D01*
X981Y4817D01*
X988Y4816D01*
X995Y4817D01*
X1001Y4821D01*
X1005Y4827D01*
X1006Y4834D01*
X1005Y4841D01*
X1001Y4847D01*
X995Y4851D01*
X988Y4852D01*
D02*
G37*
G36*
X1897Y4835D02*
X1890Y4834D01*
X1884Y4830D01*
X1880Y4824D01*
X1879Y4817D01*
X1880Y4810D01*
X1884Y4804D01*
X1890Y4800D01*
X1897Y4799D01*
X1904Y4800D01*
X1910Y4804D01*
X1914Y4810D01*
X1915Y4817D01*
X1914Y4824D01*
X1910Y4830D01*
X1904Y4834D01*
X1897Y4835D01*
D02*
G37*
G36*
X2820Y4828D02*
X2813Y4827D01*
X2807Y4823D01*
X2803Y4817D01*
X2802Y4810D01*
X2803Y4803D01*
X2807Y4797D01*
X2813Y4793D01*
X2820Y4792D01*
X2827Y4793D01*
X2833Y4797D01*
X2837Y4803D01*
X2838Y4810D01*
X2837Y4817D01*
X2833Y4823D01*
X2827Y4827D01*
X2820Y4828D01*
D02*
G37*
G36*
X2154Y4850D02*
X2145Y4849D01*
X2137Y4845D01*
X2130Y4840D01*
X2125Y4833D01*
X2122Y4825D01*
X2121Y4816D01*
X2122Y4808D01*
X2125Y4800D01*
X2130Y4793D01*
X2137Y4788D01*
X2145Y4784D01*
X2154Y4783D01*
X2163Y4784D01*
X2171Y4788D01*
X2178Y4793D01*
X2183Y4800D01*
X2186Y4808D01*
X2187Y4816D01*
X2186Y4825D01*
X2183Y4833D01*
X2178Y4840D01*
X2171Y4845D01*
X2163Y4849D01*
X2154Y4850D01*
D02*
G37*
G36*
X1311Y4821D02*
X1304Y4820D01*
X1298Y4816D01*
X1294Y4810D01*
X1293Y4803D01*
X1294Y4796D01*
X1298Y4790D01*
X1304Y4786D01*
X1311Y4785D01*
X1318Y4786D01*
X1324Y4790D01*
X1328Y4796D01*
X1329Y4799D01*
X1329Y4800D01*
X1334D01*
X1334Y4799D01*
X1335Y4794D01*
X1339Y4788D01*
X1345Y4784D01*
X1352Y4783D01*
X1359Y4784D01*
X1364Y4787D01*
X1364Y4787D01*
X1368Y4786D01*
X1369Y4785D01*
X1370Y4780D01*
X1374Y4774D01*
X1380Y4770D01*
X1387Y4769D01*
X1394Y4770D01*
X1400Y4774D01*
X1404Y4780D01*
X1405Y4787D01*
X1404Y4794D01*
X1400Y4800D01*
X1394Y4804D01*
X1387Y4805D01*
X1380Y4804D01*
X1375Y4801D01*
X1375Y4801D01*
X1371Y4802D01*
X1370Y4803D01*
X1369Y4808D01*
X1365Y4814D01*
X1359Y4818D01*
X1352Y4819D01*
X1345Y4818D01*
X1339Y4814D01*
X1335Y4808D01*
X1334Y4805D01*
X1334Y4804D01*
X1329D01*
X1329Y4805D01*
X1328Y4810D01*
X1324Y4816D01*
X1318Y4820D01*
X1311Y4821D01*
D02*
G37*
G36*
X3090Y4803D02*
X3083Y4802D01*
X3077Y4798D01*
X3073Y4792D01*
X3072Y4785D01*
X3073Y4778D01*
X3077Y4772D01*
X3083Y4768D01*
X3090Y4767D01*
X3097Y4768D01*
X3103Y4772D01*
X3107Y4778D01*
X3108Y4785D01*
X3107Y4792D01*
X3103Y4798D01*
X3097Y4802D01*
X3090Y4803D01*
D02*
G37*
G36*
X2750D02*
X2743Y4802D01*
X2737Y4798D01*
X2733Y4792D01*
X2732Y4785D01*
X2733Y4778D01*
X2737Y4772D01*
X2743Y4768D01*
X2750Y4767D01*
X2757Y4768D01*
X2763Y4772D01*
X2767Y4778D01*
X2768Y4785D01*
X2767Y4792D01*
X2763Y4798D01*
X2757Y4802D01*
X2750Y4803D01*
D02*
G37*
G36*
X1543Y4801D02*
X1536Y4800D01*
X1530Y4796D01*
X1526Y4790D01*
X1525Y4783D01*
X1526Y4776D01*
X1530Y4770D01*
X1536Y4766D01*
X1543Y4765D01*
X1550Y4766D01*
X1556Y4770D01*
X1560Y4776D01*
X1561Y4783D01*
X1560Y4790D01*
X1556Y4796D01*
X1550Y4800D01*
X1543Y4801D01*
D02*
G37*
G36*
X2560Y4788D02*
X2553Y4787D01*
X2547Y4783D01*
X2543Y4777D01*
X2542Y4770D01*
X2543Y4763D01*
X2547Y4757D01*
X2553Y4753D01*
X2560Y4752D01*
X2567Y4753D01*
X2573Y4757D01*
X2577Y4763D01*
X2578Y4770D01*
X2577Y4777D01*
X2573Y4783D01*
X2567Y4787D01*
X2560Y4788D01*
D02*
G37*
G36*
X821Y4777D02*
X814Y4776D01*
X808Y4772D01*
X804Y4766D01*
X803Y4759D01*
X804Y4752D01*
X808Y4746D01*
X814Y4742D01*
X821Y4741D01*
X828Y4742D01*
X834Y4746D01*
X838Y4752D01*
X839Y4759D01*
X838Y4766D01*
X834Y4772D01*
X828Y4776D01*
X821Y4777D01*
D02*
G37*
G36*
X2050Y4813D02*
X2040Y4812D01*
X2031Y4808D01*
X2023Y4802D01*
X2017Y4794D01*
X2013Y4785D01*
X2012Y4775D01*
X2013Y4765D01*
X2017Y4756D01*
X2023Y4748D01*
X2031Y4742D01*
X2040Y4738D01*
X2050Y4737D01*
X2060Y4738D01*
X2069Y4742D01*
X2077Y4748D01*
X2083Y4756D01*
X2087Y4765D01*
X2088Y4775D01*
X2087Y4785D01*
X2083Y4794D01*
X2077Y4802D01*
X2069Y4808D01*
X2060Y4812D01*
X2050Y4813D01*
D02*
G37*
G36*
X1299Y4772D02*
X1292Y4771D01*
X1286Y4767D01*
X1282Y4761D01*
X1281Y4754D01*
X1282Y4747D01*
X1285Y4742D01*
X1284Y4738D01*
X1283Y4737D01*
X1283Y4737D01*
X1277Y4733D01*
X1277Y4733D01*
X1271Y4733D01*
X1269Y4737D01*
X1263Y4741D01*
X1256Y4742D01*
X1249Y4741D01*
X1243Y4737D01*
X1239Y4732D01*
X1239Y4731D01*
X1237Y4731D01*
X1234Y4731D01*
X1231Y4736D01*
X1225Y4740D01*
X1218Y4741D01*
X1211Y4740D01*
X1205Y4736D01*
X1201Y4730D01*
X1200Y4723D01*
X1201Y4716D01*
X1205Y4710D01*
X1211Y4706D01*
X1218Y4705D01*
X1225Y4706D01*
X1231Y4710D01*
X1235Y4715D01*
X1235Y4716D01*
X1237Y4716D01*
X1240Y4716D01*
X1243Y4711D01*
X1249Y4707D01*
X1256Y4706D01*
X1263Y4707D01*
X1269Y4711D01*
X1269Y4711D01*
X1275Y4711D01*
X1277Y4707D01*
X1283Y4703D01*
X1290Y4702D01*
X1297Y4703D01*
X1303Y4707D01*
X1307Y4713D01*
X1308Y4720D01*
X1307Y4727D01*
X1304Y4732D01*
X1305Y4736D01*
X1306Y4737D01*
X1306Y4737D01*
X1312Y4741D01*
X1316Y4747D01*
X1317Y4754D01*
X1316Y4761D01*
X1312Y4767D01*
X1306Y4771D01*
X1299Y4772D01*
D02*
G37*
G36*
X565Y4753D02*
X558Y4752D01*
X552Y4748D01*
X548Y4742D01*
X547Y4735D01*
X548Y4728D01*
X552Y4722D01*
X557Y4719D01*
X555Y4714D01*
X553Y4714D01*
X546Y4713D01*
X540Y4709D01*
X536Y4703D01*
X535Y4696D01*
X536Y4689D01*
X540Y4683D01*
X546Y4679D01*
X553Y4678D01*
X560Y4679D01*
X564Y4682D01*
X569Y4679D01*
X569Y4678D01*
X570Y4671D01*
X574Y4665D01*
X577Y4663D01*
X576Y4658D01*
X573Y4657D01*
X567Y4653D01*
X563Y4647D01*
X562Y4640D01*
X563Y4633D01*
X567Y4627D01*
X573Y4623D01*
X580Y4622D01*
X584Y4622D01*
X587Y4622D01*
X587Y4622D01*
X597D01*
Y4560D01*
X669D01*
Y4622D01*
X679D01*
X682Y4617D01*
X680Y4614D01*
X676Y4605D01*
X675Y4596D01*
X676Y4586D01*
X680Y4578D01*
X686Y4570D01*
X693Y4564D01*
X702Y4561D01*
X711Y4559D01*
X721Y4561D01*
X730Y4564D01*
X737Y4570D01*
X743Y4578D01*
X747Y4586D01*
X748Y4596D01*
X747Y4605D01*
X743Y4614D01*
X741Y4616D01*
X743Y4621D01*
X758D01*
X760Y4616D01*
X759Y4614D01*
X755Y4605D01*
X754Y4596D01*
X755Y4586D01*
X759Y4578D01*
X764Y4570D01*
X772Y4564D01*
X781Y4561D01*
X790Y4559D01*
X800Y4561D01*
X808Y4564D01*
X816Y4570D01*
X822Y4578D01*
X825Y4586D01*
X827Y4596D01*
X825Y4605D01*
X822Y4614D01*
X820Y4616D01*
X822Y4621D01*
X837D01*
X839Y4616D01*
X837Y4614D01*
X834Y4605D01*
X832Y4596D01*
X834Y4586D01*
X837Y4578D01*
X843Y4570D01*
X851Y4564D01*
X859Y4561D01*
X869Y4559D01*
X878Y4561D01*
X887Y4564D01*
X890Y4566D01*
X892Y4565D01*
X894Y4563D01*
X893Y4557D01*
X894Y4550D01*
X898Y4544D01*
X904Y4540D01*
X911Y4539D01*
X918Y4540D01*
X924Y4544D01*
X928Y4550D01*
X929Y4557D01*
X929Y4559D01*
X933Y4563D01*
X938Y4561D01*
X948Y4559D01*
X957Y4561D01*
X966Y4564D01*
X973Y4570D01*
X979Y4578D01*
X983Y4586D01*
X984Y4596D01*
X983Y4605D01*
X979Y4614D01*
X978Y4616D01*
X980Y4621D01*
X994D01*
X996Y4616D01*
X995Y4614D01*
X991Y4605D01*
X990Y4596D01*
X991Y4586D01*
X995Y4578D01*
X1001Y4570D01*
X1008Y4564D01*
X1017Y4561D01*
X1026Y4559D01*
X1036Y4561D01*
X1045Y4564D01*
X1052Y4570D01*
X1058Y4578D01*
X1062Y4586D01*
X1063Y4596D01*
X1062Y4605D01*
X1058Y4614D01*
X1056Y4616D01*
X1058Y4621D01*
X1073D01*
X1075Y4616D01*
X1074Y4614D01*
X1070Y4605D01*
X1069Y4596D01*
X1070Y4586D01*
X1074Y4578D01*
X1079Y4570D01*
X1087Y4564D01*
X1096Y4561D01*
X1105Y4559D01*
X1115Y4561D01*
X1123Y4564D01*
X1131Y4570D01*
X1137Y4578D01*
X1140Y4586D01*
X1142Y4596D01*
X1140Y4605D01*
X1137Y4614D01*
X1135Y4616D01*
X1137Y4621D01*
X1152D01*
X1154Y4616D01*
X1152Y4614D01*
X1149Y4605D01*
X1147Y4596D01*
X1149Y4586D01*
X1152Y4578D01*
X1158Y4570D01*
X1166Y4564D01*
X1174Y4561D01*
X1184Y4559D01*
X1193Y4561D01*
X1202Y4564D01*
X1210Y4570D01*
X1215Y4578D01*
X1219Y4586D01*
X1220Y4596D01*
X1219Y4605D01*
X1215Y4614D01*
X1210Y4622D01*
X1209Y4628D01*
X1217Y4636D01*
X1218Y4636D01*
X1224Y4640D01*
X1228Y4646D01*
X1229Y4653D01*
X1228Y4660D01*
X1224Y4666D01*
X1218Y4670D01*
X1211Y4671D01*
X1204Y4670D01*
X1198Y4666D01*
X1194Y4660D01*
X1193Y4653D01*
X1193Y4649D01*
X1190Y4644D01*
X1182D01*
X1180Y4649D01*
X1183Y4651D01*
X1187Y4657D01*
X1188Y4664D01*
X1187Y4671D01*
X1183Y4677D01*
X1177Y4681D01*
X1170Y4682D01*
X1163Y4681D01*
X1158Y4683D01*
X1158Y4685D01*
X1154Y4691D01*
X1148Y4695D01*
X1141Y4696D01*
X1139Y4696D01*
X1134Y4699D01*
X1133Y4706D01*
X1129Y4712D01*
X1123Y4716D01*
X1116Y4717D01*
X1109Y4716D01*
X1103Y4712D01*
X1099Y4706D01*
X1098Y4699D01*
X1099Y4692D01*
X1103Y4686D01*
X1109Y4682D01*
X1116Y4681D01*
X1118Y4681D01*
X1123Y4678D01*
X1124Y4671D01*
X1128Y4665D01*
X1134Y4661D01*
X1141Y4660D01*
X1147Y4661D01*
X1150Y4660D01*
X1153Y4659D01*
X1153Y4657D01*
X1157Y4651D01*
X1161Y4648D01*
X1160Y4643D01*
X1125D01*
X1125Y4643D01*
X1120Y4644D01*
X1120Y4644D01*
X1090D01*
X1090Y4644D01*
X1085Y4643D01*
X1085Y4643D01*
X1046D01*
X1046Y4643D01*
X1042Y4644D01*
X1042Y4644D01*
X1034D01*
X1031Y4649D01*
X1034Y4653D01*
X1035Y4660D01*
X1034Y4667D01*
X1030Y4673D01*
X1024Y4677D01*
X1017Y4678D01*
X1010Y4677D01*
X1004Y4673D01*
X1000Y4667D01*
X999Y4660D01*
X1000Y4653D01*
X1003Y4648D01*
X1002Y4644D01*
X1001Y4643D01*
X968D01*
X967Y4643D01*
X963Y4644D01*
X963Y4644D01*
X932D01*
X932Y4644D01*
X928Y4643D01*
X928Y4643D01*
X889D01*
X889Y4643D01*
X884Y4644D01*
X884Y4644D01*
X854D01*
X854Y4644D01*
X849Y4643D01*
X849Y4643D01*
X810D01*
X810Y4643D01*
X806Y4644D01*
X806Y4644D01*
X775D01*
X775Y4644D01*
X770Y4643D01*
X770Y4643D01*
X731D01*
X731Y4643D01*
X727Y4644D01*
X727Y4644D01*
X597D01*
X597Y4647D01*
X593Y4653D01*
X590Y4655D01*
X591Y4660D01*
X594Y4661D01*
X600Y4665D01*
X604Y4671D01*
X605Y4678D01*
X604Y4685D01*
X600Y4691D01*
X594Y4695D01*
X587Y4696D01*
X580Y4695D01*
X576Y4692D01*
X571Y4695D01*
X571Y4696D01*
X570Y4703D01*
X566Y4709D01*
X561Y4712D01*
X563Y4717D01*
X565Y4717D01*
X572Y4718D01*
X578Y4722D01*
X582Y4728D01*
X583Y4735D01*
X582Y4742D01*
X578Y4748D01*
X572Y4752D01*
X565Y4753D01*
D02*
G37*
G36*
X1542Y4732D02*
X1535Y4731D01*
X1529Y4727D01*
X1525Y4721D01*
X1524Y4714D01*
X1525Y4707D01*
X1529Y4701D01*
X1535Y4697D01*
X1542Y4696D01*
X1549Y4697D01*
X1555Y4701D01*
X1559Y4707D01*
X1560Y4714D01*
X1559Y4721D01*
X1555Y4727D01*
X1549Y4731D01*
X1542Y4732D01*
D02*
G37*
G36*
X2847Y4723D02*
X2840Y4722D01*
X2834Y4718D01*
X2830Y4712D01*
X2829Y4705D01*
X2830Y4698D01*
X2834Y4692D01*
X2840Y4688D01*
X2847Y4687D01*
X2854Y4688D01*
X2860Y4692D01*
X2864Y4698D01*
X2865Y4705D01*
X2864Y4712D01*
X2860Y4718D01*
X2854Y4722D01*
X2847Y4723D01*
D02*
G37*
G36*
X1747Y4719D02*
X1740Y4718D01*
X1734Y4714D01*
X1730Y4708D01*
X1729Y4701D01*
X1730Y4694D01*
X1734Y4688D01*
X1740Y4684D01*
X1747Y4683D01*
X1754Y4684D01*
X1760Y4688D01*
X1764Y4694D01*
X1765Y4701D01*
X1764Y4708D01*
X1760Y4714D01*
X1754Y4718D01*
X1747Y4719D01*
D02*
G37*
G36*
X1347Y4705D02*
X1340Y4704D01*
X1334Y4700D01*
X1330Y4694D01*
X1329Y4687D01*
X1330Y4680D01*
X1334Y4674D01*
X1340Y4670D01*
X1347Y4669D01*
X1354Y4670D01*
X1360Y4674D01*
X1364Y4680D01*
X1365Y4687D01*
X1364Y4694D01*
X1360Y4700D01*
X1354Y4704D01*
X1347Y4705D01*
D02*
G37*
G36*
X1060Y4693D02*
X1053Y4692D01*
X1047Y4688D01*
X1043Y4682D01*
X1042Y4675D01*
X1043Y4668D01*
X1047Y4662D01*
X1053Y4658D01*
X1060Y4657D01*
X1067Y4658D01*
X1073Y4662D01*
X1077Y4668D01*
X1078Y4675D01*
X1077Y4682D01*
X1073Y4688D01*
X1067Y4692D01*
X1060Y4693D01*
D02*
G37*
G36*
X914Y4687D02*
X907Y4686D01*
X901Y4682D01*
X897Y4676D01*
X896Y4669D01*
X897Y4662D01*
X901Y4656D01*
X907Y4652D01*
X914Y4651D01*
X921Y4652D01*
X927Y4656D01*
X931Y4662D01*
X932Y4669D01*
X931Y4676D01*
X927Y4682D01*
X921Y4686D01*
X914Y4687D01*
D02*
G37*
G36*
X1256Y4685D02*
X1249Y4684D01*
X1243Y4680D01*
X1239Y4674D01*
X1238Y4667D01*
X1239Y4660D01*
X1243Y4654D01*
X1249Y4650D01*
X1256Y4649D01*
X1263Y4650D01*
X1269Y4654D01*
X1273Y4660D01*
X1274Y4667D01*
X1273Y4674D01*
X1269Y4680D01*
X1263Y4684D01*
X1256Y4685D01*
D02*
G37*
G36*
X2050Y4713D02*
X2040Y4712D01*
X2031Y4708D01*
X2023Y4702D01*
X2017Y4694D01*
X2013Y4685D01*
X2012Y4675D01*
X2013Y4665D01*
X2017Y4656D01*
X2023Y4648D01*
X2031Y4642D01*
X2040Y4638D01*
X2050Y4637D01*
X2060Y4638D01*
X2069Y4642D01*
X2077Y4648D01*
X2083Y4656D01*
X2087Y4665D01*
X2088Y4675D01*
X2087Y4685D01*
X2083Y4694D01*
X2077Y4702D01*
X2069Y4708D01*
X2060Y4712D01*
X2050Y4713D01*
D02*
G37*
G36*
X2154Y4692D02*
X2145Y4691D01*
X2137Y4688D01*
X2130Y4683D01*
X2125Y4676D01*
X2122Y4668D01*
X2121Y4659D01*
X2122Y4650D01*
X2125Y4642D01*
X2130Y4635D01*
X2137Y4630D01*
X2145Y4627D01*
X2154Y4626D01*
X2163Y4627D01*
X2171Y4630D01*
X2178Y4635D01*
X2183Y4642D01*
X2186Y4650D01*
X2187Y4659D01*
X2186Y4668D01*
X2183Y4676D01*
X2178Y4683D01*
X2171Y4688D01*
X2163Y4691D01*
X2154Y4692D01*
D02*
G37*
G36*
X4705Y4603D02*
X4698Y4602D01*
X4692Y4598D01*
X4688Y4592D01*
X4687Y4585D01*
X4688Y4578D01*
X4692Y4572D01*
X4698Y4568D01*
X4705Y4567D01*
X4712Y4568D01*
X4718Y4572D01*
X4722Y4578D01*
X4723Y4585D01*
X4722Y4592D01*
X4718Y4598D01*
X4712Y4602D01*
X4705Y4603D01*
D02*
G37*
G36*
X1263Y4632D02*
X1253Y4631D01*
X1244Y4628D01*
X1237Y4622D01*
X1231Y4614D01*
X1227Y4605D01*
X1226Y4596D01*
X1227Y4586D01*
X1231Y4578D01*
X1237Y4570D01*
X1244Y4564D01*
X1253Y4561D01*
X1263Y4559D01*
X1272Y4561D01*
X1281Y4564D01*
X1288Y4570D01*
X1294Y4578D01*
X1298Y4586D01*
X1299Y4596D01*
X1298Y4605D01*
X1294Y4614D01*
X1288Y4622D01*
X1281Y4628D01*
X1272Y4631D01*
X1263Y4632D01*
D02*
G37*
G36*
X2154Y4614D02*
X2145Y4612D01*
X2137Y4609D01*
X2130Y4604D01*
X2125Y4597D01*
X2122Y4589D01*
X2121Y4580D01*
X2122Y4572D01*
X2125Y4564D01*
X2130Y4557D01*
X2137Y4551D01*
X2145Y4548D01*
X2154Y4547D01*
X2163Y4548D01*
X2171Y4551D01*
X2178Y4557D01*
X2183Y4564D01*
X2186Y4572D01*
X2187Y4580D01*
X2186Y4589D01*
X2183Y4597D01*
X2178Y4604D01*
X2171Y4609D01*
X2163Y4612D01*
X2154Y4614D01*
D02*
G37*
G36*
X2919Y4608D02*
X2910Y4607D01*
X2902Y4604D01*
X2895Y4599D01*
X2890Y4592D01*
X2887Y4584D01*
X2885Y4575D01*
X2887Y4566D01*
X2890Y4558D01*
X2895Y4551D01*
X2902Y4546D01*
X2910Y4543D01*
X2919Y4542D01*
X2927Y4543D01*
X2935Y4546D01*
X2942Y4551D01*
X2948Y4558D01*
X2951Y4566D01*
X2952Y4575D01*
X2951Y4584D01*
X2948Y4592D01*
X2942Y4599D01*
X2935Y4604D01*
X2927Y4607D01*
X2919Y4608D01*
D02*
G37*
G36*
X2840D02*
X2831Y4607D01*
X2823Y4604D01*
X2816Y4599D01*
X2811Y4592D01*
X2808Y4584D01*
X2807Y4575D01*
X2808Y4566D01*
X2811Y4558D01*
X2816Y4551D01*
X2823Y4546D01*
X2831Y4543D01*
X2840Y4542D01*
X2849Y4543D01*
X2857Y4546D01*
X2864Y4551D01*
X2869Y4558D01*
X2872Y4566D01*
X2873Y4575D01*
X2872Y4584D01*
X2869Y4592D01*
X2864Y4599D01*
X2857Y4604D01*
X2849Y4607D01*
X2840Y4608D01*
D02*
G37*
G36*
X2761D02*
X2753Y4607D01*
X2745Y4604D01*
X2738Y4599D01*
X2732Y4592D01*
X2729Y4584D01*
X2728Y4575D01*
X2729Y4566D01*
X2732Y4558D01*
X2738Y4551D01*
X2745Y4546D01*
X2753Y4543D01*
X2761Y4542D01*
X2770Y4543D01*
X2778Y4546D01*
X2785Y4551D01*
X2790Y4558D01*
X2793Y4566D01*
X2795Y4575D01*
X2793Y4584D01*
X2790Y4592D01*
X2785Y4599D01*
X2778Y4604D01*
X2770Y4607D01*
X2761Y4608D01*
D02*
G37*
G36*
X2683D02*
X2674Y4607D01*
X2666Y4604D01*
X2659Y4599D01*
X2654Y4592D01*
X2650Y4584D01*
X2649Y4575D01*
X2650Y4566D01*
X2654Y4558D01*
X2659Y4551D01*
X2666Y4546D01*
X2674Y4543D01*
X2683Y4542D01*
X2691Y4543D01*
X2699Y4546D01*
X2706Y4551D01*
X2711Y4558D01*
X2715Y4566D01*
X2716Y4575D01*
X2715Y4584D01*
X2711Y4592D01*
X2706Y4599D01*
X2699Y4604D01*
X2691Y4607D01*
X2683Y4608D01*
D02*
G37*
G36*
X1840Y4613D02*
X1830Y4612D01*
X1821Y4608D01*
X1813Y4602D01*
X1807Y4594D01*
X1803Y4585D01*
X1802Y4575D01*
X1803Y4565D01*
X1807Y4556D01*
X1813Y4548D01*
X1821Y4542D01*
X1830Y4538D01*
X1840Y4537D01*
X1850Y4538D01*
X1859Y4542D01*
X1867Y4548D01*
X1873Y4556D01*
X1877Y4565D01*
X1878Y4575D01*
X1877Y4585D01*
X1873Y4594D01*
X1867Y4602D01*
X1859Y4608D01*
X1850Y4612D01*
X1840Y4613D01*
D02*
G37*
G36*
X1740D02*
X1730Y4612D01*
X1721Y4608D01*
X1713Y4602D01*
X1707Y4594D01*
X1703Y4585D01*
X1702Y4575D01*
X1703Y4565D01*
X1707Y4556D01*
X1713Y4548D01*
X1721Y4542D01*
X1730Y4538D01*
X1740Y4537D01*
X1750Y4538D01*
X1759Y4542D01*
X1767Y4548D01*
X1773Y4556D01*
X1777Y4565D01*
X1778Y4575D01*
X1777Y4585D01*
X1773Y4594D01*
X1767Y4602D01*
X1759Y4608D01*
X1750Y4612D01*
X1740Y4613D01*
D02*
G37*
G36*
X1630D02*
X1620Y4612D01*
X1611Y4608D01*
X1603Y4602D01*
X1597Y4594D01*
X1593Y4585D01*
X1592Y4575D01*
X1593Y4565D01*
X1597Y4556D01*
X1603Y4548D01*
X1611Y4542D01*
X1620Y4538D01*
X1630Y4537D01*
X1640Y4538D01*
X1649Y4542D01*
X1657Y4548D01*
X1663Y4556D01*
X1667Y4565D01*
X1668Y4575D01*
X1667Y4585D01*
X1663Y4594D01*
X1657Y4602D01*
X1649Y4608D01*
X1640Y4612D01*
X1630Y4613D01*
D02*
G37*
G36*
X1530D02*
X1520Y4612D01*
X1511Y4608D01*
X1503Y4602D01*
X1497Y4594D01*
X1493Y4585D01*
X1492Y4575D01*
X1493Y4565D01*
X1497Y4556D01*
X1503Y4548D01*
X1511Y4542D01*
X1520Y4538D01*
X1530Y4537D01*
X1540Y4538D01*
X1549Y4542D01*
X1557Y4548D01*
X1563Y4556D01*
X1567Y4565D01*
X1568Y4575D01*
X1567Y4585D01*
X1563Y4594D01*
X1557Y4602D01*
X1549Y4608D01*
X1540Y4612D01*
X1530Y4613D01*
D02*
G37*
%LPD*%
D37*
X714Y5250D02*
Y5280D01*
Y5250D02*
X726Y5238D01*
X1211Y4646D02*
Y4653D01*
X1198Y4633D02*
X1211Y4646D01*
X726Y5238D02*
X1433D01*
X1435Y5236D01*
X587Y4633D02*
X727D01*
X580Y4640D02*
X587Y4633D01*
X807Y4632D02*
X853D01*
X806Y4633D02*
X807Y4632D01*
X775Y4633D02*
X806D01*
X774Y4632D02*
X775Y4633D01*
X728Y4632D02*
X774D01*
X885D02*
X931D01*
X884Y4633D02*
X885Y4632D01*
X854Y4633D02*
X884D01*
X853Y4632D02*
X854Y4633D01*
X964Y4632D02*
X1010D01*
X963Y4633D02*
X964Y4632D01*
X932Y4633D02*
X963D01*
X931Y4632D02*
X932Y4633D01*
X727D02*
X728Y4632D01*
X1043D02*
X1089D01*
X1042Y4633D02*
X1043Y4632D01*
X1011Y4633D02*
X1042D01*
X1010Y4632D02*
X1011Y4633D01*
X1168D02*
X1198D01*
X1167Y4632D02*
X1168Y4633D01*
X1121Y4632D02*
X1167D01*
X1120Y4633D02*
X1121Y4632D01*
X1090Y4633D02*
X1120D01*
X1089Y4632D02*
X1090Y4633D01*
X369Y4498D02*
Y5568D01*
X2240Y4838D02*
Y5113D01*
Y4838D02*
X2270D01*
Y5113D01*
X2240D02*
X2270D01*
X2240Y4548D02*
Y4788D01*
Y4548D02*
X2270D01*
Y4788D01*
X2240D02*
X2270D01*
X369Y5568D02*
X2243D01*
Y5165D02*
Y5568D01*
D38*
X369Y4498D02*
X3998D01*
X3135Y4785D02*
X3185D01*
Y4545D02*
Y4785D01*
X3135Y4545D02*
X3185D01*
X3135D02*
Y4785D01*
Y5090D02*
X3185D01*
Y4850D02*
Y5090D01*
X3135Y4850D02*
X3185D01*
X3135D02*
Y5090D01*
X4785Y4498D02*
Y4780D01*
X3998Y4498D02*
X4785D01*
X4015Y4840D02*
Y5080D01*
Y4840D02*
X4065D01*
Y5080D01*
X4015D02*
X4065D01*
X4015Y4535D02*
Y4775D01*
Y4535D02*
X4065D01*
Y4775D01*
X4015D02*
X4065D01*
X2243Y5165D02*
X4785D01*
Y4780D02*
Y5165D01*
D57*
X1341Y4596D02*
D03*
D60*
X2050Y4575D02*
D03*
Y4995D02*
D03*
D61*
X1940Y4575D02*
D03*
X3780Y5040D02*
D03*
X1430Y4575D02*
D03*
X4195Y5080D02*
D03*
D62*
X504Y5022D02*
D03*
D63*
X2154Y4738D02*
D03*
X2156Y4920D02*
D03*
D64*
X2997Y4575D02*
D03*
D65*
X2326Y4797D02*
D03*
X732Y5189D02*
D03*
X1123Y5086D02*
D03*
X714Y5280D02*
D03*
X994Y5340D02*
D03*
X1295Y5382D02*
D03*
X1211Y4653D02*
D03*
X1435Y5236D02*
D03*
X1021Y4840D02*
D03*
X580Y4640D02*
D03*
X631Y4880D02*
D03*
X1388Y4662D02*
D03*
X1015Y4899D02*
D03*
X417Y5288D02*
D03*
X670Y5338D02*
D03*
X1391Y5496D02*
D03*
X1134Y5038D02*
D03*
X815Y4721D02*
D03*
X851Y5386D02*
D03*
X948Y5314D02*
D03*
X880Y4946D02*
D03*
X1738Y4955D02*
D03*
X1388Y4892D02*
D03*
X877Y4660D02*
D03*
X1166Y4983D02*
D03*
X1500Y5003D02*
D03*
X568Y4880D02*
D03*
X1325Y4726D02*
D03*
X1687Y5104D02*
D03*
X422Y4733D02*
D03*
X1528Y5158D02*
D03*
X836Y5285D02*
D03*
D67*
X1772Y5525D02*
D03*
X1685Y4810D02*
D03*
X2008Y5481D02*
D03*
D68*
X3673Y4874D02*
D03*
D69*
X2820Y4910D02*
D03*
M02*
