G04 Layer_Color=16711935*
%FSLAX23Y23*%
%MOIN*%
G70*
G01*
G75*
%ADD37C,0.006*%
%ADD38C,0.010*%
G04:AMPARAMS|DCode=92|XSize=58mil|YSize=28mil|CornerRadius=9mil|HoleSize=0mil|Usage=FLASHONLY|Rotation=270.000|XOffset=0mil|YOffset=0mil|HoleType=Round|Shape=RoundedRectangle|*
%AMROUNDEDRECTD92*
21,1,0.058,0.009,0,0,270.0*
21,1,0.040,0.028,0,0,270.0*
1,1,0.018,-0.005,-0.020*
1,1,0.018,-0.005,0.020*
1,1,0.018,0.005,0.020*
1,1,0.018,0.005,-0.020*
%
%ADD92ROUNDEDRECTD92*%
G04:AMPARAMS|DCode=93|XSize=45mil|YSize=45mil|CornerRadius=13mil|HoleSize=0mil|Usage=FLASHONLY|Rotation=0.000|XOffset=0mil|YOffset=0mil|HoleType=Round|Shape=RoundedRectangle|*
%AMROUNDEDRECTD93*
21,1,0.045,0.019,0,0,0.0*
21,1,0.019,0.045,0,0,0.0*
1,1,0.026,0.010,-0.009*
1,1,0.026,-0.010,-0.009*
1,1,0.026,-0.010,0.009*
1,1,0.026,0.010,0.009*
%
%ADD93ROUNDEDRECTD93*%
G04:AMPARAMS|DCode=100|XSize=45mil|YSize=45mil|CornerRadius=13mil|HoleSize=0mil|Usage=FLASHONLY|Rotation=270.000|XOffset=0mil|YOffset=0mil|HoleType=Round|Shape=RoundedRectangle|*
%AMROUNDEDRECTD100*
21,1,0.045,0.019,0,0,270.0*
21,1,0.019,0.045,0,0,270.0*
1,1,0.026,-0.009,-0.010*
1,1,0.026,-0.009,0.010*
1,1,0.026,0.009,0.010*
1,1,0.026,0.009,-0.010*
%
%ADD100ROUNDEDRECTD100*%
G04:AMPARAMS|DCode=106|XSize=42mil|YSize=47mil|CornerRadius=13mil|HoleSize=0mil|Usage=FLASHONLY|Rotation=0.000|XOffset=0mil|YOffset=0mil|HoleType=Round|Shape=RoundedRectangle|*
%AMROUNDEDRECTD106*
21,1,0.042,0.021,0,0,0.0*
21,1,0.017,0.047,0,0,0.0*
1,1,0.025,0.008,-0.011*
1,1,0.025,-0.008,-0.011*
1,1,0.025,-0.008,0.011*
1,1,0.025,0.008,0.011*
%
%ADD106ROUNDEDRECTD106*%
G04:AMPARAMS|DCode=107|XSize=42mil|YSize=47mil|CornerRadius=13mil|HoleSize=0mil|Usage=FLASHONLY|Rotation=270.000|XOffset=0mil|YOffset=0mil|HoleType=Round|Shape=RoundedRectangle|*
%AMROUNDEDRECTD107*
21,1,0.042,0.021,0,0,270.0*
21,1,0.017,0.047,0,0,270.0*
1,1,0.025,-0.011,-0.008*
1,1,0.025,-0.011,0.008*
1,1,0.025,0.011,0.008*
1,1,0.025,0.011,-0.008*
%
%ADD107ROUNDEDRECTD107*%
%ADD108C,0.064*%
%ADD109R,0.064X0.064*%
%ADD110C,0.068*%
%ADD111R,0.068X0.068*%
%ADD112R,0.068X0.068*%
%ADD113C,0.058*%
%ADD114R,0.058X0.058*%
%ADD115R,0.058X0.058*%
%ADD116C,0.028*%
%ADD117C,0.033*%
%ADD118C,0.032*%
%ADD119C,0.048*%
%ADD120C,0.038*%
%ADD121C,0.165*%
G04:AMPARAMS|DCode=122|XSize=58mil|YSize=28mil|CornerRadius=9mil|HoleSize=0mil|Usage=FLASHONLY|Rotation=180.000|XOffset=0mil|YOffset=0mil|HoleType=Round|Shape=RoundedRectangle|*
%AMROUNDEDRECTD122*
21,1,0.058,0.009,0,0,180.0*
21,1,0.040,0.028,0,0,180.0*
1,1,0.018,-0.020,0.005*
1,1,0.018,0.020,0.005*
1,1,0.018,0.020,-0.005*
1,1,0.018,-0.020,-0.005*
%
%ADD122ROUNDEDRECTD122*%
G04:AMPARAMS|DCode=123|XSize=44mil|YSize=45mil|CornerRadius=13mil|HoleSize=0mil|Usage=FLASHONLY|Rotation=270.000|XOffset=0mil|YOffset=0mil|HoleType=Round|Shape=RoundedRectangle|*
%AMROUNDEDRECTD123*
21,1,0.044,0.018,0,0,270.0*
21,1,0.018,0.045,0,0,270.0*
1,1,0.026,-0.009,-0.009*
1,1,0.026,-0.009,0.009*
1,1,0.026,0.009,0.009*
1,1,0.026,0.009,-0.009*
%
%ADD123ROUNDEDRECTD123*%
G04:AMPARAMS|DCode=124|XSize=67mil|YSize=38mil|CornerRadius=11mil|HoleSize=0mil|Usage=FLASHONLY|Rotation=180.000|XOffset=0mil|YOffset=0mil|HoleType=Round|Shape=RoundedRectangle|*
%AMROUNDEDRECTD124*
21,1,0.067,0.015,0,0,180.0*
21,1,0.044,0.038,0,0,180.0*
1,1,0.023,-0.022,0.007*
1,1,0.023,0.022,0.007*
1,1,0.023,0.022,-0.007*
1,1,0.023,-0.022,-0.007*
%
%ADD124ROUNDEDRECTD124*%
%ADD125R,0.054X0.066*%
%ADD126R,0.067X0.067*%
%ADD127R,0.039X0.063*%
%ADD128R,0.038X0.076*%
%ADD129R,0.033X0.042*%
%ADD130R,0.047X0.047*%
%ADD131R,0.095X0.047*%
G36*
X1527Y5083D02*
X1462D01*
Y5130D01*
X1527D01*
Y5083D01*
D02*
G37*
G36*
X1959Y5011D02*
X1911D01*
Y5079D01*
X1959D01*
Y5011D01*
D02*
G37*
D37*
X369Y4498D02*
Y5568D01*
X2240Y4838D02*
Y5113D01*
Y4838D02*
X2270D01*
Y5113D01*
X2240D02*
X2270D01*
X2240Y4548D02*
Y4788D01*
Y4548D02*
X2270D01*
Y4788D01*
X2240D02*
X2270D01*
X369Y5568D02*
X2243D01*
Y5165D02*
Y5568D01*
D38*
X369Y4498D02*
X3998D01*
X3135Y4785D02*
X3185D01*
Y4545D02*
Y4785D01*
X3135Y4545D02*
X3185D01*
X3135D02*
Y4785D01*
Y5090D02*
X3185D01*
Y4850D02*
Y5090D01*
X3135Y4850D02*
X3185D01*
X3135D02*
Y5090D01*
X4785Y4498D02*
Y4780D01*
X3998Y4498D02*
X4785D01*
X4015Y4840D02*
Y5080D01*
Y4840D02*
X4065D01*
Y5080D01*
X4015D02*
X4065D01*
X4015Y4535D02*
Y4775D01*
Y4535D02*
X4065D01*
Y4775D01*
X4015D02*
X4065D01*
X2243Y5165D02*
X4785D01*
Y4780D02*
Y5165D01*
D92*
X4394Y4836D02*
D03*
X4446D02*
D03*
X4420Y4754D02*
D03*
X2715Y4829D02*
D03*
X2741Y4911D02*
D03*
X2689D02*
D03*
D93*
X1860Y4660D02*
D03*
X1920D02*
D03*
X1490Y4898D02*
D03*
X1430D02*
D03*
Y4839D02*
D03*
X1490D02*
D03*
X1535Y4950D02*
D03*
X1595D02*
D03*
X551Y4951D02*
D03*
X491D02*
D03*
X465Y4850D02*
D03*
X525D02*
D03*
X522Y4786D02*
D03*
X463D02*
D03*
X3500Y5035D02*
D03*
X3440D02*
D03*
X2945Y4930D02*
D03*
X2885D02*
D03*
X2945Y4865D02*
D03*
X2885D02*
D03*
Y4800D02*
D03*
X2945D02*
D03*
X1128Y5138D02*
D03*
X1188D02*
D03*
X1320Y4850D02*
D03*
X1380D02*
D03*
X938Y4749D02*
D03*
X998D02*
D03*
X930Y5138D02*
D03*
X990D02*
D03*
X930Y5210D02*
D03*
X990D02*
D03*
X1188D02*
D03*
X1128D02*
D03*
X990Y5066D02*
D03*
X930D02*
D03*
D100*
X1584Y4770D02*
D03*
Y4830D02*
D03*
X596Y5295D02*
D03*
Y5235D02*
D03*
X656D02*
D03*
Y5295D02*
D03*
X463Y5235D02*
D03*
Y5295D02*
D03*
X521Y5235D02*
D03*
Y5295D02*
D03*
X650Y4694D02*
D03*
Y4754D02*
D03*
X431Y5053D02*
D03*
Y4993D02*
D03*
X575Y5070D02*
D03*
Y5010D02*
D03*
X722Y4754D02*
D03*
Y4694D02*
D03*
X832Y5003D02*
D03*
Y4943D02*
D03*
X1325Y5275D02*
D03*
Y5335D02*
D03*
X1121Y4988D02*
D03*
Y4928D02*
D03*
X847Y5183D02*
D03*
Y5243D02*
D03*
X1062Y4992D02*
D03*
Y4932D02*
D03*
X782Y5186D02*
D03*
Y5246D02*
D03*
X1070Y5108D02*
D03*
Y5048D02*
D03*
D106*
X1282Y5017D02*
D03*
X1344D02*
D03*
X2811Y4675D02*
D03*
X2749D02*
D03*
X1427Y4728D02*
D03*
X1489D02*
D03*
X4446Y4920D02*
D03*
X4384D02*
D03*
X2013Y5071D02*
D03*
X2075D02*
D03*
X1174Y5304D02*
D03*
X1236D02*
D03*
X1490Y4661D02*
D03*
X1428D02*
D03*
X2946Y4675D02*
D03*
X2884D02*
D03*
X2754Y4741D02*
D03*
X2816D02*
D03*
X2946Y4740D02*
D03*
X2884D02*
D03*
X1587Y4873D02*
D03*
X1649D02*
D03*
X612Y4837D02*
D03*
X674D02*
D03*
X2685Y4996D02*
D03*
X2747D02*
D03*
D107*
X644Y4991D02*
D03*
Y4929D02*
D03*
X1393Y5153D02*
D03*
Y5215D02*
D03*
X1070Y4782D02*
D03*
Y4844D02*
D03*
X709Y4929D02*
D03*
Y4991D02*
D03*
X1393Y5341D02*
D03*
Y5280D02*
D03*
X982Y4998D02*
D03*
Y4936D02*
D03*
X928Y4998D02*
D03*
Y4936D02*
D03*
X1107Y5311D02*
D03*
Y5373D02*
D03*
X1035D02*
D03*
Y5311D02*
D03*
X2810Y4979D02*
D03*
Y5041D02*
D03*
D108*
X633Y5462D02*
D03*
X711D02*
D03*
X790D02*
D03*
X869D02*
D03*
X948D02*
D03*
X1026D02*
D03*
X1105D02*
D03*
X1184D02*
D03*
X1263D02*
D03*
X1341D02*
D03*
Y4596D02*
D03*
X1263D02*
D03*
X1184D02*
D03*
X1105D02*
D03*
X1026D02*
D03*
X948D02*
D03*
X869D02*
D03*
X790D02*
D03*
X711D02*
D03*
D109*
X633D02*
D03*
D110*
X2050Y4775D02*
D03*
Y4675D02*
D03*
X1740Y4575D02*
D03*
X1840D02*
D03*
X2050Y4895D02*
D03*
X3680Y5040D02*
D03*
X3580D02*
D03*
X1630Y4575D02*
D03*
X1530D02*
D03*
X4395Y5080D02*
D03*
X4295D02*
D03*
X2050Y5226D02*
D03*
Y5147D02*
D03*
D111*
Y4575D02*
D03*
Y4995D02*
D03*
D112*
X1940Y4575D02*
D03*
X3780Y5040D02*
D03*
X1430Y4575D02*
D03*
X4195Y5080D02*
D03*
D113*
X2154Y4659D02*
D03*
Y4580D02*
D03*
Y4816D02*
D03*
X2156Y5077D02*
D03*
Y4998D02*
D03*
Y5156D02*
D03*
Y5234D02*
D03*
X2683Y4575D02*
D03*
X2761D02*
D03*
X2919D02*
D03*
X2840D02*
D03*
X504Y5022D02*
D03*
D114*
X2154Y4738D02*
D03*
X2156Y4920D02*
D03*
D115*
X2997Y4575D02*
D03*
D116*
X911Y4557D02*
D03*
X2210Y4548D02*
D03*
X2326Y4797D02*
D03*
X732Y5189D02*
D03*
X988Y5421D02*
D03*
X1123Y5086D02*
D03*
X1814Y5102D02*
D03*
X418Y5249D02*
D03*
X714Y5280D02*
D03*
X667Y5194D02*
D03*
X1542Y4714D02*
D03*
X994Y5340D02*
D03*
X1268Y5352D02*
D03*
X1353Y5373D02*
D03*
X1295Y5382D02*
D03*
X2847Y4705D02*
D03*
X1442Y5269D02*
D03*
X553Y4696D02*
D03*
X1211Y4653D02*
D03*
X1435Y5236D02*
D03*
X1543Y4783D02*
D03*
X511Y5147D02*
D03*
X1021Y4840D02*
D03*
X868Y4851D02*
D03*
X1028Y5027D02*
D03*
X580Y4640D02*
D03*
X631Y4880D02*
D03*
X2939Y4993D02*
D03*
X1290Y4720D02*
D03*
X1299Y4754D02*
D03*
X1388Y4662D02*
D03*
X1220Y5350D02*
D03*
X1176Y5368D02*
D03*
X1232Y5383D02*
D03*
X1297Y5500D02*
D03*
X1275Y5287D02*
D03*
X1440Y5102D02*
D03*
X1347Y4687D02*
D03*
X1015Y4899D02*
D03*
X3089Y4948D02*
D03*
X988Y4834D02*
D03*
X1311Y4803D02*
D03*
X448Y4903D02*
D03*
X417Y5288D02*
D03*
X1401Y5000D02*
D03*
X670Y5338D02*
D03*
X1616Y5370D02*
D03*
X1722Y5256D02*
D03*
X3098Y4717D02*
D03*
X1439Y5331D02*
D03*
X1127Y5414D02*
D03*
X1401Y5036D02*
D03*
X1391Y5496D02*
D03*
X708Y4873D02*
D03*
X720Y5219D02*
D03*
X1134Y5038D02*
D03*
X1179Y5052D02*
D03*
X1203Y5028D02*
D03*
X1203Y4930D02*
D03*
X899Y4863D02*
D03*
X942Y4891D02*
D03*
X1018Y5172D02*
D03*
X815Y4721D02*
D03*
X851Y5386D02*
D03*
X1085Y5520D02*
D03*
X1053Y5164D02*
D03*
X1086Y5148D02*
D03*
X721Y5328D02*
D03*
X948Y5314D02*
D03*
X872Y4888D02*
D03*
X936Y4853D02*
D03*
X880Y4946D02*
D03*
X855Y5122D02*
D03*
X892Y5103D02*
D03*
X1867Y5106D02*
D03*
X1897Y4817D02*
D03*
X1204Y4985D02*
D03*
X1390Y4960D02*
D03*
X1738Y4955D02*
D03*
X1816Y4957D02*
D03*
X1164Y5090D02*
D03*
X1196Y5093D02*
D03*
X878Y5136D02*
D03*
X1352Y4801D02*
D03*
X1388Y4892D02*
D03*
X1346Y4913D02*
D03*
X1256Y4724D02*
D03*
X877Y4660D02*
D03*
X1060Y4675D02*
D03*
X914Y4669D02*
D03*
X821Y4759D02*
D03*
X439Y5178D02*
D03*
X600Y5126D02*
D03*
X572Y5168D02*
D03*
X628Y5345D02*
D03*
X420Y5209D02*
D03*
X421Y5128D02*
D03*
X1613Y5260D02*
D03*
X422Y4872D02*
D03*
X590Y4918D02*
D03*
X1166Y4983D02*
D03*
X1160Y4947D02*
D03*
X476Y5157D02*
D03*
X587Y4678D02*
D03*
X1184Y4881D02*
D03*
X1170Y4664D02*
D03*
X1017Y4660D02*
D03*
X1500Y5003D02*
D03*
X1256Y4667D02*
D03*
X565Y4735D02*
D03*
X4705Y4585D02*
D03*
X568Y4880D02*
D03*
X2770Y5090D02*
D03*
X2560Y4950D02*
D03*
X4255Y4895D02*
D03*
X3090Y4785D02*
D03*
X2750D02*
D03*
X2820Y4810D02*
D03*
X2560Y4770D02*
D03*
X1972Y5281D02*
D03*
X875Y5032D02*
D03*
X878Y4982D02*
D03*
X1325Y4726D02*
D03*
X1116Y4699D02*
D03*
X1687Y5104D02*
D03*
X422Y4733D02*
D03*
X915Y5317D02*
D03*
X1747Y4701D02*
D03*
X1141Y4678D02*
D03*
X1218Y4723D02*
D03*
X1626Y5523D02*
D03*
X1387Y4787D02*
D03*
X867Y5066D02*
D03*
X1528Y5158D02*
D03*
X1511Y5309D02*
D03*
X836Y5285D02*
D03*
D117*
X1535Y4874D02*
D03*
D118*
X1772Y5525D02*
D03*
X1685Y4810D02*
D03*
X2008Y5481D02*
D03*
D119*
X3673Y4874D02*
D03*
D120*
X2820Y4910D02*
D03*
D121*
X474Y4606D02*
D03*
Y5449D02*
D03*
X2121D02*
D03*
X3315Y5045D02*
D03*
X4679Y5054D02*
D03*
X2370Y5030D02*
D03*
D122*
X1156Y4782D02*
D03*
Y4834D02*
D03*
X1238Y4808D02*
D03*
X1251Y5192D02*
D03*
Y5244D02*
D03*
X1333Y5218D02*
D03*
D123*
X1448Y4956D02*
D03*
Y5016D02*
D03*
D124*
X4202Y4620D02*
D03*
X4338D02*
D03*
X4578D02*
D03*
X4442D02*
D03*
D125*
X1487Y5460D02*
D03*
D126*
X1940D02*
D03*
D127*
X1945Y5135D02*
D03*
X1485Y5169D02*
D03*
D128*
X1540Y5465D02*
D03*
X1583D02*
D03*
X1627D02*
D03*
X1757D02*
D03*
X1713D02*
D03*
X1670D02*
D03*
X1800D02*
D03*
X1843D02*
D03*
D129*
X2975Y4994D02*
D03*
X2885D02*
D03*
D130*
X2510Y4670D02*
D03*
X2380D02*
D03*
D131*
X2445Y4730D02*
D03*
Y4610D02*
D03*
M02*
