G04 Layer_Physical_Order=1*
G04 Layer_Color=255*
%FSLAX23Y23*%
%MOIN*%
G70*
G01*
G75*
%ADD10R,0.024X0.043*%
G04:AMPARAMS|DCode=11|XSize=35mil|YSize=10mil|CornerRadius=3mil|HoleSize=0mil|Usage=FLASHONLY|Rotation=270.000|XOffset=0mil|YOffset=0mil|HoleType=Round|Shape=RoundedRectangle|*
%AMROUNDEDRECTD11*
21,1,0.035,0.005,0,0,270.0*
21,1,0.030,0.010,0,0,270.0*
1,1,0.006,-0.002,-0.015*
1,1,0.006,-0.002,0.015*
1,1,0.006,0.002,0.015*
1,1,0.006,0.002,-0.015*
%
%ADD11ROUNDEDRECTD11*%
G04:AMPARAMS|DCode=12|XSize=35mil|YSize=10mil|CornerRadius=3mil|HoleSize=0mil|Usage=FLASHONLY|Rotation=180.000|XOffset=0mil|YOffset=0mil|HoleType=Round|Shape=RoundedRectangle|*
%AMROUNDEDRECTD12*
21,1,0.035,0.005,0,0,180.0*
21,1,0.030,0.010,0,0,180.0*
1,1,0.006,-0.015,0.002*
1,1,0.006,0.015,0.002*
1,1,0.006,0.015,-0.002*
1,1,0.006,-0.015,-0.002*
%
%ADD12ROUNDEDRECTD12*%
%ADD13R,0.083X0.083*%
G04:AMPARAMS|DCode=14|XSize=50mil|YSize=20mil|CornerRadius=5mil|HoleSize=0mil|Usage=FLASHONLY|Rotation=270.000|XOffset=0mil|YOffset=0mil|HoleType=Round|Shape=RoundedRectangle|*
%AMROUNDEDRECTD14*
21,1,0.050,0.009,0,0,270.0*
21,1,0.040,0.020,0,0,270.0*
1,1,0.010,-0.005,-0.020*
1,1,0.010,-0.005,0.020*
1,1,0.010,0.005,0.020*
1,1,0.010,0.005,-0.020*
%
%ADD14ROUNDEDRECTD14*%
G04:AMPARAMS|DCode=15|XSize=37mil|YSize=37mil|CornerRadius=9mil|HoleSize=0mil|Usage=FLASHONLY|Rotation=0.000|XOffset=0mil|YOffset=0mil|HoleType=Round|Shape=RoundedRectangle|*
%AMROUNDEDRECTD15*
21,1,0.037,0.019,0,0,0.0*
21,1,0.019,0.037,0,0,0.0*
1,1,0.018,0.010,-0.009*
1,1,0.018,-0.010,-0.009*
1,1,0.018,-0.010,0.009*
1,1,0.018,0.010,0.009*
%
%ADD15ROUNDEDRECTD15*%
%ADD16R,0.083X0.118*%
%ADD17R,0.031X0.063*%
%ADD18R,0.031X0.083*%
%ADD19R,0.012X0.031*%
%ADD20R,0.036X0.012*%
%ADD21R,0.197X0.079*%
%ADD22R,0.071X0.028*%
%ADD23R,0.071X0.031*%
G04:AMPARAMS|DCode=24|XSize=37mil|YSize=37mil|CornerRadius=9mil|HoleSize=0mil|Usage=FLASHONLY|Rotation=270.000|XOffset=0mil|YOffset=0mil|HoleType=Round|Shape=RoundedRectangle|*
%AMROUNDEDRECTD24*
21,1,0.037,0.019,0,0,270.0*
21,1,0.019,0.037,0,0,270.0*
1,1,0.018,-0.009,-0.010*
1,1,0.018,-0.009,0.010*
1,1,0.018,0.009,0.010*
1,1,0.018,0.009,-0.010*
%
%ADD24ROUNDEDRECTD24*%
%ADD25R,0.028X0.012*%
%ADD26R,0.012X0.028*%
%ADD27R,0.157X0.157*%
%ADD28R,0.100X0.050*%
G04:AMPARAMS|DCode=29|XSize=36mil|YSize=37mil|CornerRadius=9mil|HoleSize=0mil|Usage=FLASHONLY|Rotation=180.000|XOffset=0mil|YOffset=0mil|HoleType=Round|Shape=RoundedRectangle|*
%AMROUNDEDRECTD29*
21,1,0.036,0.018,0,0,180.0*
21,1,0.018,0.037,0,0,180.0*
1,1,0.018,-0.009,0.009*
1,1,0.018,0.009,0.009*
1,1,0.018,0.009,-0.009*
1,1,0.018,-0.009,-0.009*
%
%ADD29ROUNDEDRECTD29*%
G04:AMPARAMS|DCode=30|XSize=85mil|YSize=13mil|CornerRadius=4mil|HoleSize=0mil|Usage=FLASHONLY|Rotation=180.000|XOffset=0mil|YOffset=0mil|HoleType=Round|Shape=RoundedRectangle|*
%AMROUNDEDRECTD30*
21,1,0.085,0.006,0,0,180.0*
21,1,0.078,0.013,0,0,180.0*
1,1,0.007,-0.039,0.003*
1,1,0.007,0.039,0.003*
1,1,0.007,0.039,-0.003*
1,1,0.007,-0.039,-0.003*
%
%ADD30ROUNDEDRECTD30*%
G04:AMPARAMS|DCode=31|XSize=85mil|YSize=13mil|CornerRadius=4mil|HoleSize=0mil|Usage=FLASHONLY|Rotation=270.000|XOffset=0mil|YOffset=0mil|HoleType=Round|Shape=RoundedRectangle|*
%AMROUNDEDRECTD31*
21,1,0.085,0.006,0,0,270.0*
21,1,0.078,0.013,0,0,270.0*
1,1,0.007,-0.003,-0.039*
1,1,0.007,-0.003,0.039*
1,1,0.007,0.003,0.039*
1,1,0.007,0.003,-0.039*
%
%ADD31ROUNDEDRECTD31*%
%ADD32R,0.045X0.055*%
G04:AMPARAMS|DCode=33|XSize=34mil|YSize=39mil|CornerRadius=9mil|HoleSize=0mil|Usage=FLASHONLY|Rotation=0.000|XOffset=0mil|YOffset=0mil|HoleType=Round|Shape=RoundedRectangle|*
%AMROUNDEDRECTD33*
21,1,0.034,0.021,0,0,0.0*
21,1,0.017,0.039,0,0,0.0*
1,1,0.017,0.008,-0.011*
1,1,0.017,-0.008,-0.011*
1,1,0.017,-0.008,0.011*
1,1,0.017,0.008,0.011*
%
%ADD33ROUNDEDRECTD33*%
G04:AMPARAMS|DCode=34|XSize=34mil|YSize=39mil|CornerRadius=9mil|HoleSize=0mil|Usage=FLASHONLY|Rotation=270.000|XOffset=0mil|YOffset=0mil|HoleType=Round|Shape=RoundedRectangle|*
%AMROUNDEDRECTD34*
21,1,0.034,0.021,0,0,270.0*
21,1,0.017,0.039,0,0,270.0*
1,1,0.017,-0.011,-0.008*
1,1,0.017,-0.011,0.008*
1,1,0.017,0.011,0.008*
1,1,0.017,0.011,-0.008*
%
%ADD34ROUNDEDRECTD34*%
%ADD35R,0.065X0.053*%
%ADD36R,0.032X0.011*%
%ADD37C,0.006*%
%ADD38C,0.010*%
%ADD39C,0.025*%
%ADD40R,0.070X0.044*%
%ADD41R,0.173X0.119*%
%ADD42R,0.097X0.040*%
%ADD43R,0.105X0.030*%
%ADD44R,0.100X0.029*%
%ADD45R,0.060X0.325*%
%ADD46R,0.013X0.040*%
%ADD47R,0.065X0.260*%
%ADD48R,0.073X0.041*%
%ADD49R,0.036X0.030*%
%ADD50R,0.269X0.064*%
%ADD51R,0.269X0.098*%
%ADD52R,0.269X0.092*%
%ADD53R,0.256X0.072*%
%ADD54R,0.070X0.075*%
%ADD55R,0.155X0.042*%
%ADD56R,0.023X0.124*%
%ADD57C,0.056*%
%ADD58R,0.056X0.056*%
%ADD59C,0.060*%
%ADD60R,0.060X0.060*%
%ADD61R,0.060X0.060*%
%ADD62C,0.050*%
%ADD63R,0.050X0.050*%
%ADD64R,0.050X0.050*%
%ADD65C,0.020*%
%ADD66C,0.025*%
%ADD67C,0.024*%
%ADD68C,0.040*%
%ADD69C,0.030*%
%ADD70C,0.157*%
D10*
X622Y4773D02*
D03*
X672D02*
D03*
X722D02*
D03*
X772D02*
D03*
Y4683D02*
D03*
X722D02*
D03*
X672D02*
D03*
X622D02*
D03*
D11*
X552Y4944D02*
D03*
X533D02*
D03*
X513D02*
D03*
X493D02*
D03*
X473D02*
D03*
X454D02*
D03*
Y5103D02*
D03*
X473D02*
D03*
X493D02*
D03*
X513D02*
D03*
X533D02*
D03*
X552D02*
D03*
D12*
X423Y4974D02*
D03*
Y4994D02*
D03*
Y5013D02*
D03*
Y5033D02*
D03*
Y5053D02*
D03*
Y5072D02*
D03*
X583D02*
D03*
Y5053D02*
D03*
Y5033D02*
D03*
Y5013D02*
D03*
Y4994D02*
D03*
Y4974D02*
D03*
D13*
X504Y5022D02*
D03*
D14*
X1355Y5174D02*
D03*
X1329Y5256D02*
D03*
X1381D02*
D03*
D15*
X1690Y5034D02*
D03*
X1630D02*
D03*
X1367Y4731D02*
D03*
X1427D02*
D03*
X1024Y5380D02*
D03*
X1084D02*
D03*
X957Y5381D02*
D03*
X897D02*
D03*
X1510Y4950D02*
D03*
X1570D02*
D03*
X1750Y5180D02*
D03*
X1690D02*
D03*
X1753Y4888D02*
D03*
X1693D02*
D03*
X1683Y4676D02*
D03*
X1623D02*
D03*
Y4736D02*
D03*
X1683D02*
D03*
X662Y5147D02*
D03*
X722D02*
D03*
X647Y4921D02*
D03*
X707D02*
D03*
D16*
X1456Y5429D02*
D03*
X1937D02*
D03*
D17*
X1549Y5315D02*
D03*
X1598D02*
D03*
X1647D02*
D03*
X1697D02*
D03*
X1746D02*
D03*
X1795D02*
D03*
X1844D02*
D03*
D18*
X2415Y4850D02*
D03*
X2475D02*
D03*
D19*
X487Y4861D02*
D03*
X507D02*
D03*
X526D02*
D03*
Y4760D02*
D03*
X507D02*
D03*
X487D02*
D03*
D20*
X557Y4850D02*
D03*
Y4830D02*
D03*
Y4811D02*
D03*
Y4791D02*
D03*
Y4771D02*
D03*
X456D02*
D03*
Y4791D02*
D03*
Y4811D02*
D03*
Y4830D02*
D03*
Y4850D02*
D03*
D21*
X1885Y5170D02*
D03*
Y5020D02*
D03*
X1887Y4891D02*
D03*
Y4741D02*
D03*
D22*
X2648Y5014D02*
D03*
X3030D02*
D03*
Y4668D02*
D03*
X2648D02*
D03*
D23*
Y4971D02*
D03*
Y4927D02*
D03*
Y4884D02*
D03*
Y4754D02*
D03*
Y4797D02*
D03*
Y4841D02*
D03*
Y4711D02*
D03*
X3030D02*
D03*
Y4841D02*
D03*
Y4797D02*
D03*
Y4754D02*
D03*
Y4884D02*
D03*
Y4927D02*
D03*
Y4971D02*
D03*
D24*
X2550Y4820D02*
D03*
Y4880D02*
D03*
X1450Y5060D02*
D03*
Y5000D02*
D03*
X1579Y5109D02*
D03*
Y5049D02*
D03*
D25*
X611Y5229D02*
D03*
Y5249D02*
D03*
Y5269D02*
D03*
Y5288D02*
D03*
X503D02*
D03*
Y5269D02*
D03*
Y5249D02*
D03*
Y5229D02*
D03*
D26*
X587Y5313D02*
D03*
X567D02*
D03*
X547D02*
D03*
X528D02*
D03*
Y5205D02*
D03*
X547D02*
D03*
X567D02*
D03*
X587D02*
D03*
D27*
X4180Y4780D02*
D03*
X4610D02*
D03*
D28*
X3275Y4705D02*
D03*
X3935D02*
D03*
X3275Y4605D02*
D03*
X3935D02*
D03*
X3275Y4805D02*
D03*
Y4905D02*
D03*
X3935Y4805D02*
D03*
Y4905D02*
D03*
D29*
X1443Y4788D02*
D03*
X1503D02*
D03*
D30*
X797Y5150D02*
D03*
Y5130D02*
D03*
Y5110D02*
D03*
Y5091D02*
D03*
Y5071D02*
D03*
Y5051D02*
D03*
Y5032D02*
D03*
Y5012D02*
D03*
Y4992D02*
D03*
Y4972D02*
D03*
Y4953D02*
D03*
Y4933D02*
D03*
Y4913D02*
D03*
Y4894D02*
D03*
Y4874D02*
D03*
Y4854D02*
D03*
X1271D02*
D03*
Y4874D02*
D03*
Y4894D02*
D03*
Y4913D02*
D03*
Y4933D02*
D03*
Y4953D02*
D03*
Y4972D02*
D03*
Y4992D02*
D03*
Y5012D02*
D03*
Y5032D02*
D03*
Y5051D02*
D03*
Y5071D02*
D03*
Y5091D02*
D03*
Y5110D02*
D03*
Y5130D02*
D03*
Y5150D02*
D03*
D31*
X886Y4765D02*
D03*
X906D02*
D03*
X926D02*
D03*
X945D02*
D03*
X965D02*
D03*
X985D02*
D03*
X1004D02*
D03*
X1024D02*
D03*
X1044D02*
D03*
X1064D02*
D03*
X1083D02*
D03*
X1103D02*
D03*
X1123D02*
D03*
X1142D02*
D03*
X1162D02*
D03*
X1182D02*
D03*
Y5239D02*
D03*
X1162D02*
D03*
X1142D02*
D03*
X1123D02*
D03*
X1103D02*
D03*
X1083D02*
D03*
X1064D02*
D03*
X1044D02*
D03*
X1024D02*
D03*
X1004D02*
D03*
X985D02*
D03*
X965D02*
D03*
X945D02*
D03*
X926D02*
D03*
X906D02*
D03*
X886D02*
D03*
D32*
X705Y5073D02*
D03*
X643D02*
D03*
Y4987D02*
D03*
X705D02*
D03*
D33*
X1806Y4656D02*
D03*
X1744D02*
D03*
X1428Y4666D02*
D03*
X1490D02*
D03*
X1574Y5180D02*
D03*
X1636D02*
D03*
X1689Y4966D02*
D03*
X1627D02*
D03*
X760Y5333D02*
D03*
X822D02*
D03*
D34*
X1518Y5050D02*
D03*
Y5112D02*
D03*
X1578Y4770D02*
D03*
Y4832D02*
D03*
D35*
X1685Y5105D02*
D03*
X1687Y4816D02*
D03*
D36*
X1628Y5078D02*
D03*
Y5096D02*
D03*
Y5114D02*
D03*
Y5132D02*
D03*
X1742D02*
D03*
Y5114D02*
D03*
Y5096D02*
D03*
Y5078D02*
D03*
X1744Y4789D02*
D03*
Y4807D02*
D03*
Y4825D02*
D03*
Y4843D02*
D03*
X1630D02*
D03*
Y4825D02*
D03*
Y4807D02*
D03*
Y4789D02*
D03*
D37*
X1142Y4558D02*
X1164Y4536D01*
X828Y4557D02*
X911D01*
X818Y4547D02*
X828Y4557D01*
X691Y4547D02*
X818D01*
X745Y4559D02*
X813D01*
X640Y4598D02*
X691Y4547D01*
X631Y4598D02*
X640D01*
X708Y4596D02*
X745Y4559D01*
X813D02*
X829Y4575D01*
X2173Y4861D02*
X2210Y4824D01*
Y4548D02*
Y4824D01*
X643Y4928D02*
X657Y4914D01*
X631Y4880D02*
X647Y4896D01*
Y4921D01*
X732Y5173D02*
Y5189D01*
X716Y5157D02*
X732Y5173D01*
X957Y5381D02*
X988Y5412D01*
Y5421D01*
X1104Y5095D02*
X1214Y5205D01*
X1104Y5031D02*
X1133Y5002D01*
X1104Y5031D02*
Y5095D01*
X1814Y5102D02*
X1821D01*
X1836Y5087D01*
X1885D01*
X1890Y5092D01*
X2022Y5077D02*
X2156D01*
X1890Y5092D02*
X2007D01*
X2022Y5077D01*
X2156Y4988D02*
Y4998D01*
X2004Y4936D02*
X2104D01*
X2156Y4988D01*
X1834Y4939D02*
X2000D01*
X1816Y4957D02*
X1834Y4939D01*
X2000D02*
X2004Y4936D01*
X418Y5249D02*
Y5257D01*
X430Y5269D01*
X693Y5284D02*
Y5339D01*
X638Y5229D02*
X693Y5284D01*
Y5339D02*
X701Y5347D01*
X716Y5157D02*
X724Y5149D01*
X665Y5194D02*
X667D01*
X634Y5164D02*
X665Y5194D01*
X1024Y5371D02*
Y5386D01*
X994Y5341D02*
X1024Y5371D01*
X994Y5340D02*
Y5341D01*
X1214Y5293D02*
X1268Y5347D01*
Y5352D01*
Y5321D02*
X1341Y5394D01*
X1353Y5373D02*
X1354D01*
X1381Y5346D01*
X1341Y5394D02*
X1371D01*
X1268Y5312D02*
Y5321D01*
X1371Y5394D02*
X1393Y5372D01*
X1297Y5414D02*
X1368D01*
X1405Y5377D01*
Y5368D02*
X1411Y5361D01*
X1405Y5368D02*
Y5377D01*
X1393Y5310D02*
Y5372D01*
X985Y5239D02*
Y5304D01*
X1004Y5239D02*
Y5302D01*
X955Y5351D02*
X1004Y5302D01*
X840Y5351D02*
X955D01*
X950Y5339D02*
X985Y5304D01*
X897Y5339D02*
X950D01*
X1434Y5269D02*
X1442D01*
X1393Y5310D02*
X1434Y5269D01*
X1436D02*
X1442D01*
X1535Y4874D02*
X1536D01*
X1568Y4842D01*
X553Y4696D02*
Y4704D01*
X540Y4717D02*
X553Y4704D01*
Y4696D02*
X563D01*
X587Y4720D01*
X637D01*
X513Y4717D02*
X540D01*
X487Y4743D02*
X513Y4717D01*
X1325Y4687D02*
X1347D01*
X1286Y4648D02*
X1325Y4687D01*
X1216Y4648D02*
X1286D01*
X1211Y4653D02*
X1216Y4648D01*
X533Y5103D02*
Y5152D01*
X520Y5165D02*
X533Y5152D01*
X520Y5165D02*
Y5173D01*
X508Y5147D02*
X511D01*
X493Y5132D02*
X508Y5147D01*
X942Y4891D02*
X954Y4879D01*
X956Y4832D02*
X991Y4867D01*
X868Y4851D02*
Y4853D01*
X869Y4854D01*
X1102Y4926D02*
X1169D01*
X897Y5131D02*
Y5144D01*
Y5131D02*
X1102Y4926D01*
X1028Y5027D02*
Y5059D01*
X1047Y5078D01*
Y5143D01*
X569Y4659D02*
X588D01*
X552Y4676D02*
X569Y4659D01*
X596Y4651D02*
X796D01*
X588Y4659D02*
X596Y4651D01*
X537Y4676D02*
X552D01*
X796Y4651D02*
X804Y4659D01*
X609Y5021D02*
Y5026D01*
Y5021D02*
X609Y5021D01*
Y5006D02*
Y5021D01*
X609Y5006D02*
X609Y5006D01*
X609Y5001D02*
Y5006D01*
Y5001D02*
X609Y5001D01*
Y4987D02*
Y5001D01*
X609Y4986D02*
X609Y4987D01*
X609Y4981D02*
Y4986D01*
Y4981D02*
X609Y4981D01*
Y4967D02*
Y4981D01*
X609Y4967D02*
X609Y4967D01*
X609Y4852D02*
Y4967D01*
Y5080D02*
Y5108D01*
Y5080D02*
X609Y5080D01*
Y5065D02*
Y5080D01*
X609Y5065D02*
X609Y5065D01*
X609Y5060D02*
Y5065D01*
Y5060D02*
X609Y5060D01*
Y5046D02*
Y5060D01*
X609Y5046D02*
X609Y5046D01*
X609Y5040D02*
Y5046D01*
Y5040D02*
X609Y5040D01*
Y5026D02*
Y5040D01*
X609Y5026D02*
X609Y5026D01*
X609Y5108D02*
X634Y5134D01*
X609Y4852D02*
X717D01*
X1290Y4720D02*
Y4725D01*
X1300Y4735D01*
X1307D01*
X1326Y4754D01*
X1329D01*
X1299Y4752D02*
X1348Y4801D01*
X1299Y4752D02*
Y4754D01*
X1329D02*
X1334Y4759D01*
X1394D01*
X1422Y4731D01*
X1427D01*
X1404Y4676D02*
X1432D01*
X1393Y4687D02*
X1404Y4676D01*
X1347Y4687D02*
X1393D01*
X1575Y4825D02*
X1630D01*
X1568Y4832D02*
Y4842D01*
Y4832D02*
X1575Y4825D01*
X1202Y5305D02*
X1239Y5342D01*
X1162Y5293D02*
X1219Y5350D01*
X1239Y5342D02*
Y5356D01*
X1219Y5350D02*
X1220D01*
X1144Y5301D02*
X1226Y5383D01*
X1123Y5315D02*
X1176Y5368D01*
X1103Y5322D02*
X1220Y5439D01*
X1239Y5356D02*
X1297Y5414D01*
X1226Y5383D02*
X1232D01*
X1259Y5312D02*
X1268D01*
X1239Y5292D02*
X1259Y5312D01*
X1244Y5500D02*
X1297D01*
X1167Y5519D02*
X1622D01*
X1144Y5241D02*
Y5301D01*
X1202Y5260D02*
Y5305D01*
X1275Y5265D02*
Y5287D01*
X1355Y5174D02*
Y5185D01*
X1275Y5265D02*
X1355Y5185D01*
X1379Y4979D02*
Y5069D01*
X1367Y5071D02*
Y5074D01*
X1355Y5076D02*
Y5079D01*
X1343Y5081D02*
Y5084D01*
X1331Y5086D02*
Y5089D01*
X1319Y5091D02*
Y5094D01*
X1455Y5102D02*
X1508Y5049D01*
X1440Y5102D02*
X1455D01*
X1379Y5069D02*
X1434Y5124D01*
X1422Y5129D02*
Y5132D01*
X1367Y5074D02*
X1422Y5129D01*
X1410Y5134D02*
Y5137D01*
X1355Y5079D02*
X1410Y5134D01*
X1398Y5139D02*
Y5142D01*
X1343Y5084D02*
X1398Y5139D01*
X1386Y5144D02*
Y5147D01*
X1331Y5089D02*
X1386Y5144D01*
X1374Y5149D02*
Y5249D01*
X1319Y5094D02*
X1374Y5149D01*
Y5249D02*
X1381Y5256D01*
X1410Y5137D02*
X1538Y5265D01*
X1355Y5076D02*
X1355Y5076D01*
X1398Y5142D02*
X1511Y5255D01*
X1386Y5147D02*
X1462Y5223D01*
X1330Y5085D02*
X1331Y5086D01*
X1434Y5127D02*
X1548Y5241D01*
X1434Y5124D02*
Y5127D01*
X1422Y5132D02*
X1543Y5253D01*
X1319Y5091D02*
X1319Y5091D01*
X1462Y5223D02*
Y5295D01*
X1511Y5255D02*
Y5309D01*
X1343Y5081D02*
X1343Y5081D01*
X1544Y5265D02*
X1549Y5270D01*
X1538Y5265D02*
X1544D01*
X1549Y5253D02*
X1554Y5258D01*
X1543Y5253D02*
X1549D01*
X1367Y5071D02*
X1367Y5071D01*
X1548Y5241D02*
X1674D01*
X886Y5155D02*
X897Y5144D01*
X878Y5155D02*
X886D01*
X814Y5219D02*
X878Y5155D01*
X1083Y4679D02*
X1142Y4620D01*
Y4558D02*
Y4620D01*
X987Y4667D02*
X1003Y4683D01*
X987Y4556D02*
Y4667D01*
Y4556D02*
X1019Y4524D01*
X869Y4679D02*
X870D01*
X858Y4668D02*
X869Y4679D01*
X858Y4667D02*
Y4668D01*
X829Y4638D02*
X858Y4667D01*
X829Y4638D02*
X829Y4637D01*
Y4575D02*
Y4637D01*
X1221Y5477D02*
X1244Y5500D01*
X1066Y5501D02*
X1085Y5520D01*
X1066Y5428D02*
Y5501D01*
X1053Y5415D02*
X1066Y5428D01*
X1221Y5447D02*
Y5477D01*
X1220Y5446D02*
X1221Y5447D01*
X1220Y5439D02*
Y5446D01*
X1148Y5479D02*
Y5500D01*
X1147Y5477D02*
X1148Y5479D01*
X1147Y5447D02*
Y5477D01*
Y5447D02*
X1148Y5445D01*
Y5392D02*
Y5445D01*
Y5500D02*
X1167Y5519D01*
X954Y4879D02*
X1182D01*
X991Y4867D02*
X1033D01*
X1596Y4991D02*
X1604Y4999D01*
X1570Y4965D02*
X1596Y4991D01*
X1584Y5003D02*
X1596Y4991D01*
X1500Y5003D02*
X1584D01*
X1455Y4854D02*
X1503Y4902D01*
X1033Y4867D02*
X1043Y4857D01*
X988Y4834D02*
X994D01*
X996Y4832D01*
X1224Y4723D02*
X1311Y4810D01*
X1218Y4723D02*
X1224D01*
X1311Y4803D02*
Y4810D01*
X397Y5298D02*
X432Y5333D01*
X397Y4886D02*
Y5298D01*
X512Y5333D02*
X565Y5386D01*
X432Y5333D02*
X512D01*
X503Y5211D02*
Y5229D01*
X493Y5201D02*
X503Y5211D01*
X428Y5201D02*
X493D01*
X420Y5209D02*
X428Y5201D01*
X397Y4886D02*
X403Y4880D01*
X467Y4909D02*
X473Y4916D01*
X467Y4909D02*
X467D01*
X461Y4903D02*
X467Y4909D01*
X448Y4903D02*
X461D01*
X472Y4897D02*
X478Y4903D01*
X472Y4897D02*
X472D01*
X466Y4891D02*
X472Y4897D01*
X463Y4891D02*
X466D01*
X477Y4885D02*
X477Y4885D01*
X477Y4885D02*
X477D01*
X472Y4880D02*
X477Y4885D01*
X472Y4880D02*
Y4880D01*
X471Y4879D02*
X472Y4880D01*
X477Y4885D02*
X507D01*
X471Y4879D02*
X471D01*
X464Y4872D02*
X471Y4879D01*
X478Y4903D02*
X513D01*
X456Y4884D02*
X463Y4891D01*
X422Y4872D02*
X464D01*
X440Y4884D02*
X456D01*
X433Y4891D02*
X440Y4884D01*
X414Y4891D02*
X433D01*
X513Y4903D02*
X533Y4923D01*
X1682Y4955D02*
X1738D01*
X1604Y4999D02*
X1638D01*
X1682Y4955D01*
X1530Y5364D02*
X1610D01*
X1616Y5370D01*
X1632Y5390D02*
X1650Y5372D01*
X1540Y5390D02*
X1632D01*
X1511Y5361D02*
X1540Y5390D01*
X1684Y5214D02*
X1741D01*
X1677Y5221D02*
X1684Y5214D01*
X1616Y5221D02*
X1677D01*
X1689Y5226D02*
X2050D01*
X1674Y5241D02*
X1689Y5226D01*
X1741Y5214D02*
X1750Y5205D01*
X1096Y5386D02*
X1124Y5414D01*
X1084Y5386D02*
X1096D01*
X1124Y5414D02*
X1127D01*
X1053Y5290D02*
X1060Y5283D01*
Y5243D02*
Y5283D01*
Y5243D02*
X1064Y5239D01*
X1053Y5290D02*
Y5415D01*
X1083Y5328D02*
X1148Y5392D01*
X1320Y4972D02*
X1343Y4996D01*
X1271Y4972D02*
X1320D01*
X1343Y4996D02*
Y5061D01*
X1317Y4953D02*
X1355Y4991D01*
X1314Y4933D02*
X1367Y4986D01*
X1346Y4946D02*
X1379Y4979D01*
X1346Y4913D02*
Y4946D01*
X1271Y4933D02*
X1314D01*
X1367Y4986D02*
Y5071D01*
X1271Y4953D02*
X1317D01*
X1355Y4991D02*
Y5066D01*
X1331Y5001D02*
Y5056D01*
X1322Y4992D02*
X1331Y5001D01*
X1271Y4992D02*
X1322D01*
X1401Y5036D02*
X1425Y5060D01*
X1450D01*
X1508Y5049D02*
X1510D01*
X1268Y5312D02*
X1289D01*
X1239Y5182D02*
X1271Y5150D01*
X1239Y5182D02*
Y5292D01*
X1289Y5312D02*
X1329Y5272D01*
Y5256D02*
Y5272D01*
X1214Y5205D02*
Y5293D01*
X1647Y5315D02*
X1650Y5318D01*
Y5372D01*
X1411Y5361D02*
X1511D01*
X1103Y5239D02*
Y5322D01*
X1462Y5295D02*
X1530Y5364D01*
X1381Y5256D02*
Y5346D01*
X1391Y5496D02*
X1431Y5456D01*
Y5437D02*
Y5456D01*
X1182Y5239D02*
X1202Y5260D01*
X634Y5134D02*
Y5164D01*
X717Y4852D02*
X745Y4880D01*
Y4882D01*
X753Y4890D01*
X793D01*
X797Y4894D01*
X739Y4905D02*
Y4958D01*
X708Y4873D02*
X739Y4905D01*
X622Y5190D02*
X670Y5238D01*
X718D01*
X720Y5240D02*
X835D01*
X869Y5274D01*
X718Y5238D02*
X720Y5240D01*
X720Y5219D02*
X814D01*
X1164Y4536D02*
X1491D01*
X1530Y4575D01*
X1775Y4524D02*
X1790Y4539D01*
X1019Y4524D02*
X1775D01*
X739Y4958D02*
X752Y4970D01*
X795D01*
X643Y4928D02*
Y4966D01*
X657Y4980D02*
Y5002D01*
X643Y4966D02*
X657Y4980D01*
X720Y4976D02*
Y4997D01*
X709Y4965D02*
X720Y4976D01*
Y4915D02*
Y4936D01*
X709Y4947D02*
X720Y4936D01*
X1182Y4879D02*
X1184Y4881D01*
X1179Y5052D02*
X1191D01*
X1203Y5028D02*
X1265D01*
X1270Y5033D01*
X1201Y4930D02*
X1203Y4928D01*
Y4930D01*
X897Y4865D02*
X899Y4863D01*
X897Y4865D02*
Y4916D01*
X1018Y5172D02*
X1047Y5143D01*
X1195Y5048D02*
X1233D01*
X1191Y5052D02*
X1195Y5048D01*
X1233D02*
X1238Y5053D01*
X1244Y5047D01*
X1549Y5270D02*
Y5315D01*
X1554Y5258D02*
X1568D01*
X2050Y4895D02*
X2084Y4861D01*
X2173D01*
X851Y5386D02*
X856Y5381D01*
X897D01*
X1053Y5164D02*
Y5174D01*
X1044Y5183D02*
X1053Y5174D01*
X1044Y5183D02*
Y5239D01*
X716Y5333D02*
X721Y5328D01*
X716Y5333D02*
X760D01*
X948Y5314D02*
X957D01*
X965Y5306D01*
X1244Y5047D02*
X1315D01*
X630Y4599D02*
X631Y4598D01*
X797Y4874D02*
X801Y4878D01*
X862D01*
X872Y4888D01*
X911Y4878D02*
Y5084D01*
Y4878D02*
X936Y4853D01*
X630Y4832D02*
X956D01*
X894Y4913D02*
X897Y4916D01*
X797Y4913D02*
X894D01*
X892Y5103D02*
X911Y5084D01*
X873Y5087D02*
X899Y5061D01*
Y4938D02*
Y5061D01*
X897Y4936D02*
X899Y4938D01*
X897Y4916D02*
Y4936D01*
X880Y4946D02*
X880D01*
X867Y4933D02*
X880Y4946D01*
X797Y4933D02*
X867D01*
X855Y5122D02*
X857D01*
X873Y5106D01*
Y5087D02*
Y5106D01*
X1390Y4960D02*
X1400Y4950D01*
X1510D01*
X1191Y4985D02*
X1204D01*
X1174Y5002D02*
X1191Y4985D01*
X1133Y5002D02*
X1174D01*
X1271Y5091D02*
X1319D01*
X1367Y5071D02*
Y5071D01*
X1343Y5061D02*
Y5081D01*
Y5061D02*
X1343Y5061D01*
X1355Y5066D02*
Y5076D01*
Y5066D02*
X1355Y5066D01*
X1367Y5071D02*
X1367Y5071D01*
X1330Y5058D02*
Y5085D01*
Y5058D02*
X1331Y5056D01*
X1162Y5239D02*
Y5293D01*
X1315Y5047D02*
X1319Y5051D01*
X1164Y5090D02*
Y5102D01*
X1214Y5093D02*
X1227Y5106D01*
X1196Y5093D02*
X1214D01*
X1227Y5106D02*
X1268D01*
X1272Y5110D01*
X1192Y5130D02*
X1271D01*
X1164Y5102D02*
X1192Y5130D01*
X864Y5150D02*
X878Y5136D01*
X797Y5150D02*
X864D01*
X1348Y4801D02*
X1352D01*
X1271Y4854D02*
X1455D01*
X1256Y4667D02*
Y4724D01*
X870Y4679D02*
X886Y4695D01*
Y4765D01*
X877Y4667D02*
X906Y4696D01*
X877Y4660D02*
Y4667D01*
X708Y4596D02*
Y4599D01*
X1060Y4675D02*
X1064D01*
X1065Y4674D01*
X914Y4669D02*
Y4675D01*
X926Y4686D01*
Y4765D01*
X846Y4702D02*
Y4761D01*
X658Y4809D02*
X798D01*
X846Y4761D01*
X499Y4714D02*
X537Y4676D01*
X414Y4714D02*
X499D01*
X487Y4743D02*
Y4760D01*
X403Y4725D02*
Y4803D01*
Y4725D02*
X414Y4714D01*
X804Y4659D02*
Y4660D01*
X846Y4702D01*
X622Y4773D02*
X658Y4809D01*
X515Y5178D02*
X520Y5173D01*
X439Y5178D02*
X515D01*
X520Y5173D02*
Y5177D01*
X600Y5126D02*
X601Y5127D01*
Y5190D01*
X567Y5173D02*
Y5205D01*
Y5173D02*
X572Y5168D01*
X573Y5167D01*
X547Y5345D02*
X628D01*
X528Y5326D02*
X547Y5345D01*
X528Y5313D02*
Y5326D01*
X403Y4880D02*
X414Y4891D01*
X403Y4803D02*
Y4880D01*
X454Y5137D02*
X474Y5157D01*
X454Y5103D02*
Y5137D01*
X421Y5128D02*
X423Y5125D01*
X421Y5128D02*
X421D01*
X869Y5311D02*
X897Y5339D01*
X869Y5274D02*
Y5311D01*
X822Y5333D02*
X840Y5351D01*
X2109Y5281D02*
X2156Y5234D01*
X1972Y5281D02*
X2109D01*
X1697Y5280D02*
Y5315D01*
X1678Y5261D02*
X1697Y5280D01*
X1613Y5261D02*
X1678D01*
X1613Y5260D02*
Y5261D01*
X1598Y5288D02*
Y5315D01*
X1568Y5258D02*
X1598Y5288D01*
X533Y4923D02*
Y4944D01*
X552D02*
X578Y4918D01*
X590D01*
X423Y5072D02*
Y5125D01*
X601Y5190D02*
X622D01*
X587Y5205D02*
X601Y5190D01*
X611Y5229D02*
X638D01*
X528Y5205D02*
Y5222D01*
X528Y5205D02*
X528Y5205D01*
Y5222D02*
X555Y5249D01*
X566D01*
X1169Y4926D02*
X1201Y4894D01*
X1271D01*
X1212Y4915D02*
X1269D01*
X1197Y4930D02*
X1212Y4915D01*
X1197Y4930D02*
X1201D01*
X985Y4765D02*
X987Y4767D01*
Y4823D01*
X474Y5157D02*
X476D01*
X615Y4676D02*
X622Y4683D01*
X613Y4678D02*
X615Y4676D01*
X587Y4678D02*
X613D01*
X1269Y4915D02*
X1271Y4913D01*
X1162Y4765D02*
X1164Y4763D01*
Y4670D02*
Y4763D01*
Y4670D02*
X1170Y4664D01*
X1064Y4672D02*
X1065Y4674D01*
X1017Y4660D02*
Y4670D01*
X1024Y4677D01*
Y4765D01*
X1271Y5110D02*
X1272Y5110D01*
X1487Y5000D02*
X1490Y5003D01*
X1450Y5000D02*
X1487D01*
X1490Y5003D02*
X1500D01*
X1043Y4857D02*
X1208D01*
X1227Y4876D01*
X1269D02*
X1271Y4874D01*
X1227Y4876D02*
X1269D01*
X1725Y4575D02*
Y4625D01*
X1513Y5114D02*
X1570D01*
X1628D01*
X1570D02*
X1628D01*
X1513D02*
X1570D01*
X1725Y4575D02*
Y4625D01*
X719Y4914D02*
X720Y4915D01*
X535Y4735D02*
X565D01*
X526Y4744D02*
X535Y4735D01*
X526Y4744D02*
Y4760D01*
X507Y4861D02*
X526D01*
X412Y5072D02*
X423D01*
X507Y4861D02*
Y4885D01*
X456Y4850D02*
Y4872D01*
X1623Y4676D02*
X1630Y4669D01*
Y4575D02*
Y4669D01*
X451Y4771D02*
X456D01*
X513Y4791D02*
X557D01*
X487Y4817D02*
Y4828D01*
X488Y4830D01*
X557Y4850D02*
X568Y4861D01*
X504Y5022D02*
X552Y4974D01*
X456D02*
X504Y5022D01*
X423Y4974D02*
X456D01*
X473Y5053D02*
Y5103D01*
X417Y5288D02*
X503D01*
X536Y5260D02*
Y5280D01*
X525Y5249D02*
X536Y5260D01*
X1630Y4807D02*
X1678D01*
X1424Y5462D02*
X1456Y5429D01*
X415Y4791D02*
X456D01*
X1570Y5110D02*
Y5114D01*
Y5176D02*
X1574Y5180D01*
X1744Y4644D02*
Y4660D01*
X1725Y4625D02*
X1744Y4644D01*
X1887Y4891D02*
X1891Y4895D01*
X1605Y5145D02*
Y5210D01*
X1750Y5180D02*
Y5205D01*
X1938Y5315D02*
X1972Y5281D01*
X1844Y5315D02*
X1938D01*
X1605Y5145D02*
X1618Y5132D01*
X1605Y5210D02*
X1616Y5221D01*
X1618Y5132D02*
X1628D01*
X1622Y4843D02*
X1630D01*
X1510Y5111D02*
X1513Y5114D01*
X1570D02*
Y5176D01*
X430Y5269D02*
X503D01*
X637Y4720D02*
X672Y4755D01*
Y4773D01*
X403Y4803D02*
X415Y4791D01*
X487Y4817D02*
X513Y4791D01*
X488Y4830D02*
X557D01*
X487Y4828D02*
Y4861D01*
X552Y4974D02*
X583D01*
X568Y4861D02*
Y4880D01*
X473Y5053D02*
X504Y5022D01*
X503Y5249D02*
X525D01*
X527Y5288D02*
X536Y5280D01*
X503Y5288D02*
X527D01*
X1628Y5096D02*
X1676D01*
X1433Y5452D02*
X1456Y5429D01*
X1795Y5315D02*
Y5346D01*
X1878Y5429D01*
X1937D02*
X1956D01*
X1878D02*
X1937D01*
X456Y4850D02*
X458Y4852D01*
X507Y4760D02*
X526D01*
X526Y5184D02*
Y5203D01*
X528Y5205D01*
X622Y4676D02*
Y4683D01*
X566Y5249D02*
X611D01*
X566D02*
Y5275D01*
X579Y5288D01*
X611D01*
X647Y5073D02*
Y5097D01*
X662Y5112D01*
Y5147D01*
X710Y5062D02*
Y5073D01*
Y4987D02*
X742Y5018D01*
X709Y4947D02*
Y4965D01*
X742Y5078D02*
Y5117D01*
X667D02*
X742D01*
X662Y5112D02*
X667Y5117D01*
X513Y5031D02*
Y5103D01*
X647Y4999D02*
X710Y5062D01*
X493Y5103D02*
Y5132D01*
X520Y5178D02*
X526Y5184D01*
X722Y5147D02*
X724Y5149D01*
X635Y4974D02*
X647Y4987D01*
X473Y4916D02*
Y4944D01*
X557Y4811D02*
X609D01*
X630Y4832D01*
X906Y5179D02*
Y5239D01*
Y5179D02*
X912Y5173D01*
X955D01*
X965Y5183D01*
Y5239D01*
Y5306D01*
X1271Y5051D02*
X1271Y5051D01*
X1083Y4679D02*
Y4765D01*
X1064Y4672D02*
Y4765D01*
X906Y4696D02*
Y4765D01*
X797Y4854D02*
X869D01*
X797Y5012D02*
X856D01*
X875Y5031D01*
Y5032D01*
X797Y4992D02*
X868D01*
X878Y4982D01*
X1330Y4731D02*
X1367D01*
X1325Y4726D02*
X1330Y4731D01*
X1806Y4623D02*
Y4660D01*
X1790Y4607D02*
X1806Y4623D01*
X1790Y4539D02*
Y4607D01*
X1003Y4683D02*
Y4763D01*
X1004Y4765D01*
X2103Y4659D02*
X2154D01*
X2071Y4627D02*
X2103Y4659D01*
X2009Y4627D02*
X2071D01*
X1968Y4668D02*
X2009Y4627D01*
X1856Y4668D02*
X1968D01*
X1834Y4690D02*
X1856Y4668D01*
X1766Y4690D02*
X1834D01*
X1142Y4765D02*
X1143Y4764D01*
X1116Y4699D02*
X1123Y4706D01*
Y4765D01*
X749Y5071D02*
X797D01*
X742Y5078D02*
X749Y5071D01*
X422Y4742D02*
X451Y4771D01*
X422Y4733D02*
Y4742D01*
X1956Y5429D02*
X2008Y5481D01*
X895Y5317D02*
X915D01*
X886Y5239D02*
Y5308D01*
X895Y5317D01*
X1588Y4877D02*
X1622Y4843D01*
X1588Y4921D02*
X1614Y4947D01*
Y4950D01*
X1747Y4701D02*
X1755D01*
X1766Y4690D01*
X1141Y4762D02*
X1143Y4764D01*
X1141Y4678D02*
Y4762D01*
X1182Y4759D02*
Y4765D01*
Y4759D02*
X1218Y4723D01*
X742Y5018D02*
Y5049D01*
X744Y5051D01*
X797D01*
X1622Y5519D02*
X1626Y5523D01*
X1142Y5239D02*
X1144Y5241D01*
X1083Y5239D02*
Y5328D01*
X1123Y5239D02*
Y5315D01*
X1418Y4787D02*
X1430Y4775D01*
X1387Y4787D02*
X1418D01*
X797Y5032D02*
X799Y5034D01*
X841D01*
X850Y5042D01*
Y5048D01*
X867Y5065D01*
Y5066D01*
X1588Y4877D02*
Y4902D01*
X1503D02*
X1588D01*
Y4921D01*
X1270Y5033D02*
X1271Y5032D01*
X1570Y4950D02*
Y4965D01*
X701Y5386D02*
X769D01*
X822Y5333D01*
X565Y5386D02*
X701D01*
Y5347D02*
Y5386D01*
X987Y4823D02*
X996Y4832D01*
X369Y4498D02*
Y5568D01*
X2240Y4838D02*
Y5113D01*
Y4838D02*
X2270D01*
Y5113D01*
X2240D02*
X2270D01*
X2240Y4548D02*
Y4788D01*
Y4548D02*
X2270D01*
Y4788D01*
X2240D02*
X2270D01*
X369Y5568D02*
X2243D01*
Y5165D02*
Y5568D01*
D38*
X2326Y4797D02*
X2355Y4768D01*
X2453D01*
X2475Y4790D01*
Y4850D01*
X2735Y4800D02*
X2750Y4785D01*
X2651Y4800D02*
X2735D01*
X2847Y4707D02*
X2937Y4797D01*
X2847Y4705D02*
Y4707D01*
X3066Y4971D02*
X3089Y4948D01*
X3030Y4971D02*
X3066D01*
X1722Y5256D02*
X1724D01*
X1746Y5278D01*
X2997Y4575D02*
X3030Y4607D01*
Y4668D01*
Y4711D02*
X3092D01*
X3098Y4717D01*
X795Y4970D02*
X797Y4972D01*
X1746Y5278D02*
Y5315D01*
X815Y4712D02*
Y4721D01*
X786Y4683D02*
X815Y4712D01*
X1867Y5152D02*
X1885Y5170D01*
X1867Y5106D02*
Y5152D01*
X1887Y4827D02*
X1897Y4817D01*
X1887Y4827D02*
Y4891D01*
X772Y4683D02*
X786D01*
X3090Y4784D02*
Y4785D01*
Y4754D02*
Y4784D01*
X4395Y5080D02*
X4465D01*
X4610Y4780D02*
Y4935D01*
X2415Y4850D02*
Y4900D01*
X2463Y4948D02*
X2513D01*
X2655Y5090D01*
X2980Y4900D02*
Y5055D01*
Y4900D02*
X2996Y4884D01*
X2945Y5090D02*
X2980Y5055D01*
X2996Y4884D02*
X3030D01*
X2550Y4880D02*
Y4940D01*
X4180Y4820D02*
X4255Y4895D01*
X2789Y4841D02*
X2820Y4810D01*
X2560Y4770D02*
X2585Y4795D01*
Y4940D02*
X2616Y4971D01*
X2648D01*
X1891Y4895D02*
X2050D01*
X2937Y4797D02*
X3030D01*
X2585Y4795D02*
Y4940D01*
X2648Y4841D02*
X2789D01*
X2648Y4797D02*
X2651Y4800D01*
X3030Y4754D02*
X3090D01*
X4180Y4780D02*
Y4820D01*
X2550Y4940D02*
X2560Y4950D01*
X2415Y4900D02*
X2463Y4948D01*
X2655Y5090D02*
X2770D01*
X2945D01*
X2505Y4820D02*
X2550D01*
X2475Y4850D02*
X2505Y4820D01*
X4465Y5080D02*
X4610Y4935D01*
X369Y4498D02*
X3998D01*
X3135Y4785D02*
X3185D01*
Y4545D02*
Y4785D01*
X3135Y4545D02*
X3185D01*
X3135D02*
Y4785D01*
Y5090D02*
X3185D01*
Y4850D02*
Y5090D01*
X3135Y4850D02*
X3185D01*
X3135D02*
Y5090D01*
X4785Y4498D02*
Y4780D01*
X3998Y4498D02*
X4785D01*
X4015Y4840D02*
Y5080D01*
Y4840D02*
X4065D01*
Y5080D01*
X4015D02*
X4065D01*
X4015Y4535D02*
Y4775D01*
Y4535D02*
X4065D01*
Y4775D01*
X4015D02*
X4065D01*
X2243Y5165D02*
X4785D01*
Y4780D02*
Y5165D01*
D39*
X3742Y4805D02*
X3935D01*
X3673Y4874D02*
X3742Y4805D01*
X3715Y4705D02*
X3935D01*
X3580Y4840D02*
X3715Y4705D01*
X3580Y4840D02*
Y5030D01*
X2648Y4927D02*
X2722D01*
X2750Y4940D02*
Y4975D01*
X3680D02*
Y5030D01*
Y4975D02*
X3750Y4905D01*
X3935D01*
X2722Y4927D02*
X2735Y4940D01*
X2722Y4927D02*
X2803D01*
X2820Y4910D01*
X2735Y4940D02*
X2750D01*
X2711Y5014D02*
X2750Y4975D01*
X2648Y5014D02*
X2711D01*
D40*
X645Y4682D02*
D03*
D41*
X1559Y4734D02*
D03*
D42*
X1666Y5180D02*
D03*
D43*
X1707Y5105D02*
D03*
D44*
X1713Y4817D02*
D03*
D45*
X1685Y5037D02*
D03*
D46*
X1661Y4896D02*
D03*
D47*
X1686Y4786D02*
D03*
D48*
X746Y4681D02*
D03*
D49*
X558Y4839D02*
D03*
D50*
X1862Y4762D02*
D03*
D51*
X1860Y5029D02*
D03*
D52*
X1862Y4884D02*
D03*
D53*
X1853Y5164D02*
D03*
D54*
X3030Y4948D02*
D03*
D55*
X1567Y5059D02*
D03*
D56*
X771Y4733D02*
D03*
D57*
X633Y5462D02*
D03*
X711D02*
D03*
X790D02*
D03*
X869D02*
D03*
X948D02*
D03*
X1026D02*
D03*
X1105D02*
D03*
X1184D02*
D03*
X1263D02*
D03*
X1341D02*
D03*
Y4596D02*
D03*
X1263D02*
D03*
X1184D02*
D03*
X1105D02*
D03*
X1026D02*
D03*
X948D02*
D03*
X869D02*
D03*
X790D02*
D03*
X711D02*
D03*
D58*
X633D02*
D03*
D59*
X2050Y4775D02*
D03*
Y4675D02*
D03*
X1740Y4575D02*
D03*
X1840D02*
D03*
X2050Y4895D02*
D03*
X3680Y5040D02*
D03*
X3580D02*
D03*
X1630Y4575D02*
D03*
X1530D02*
D03*
X4395Y5080D02*
D03*
X4295D02*
D03*
X2050Y5226D02*
D03*
Y5147D02*
D03*
D60*
Y4575D02*
D03*
Y4995D02*
D03*
D61*
X1940Y4575D02*
D03*
X3780Y5040D02*
D03*
X1430Y4575D02*
D03*
X4195Y5080D02*
D03*
D62*
X2154Y4659D02*
D03*
Y4580D02*
D03*
Y4816D02*
D03*
X2156Y5077D02*
D03*
Y4998D02*
D03*
Y5156D02*
D03*
Y5234D02*
D03*
X2683Y4575D02*
D03*
X2761D02*
D03*
X2919D02*
D03*
X2840D02*
D03*
X504Y5022D02*
D03*
D63*
X2154Y4738D02*
D03*
X2156Y4920D02*
D03*
D64*
X2997Y4575D02*
D03*
D65*
X911Y4557D02*
D03*
X2210Y4548D02*
D03*
X2326Y4797D02*
D03*
X732Y5189D02*
D03*
X988Y5421D02*
D03*
X1123Y5086D02*
D03*
X1814Y5102D02*
D03*
X418Y5249D02*
D03*
X714Y5280D02*
D03*
X667Y5194D02*
D03*
X1542Y4714D02*
D03*
X994Y5340D02*
D03*
X1268Y5352D02*
D03*
X1353Y5373D02*
D03*
X1295Y5382D02*
D03*
X2847Y4705D02*
D03*
X1442Y5269D02*
D03*
X553Y4696D02*
D03*
X1211Y4653D02*
D03*
X1435Y5236D02*
D03*
X1543Y4783D02*
D03*
X511Y5147D02*
D03*
X1021Y4840D02*
D03*
X868Y4851D02*
D03*
X1028Y5027D02*
D03*
X580Y4640D02*
D03*
X631Y4880D02*
D03*
X2939Y4993D02*
D03*
X1290Y4720D02*
D03*
X1299Y4754D02*
D03*
X1388Y4662D02*
D03*
X1220Y5350D02*
D03*
X1176Y5368D02*
D03*
X1232Y5383D02*
D03*
X1297Y5500D02*
D03*
X1275Y5287D02*
D03*
X1440Y5102D02*
D03*
X1347Y4687D02*
D03*
X1015Y4899D02*
D03*
X3089Y4948D02*
D03*
X988Y4834D02*
D03*
X1311Y4803D02*
D03*
X448Y4903D02*
D03*
X417Y5288D02*
D03*
X1401Y5000D02*
D03*
X670Y5338D02*
D03*
X1616Y5370D02*
D03*
X1722Y5256D02*
D03*
X3098Y4717D02*
D03*
X1439Y5331D02*
D03*
X1127Y5414D02*
D03*
X1401Y5036D02*
D03*
X1391Y5496D02*
D03*
X708Y4873D02*
D03*
X720Y5219D02*
D03*
X1134Y5038D02*
D03*
X1179Y5052D02*
D03*
X1203Y5028D02*
D03*
X1203Y4930D02*
D03*
X899Y4863D02*
D03*
X942Y4891D02*
D03*
X1018Y5172D02*
D03*
X815Y4721D02*
D03*
X851Y5386D02*
D03*
X1085Y5520D02*
D03*
X1053Y5164D02*
D03*
X1086Y5148D02*
D03*
X721Y5328D02*
D03*
X948Y5314D02*
D03*
X872Y4888D02*
D03*
X936Y4853D02*
D03*
X880Y4946D02*
D03*
X855Y5122D02*
D03*
X892Y5103D02*
D03*
X1867Y5106D02*
D03*
X1897Y4817D02*
D03*
X1204Y4985D02*
D03*
X1390Y4960D02*
D03*
X1738Y4955D02*
D03*
X1816Y4957D02*
D03*
X1164Y5090D02*
D03*
X1196Y5093D02*
D03*
X878Y5136D02*
D03*
X1352Y4801D02*
D03*
X1388Y4892D02*
D03*
X1346Y4913D02*
D03*
X1256Y4724D02*
D03*
X877Y4660D02*
D03*
X1060Y4675D02*
D03*
X914Y4669D02*
D03*
X821Y4759D02*
D03*
X439Y5178D02*
D03*
X600Y5126D02*
D03*
X572Y5168D02*
D03*
X628Y5345D02*
D03*
X420Y5209D02*
D03*
X421Y5128D02*
D03*
X1613Y5260D02*
D03*
X422Y4872D02*
D03*
X590Y4918D02*
D03*
X1166Y4983D02*
D03*
X1160Y4947D02*
D03*
X476Y5157D02*
D03*
X587Y4678D02*
D03*
X1184Y4881D02*
D03*
X1170Y4664D02*
D03*
X1017Y4660D02*
D03*
X1500Y5003D02*
D03*
X1256Y4667D02*
D03*
X565Y4735D02*
D03*
X4705Y4585D02*
D03*
X568Y4880D02*
D03*
X2770Y5090D02*
D03*
X2560Y4950D02*
D03*
X4255Y4895D02*
D03*
X3090Y4785D02*
D03*
X2750D02*
D03*
X2820Y4810D02*
D03*
X2560Y4770D02*
D03*
X1972Y5281D02*
D03*
X875Y5032D02*
D03*
X878Y4982D02*
D03*
X1325Y4726D02*
D03*
X1116Y4699D02*
D03*
X1687Y5104D02*
D03*
X422Y4733D02*
D03*
X915Y5317D02*
D03*
X1747Y4701D02*
D03*
X1141Y4678D02*
D03*
X1218Y4723D02*
D03*
X1626Y5523D02*
D03*
X1387Y4787D02*
D03*
X867Y5066D02*
D03*
X1528Y5158D02*
D03*
X1511Y5309D02*
D03*
X836Y5285D02*
D03*
D66*
X1535Y4874D02*
D03*
D67*
X1772Y5525D02*
D03*
X1685Y4810D02*
D03*
X2008Y5481D02*
D03*
D68*
X3673Y4874D02*
D03*
D69*
X2820Y4910D02*
D03*
D70*
X474Y4606D02*
D03*
Y5449D02*
D03*
X2121D02*
D03*
X3315Y5045D02*
D03*
X4679Y5054D02*
D03*
X2370Y5030D02*
D03*
M02*
