M48
;Layer_Color=9474304
;FILE_FORMAT=2:3
INCH,LZ
;TYPE=PLATED
T1F00S00C0.012
T2F00S00C0.014
T3F00S00C0.020
T4F00S00C0.028
T5F00S00C0.030
T6F00S00C0.037
T7F00S00C0.079
%
T01
X0058Y0464
X00587Y04678
X00877Y0466
X00914Y04669
X01017Y0466
X0106Y04675
X01141Y04678
X0117Y04664
X01211Y04653
X01256Y04667
X01347Y04687
X01388Y04662
X00911Y04557
X0221Y04548
X04705Y04585
X04255Y04895
X03089Y04948
X0309Y04785
X03098Y04717
X02847Y04705
X0282Y0481
X0275Y04785
X0256Y0477
Y0495
X0277Y0509
X02939Y04993
X02326Y04797
X01897Y04817
X01816Y04957
X01738Y04955
X01687Y05104
X01814Y05102
X01867Y05106
X01972Y05281
X02008Y05481
X01772Y05525
X01626Y05523
X01616Y0537
X01613Y0526
X01722Y05256
X01747Y04701
X01542Y04714
X01543Y04783
X01535Y04874
X015Y05003
X01401Y05
Y05036
X0139Y0496
X01388Y04892
X01346Y04913
X01352Y04801
X01311Y04803
X01299Y04754
X0129Y0472
X01256Y04724
X01218Y04723
X01325Y04726
X01387Y04787
X01184Y04881
X01203Y0493
X01204Y04985
X01166Y04983
X0116Y04947
X01134Y05038
X01123Y05086
X01164Y0509
X01196Y05093
X01179Y05052
X01203Y05028
X01028Y05027
X01015Y04899
X01021Y0484
X00988Y04834
X00936Y04853
X00942Y04891
X00899Y04863
X00868Y04851
X00872Y04888
X0088Y04946
X00878Y04982
X00875Y05032
X00867Y05066
X00892Y05103
X00878Y05136
X00855Y05122
X00836Y05285
X00915Y05317
X00948Y05314
X00994Y0534
X00988Y05421
X01127Y05414
X01176Y05368
X0122Y0535
X01232Y05383
X01295Y05382
X01268Y05352
X01275Y05287
X01353Y05373
X01439Y05331
X01442Y05269
X01435Y05236
X0144Y05102
X01528Y05158
X01511Y05309
X01391Y05496
X01297Y055
X01085Y0552
X00851Y05386
X00721Y05328
X00714Y0528
X0072Y05219
X00732Y05189
X00667Y05194
X00572Y05168
X006Y05126
X00511Y05147
X00476Y05157
X00439Y05178
X0042Y05209
X00418Y05249
X00417Y05288
X00421Y05128
X00448Y04903
X00422Y04872
Y04733
X00565Y04735
X00553Y04696
X00568Y0488
X0059Y04918
X00631Y0488
X00708Y04873
X00821Y04759
X00815Y04721
X01116Y04699
X01086Y05148
X01053Y05164
X01018Y05172
X0067Y05338
X00628Y05345
T02
X01685Y0481
T03
X03673Y04874
X0282Y0491
T04
X00504Y05022
T05
X0143Y04575
X0153
X0163
X0174
X0184
X0194
X0205
Y04675
X02154Y04659
Y0458
X02683Y04575
X02761
X0284
X02919
X02997
X0358Y0504
X0368
X0378
X04195Y0508
X04295
X04395
X02156Y05077
Y04998
Y0492
X02154Y04816
Y04738
X0205Y04775
Y04895
Y04995
Y05147
Y05226
X02156Y05234
Y05156
T06
X00633Y04596
X00711
X0079
X00869
X00948
X01026
X01105
X01184
X01263
X01341
Y05462
X01263
X01184
X01105
X01026
X00948
X00869
X0079
X00711
X00633
T07
X00474Y04606
X03315Y05045
X04679Y05054
X0237Y0503
X02121Y05449
X00474
M30
