G04 Layer_Color=8388736*
%FSLAX23Y23*%
%MOIN*%
G70*
G01*
G75*
%ADD37C,0.006*%
%ADD38C,0.010*%
%ADD86R,0.032X0.051*%
G04:AMPARAMS|DCode=87|XSize=44mil|YSize=19mil|CornerRadius=7mil|HoleSize=0mil|Usage=FLASHONLY|Rotation=270.000|XOffset=0mil|YOffset=0mil|HoleType=Round|Shape=RoundedRectangle|*
%AMROUNDEDRECTD87*
21,1,0.044,0.005,0,0,270.0*
21,1,0.030,0.019,0,0,270.0*
1,1,0.015,-0.002,-0.015*
1,1,0.015,-0.002,0.015*
1,1,0.015,0.002,0.015*
1,1,0.015,0.002,-0.015*
%
%ADD87ROUNDEDRECTD87*%
G04:AMPARAMS|DCode=88|XSize=45mil|YSize=20mil|CornerRadius=8mil|HoleSize=0mil|Usage=FLASHONLY|Rotation=270.000|XOffset=0mil|YOffset=0mil|HoleType=Round|Shape=RoundedRectangle|*
%AMROUNDEDRECTD88*
21,1,0.045,0.005,0,0,270.0*
21,1,0.030,0.020,0,0,270.0*
1,1,0.016,-0.002,-0.015*
1,1,0.016,-0.002,0.015*
1,1,0.016,0.002,0.015*
1,1,0.016,0.002,-0.015*
%
%ADD88ROUNDEDRECTD88*%
G04:AMPARAMS|DCode=89|XSize=44mil|YSize=19mil|CornerRadius=7mil|HoleSize=0mil|Usage=FLASHONLY|Rotation=180.000|XOffset=0mil|YOffset=0mil|HoleType=Round|Shape=RoundedRectangle|*
%AMROUNDEDRECTD89*
21,1,0.044,0.005,0,0,180.0*
21,1,0.030,0.019,0,0,180.0*
1,1,0.015,-0.015,0.002*
1,1,0.015,0.015,0.002*
1,1,0.015,0.015,-0.002*
1,1,0.015,-0.015,-0.002*
%
%ADD89ROUNDEDRECTD89*%
G04:AMPARAMS|DCode=90|XSize=45mil|YSize=20mil|CornerRadius=8mil|HoleSize=0mil|Usage=FLASHONLY|Rotation=180.000|XOffset=0mil|YOffset=0mil|HoleType=Round|Shape=RoundedRectangle|*
%AMROUNDEDRECTD90*
21,1,0.045,0.005,0,0,180.0*
21,1,0.030,0.020,0,0,180.0*
1,1,0.016,-0.015,0.002*
1,1,0.016,0.015,0.002*
1,1,0.016,0.015,-0.002*
1,1,0.016,-0.015,-0.002*
%
%ADD90ROUNDEDRECTD90*%
%ADD91R,0.091X0.091*%
G04:AMPARAMS|DCode=92|XSize=58mil|YSize=28mil|CornerRadius=9mil|HoleSize=0mil|Usage=FLASHONLY|Rotation=270.000|XOffset=0mil|YOffset=0mil|HoleType=Round|Shape=RoundedRectangle|*
%AMROUNDEDRECTD92*
21,1,0.058,0.009,0,0,270.0*
21,1,0.040,0.028,0,0,270.0*
1,1,0.018,-0.005,-0.020*
1,1,0.018,-0.005,0.020*
1,1,0.018,0.005,0.020*
1,1,0.018,0.005,-0.020*
%
%ADD92ROUNDEDRECTD92*%
G04:AMPARAMS|DCode=93|XSize=45mil|YSize=45mil|CornerRadius=13mil|HoleSize=0mil|Usage=FLASHONLY|Rotation=0.000|XOffset=0mil|YOffset=0mil|HoleType=Round|Shape=RoundedRectangle|*
%AMROUNDEDRECTD93*
21,1,0.045,0.019,0,0,0.0*
21,1,0.019,0.045,0,0,0.0*
1,1,0.026,0.010,-0.009*
1,1,0.026,-0.010,-0.009*
1,1,0.026,-0.010,0.009*
1,1,0.026,0.010,0.009*
%
%ADD93ROUNDEDRECTD93*%
%ADD94R,0.091X0.126*%
%ADD95R,0.039X0.071*%
%ADD96R,0.039X0.091*%
%ADD97R,0.205X0.087*%
%ADD98R,0.078X0.035*%
%ADD99R,0.078X0.038*%
G04:AMPARAMS|DCode=100|XSize=45mil|YSize=45mil|CornerRadius=13mil|HoleSize=0mil|Usage=FLASHONLY|Rotation=270.000|XOffset=0mil|YOffset=0mil|HoleType=Round|Shape=RoundedRectangle|*
%AMROUNDEDRECTD100*
21,1,0.045,0.019,0,0,270.0*
21,1,0.019,0.045,0,0,270.0*
1,1,0.026,-0.009,-0.010*
1,1,0.026,-0.009,0.010*
1,1,0.026,0.009,0.010*
1,1,0.026,0.009,-0.010*
%
%ADD100ROUNDEDRECTD100*%
%ADD101R,0.173X0.173*%
G04:AMPARAMS|DCode=102|XSize=44mil|YSize=45mil|CornerRadius=13mil|HoleSize=0mil|Usage=FLASHONLY|Rotation=180.000|XOffset=0mil|YOffset=0mil|HoleType=Round|Shape=RoundedRectangle|*
%AMROUNDEDRECTD102*
21,1,0.044,0.018,0,0,180.0*
21,1,0.018,0.045,0,0,180.0*
1,1,0.026,-0.009,0.009*
1,1,0.026,0.009,0.009*
1,1,0.026,0.009,-0.009*
1,1,0.026,-0.009,-0.009*
%
%ADD102ROUNDEDRECTD102*%
G04:AMPARAMS|DCode=103|XSize=93mil|YSize=21mil|CornerRadius=8mil|HoleSize=0mil|Usage=FLASHONLY|Rotation=180.000|XOffset=0mil|YOffset=0mil|HoleType=Round|Shape=RoundedRectangle|*
%AMROUNDEDRECTD103*
21,1,0.093,0.006,0,0,180.0*
21,1,0.078,0.021,0,0,180.0*
1,1,0.015,-0.039,0.003*
1,1,0.015,0.039,0.003*
1,1,0.015,0.039,-0.003*
1,1,0.015,-0.039,-0.003*
%
%ADD103ROUNDEDRECTD103*%
G04:AMPARAMS|DCode=104|XSize=93mil|YSize=21mil|CornerRadius=8mil|HoleSize=0mil|Usage=FLASHONLY|Rotation=270.000|XOffset=0mil|YOffset=0mil|HoleType=Round|Shape=RoundedRectangle|*
%AMROUNDEDRECTD104*
21,1,0.093,0.006,0,0,270.0*
21,1,0.078,0.021,0,0,270.0*
1,1,0.015,-0.003,-0.039*
1,1,0.015,-0.003,0.039*
1,1,0.015,0.003,0.039*
1,1,0.015,0.003,-0.039*
%
%ADD104ROUNDEDRECTD104*%
%ADD105R,0.053X0.063*%
G04:AMPARAMS|DCode=106|XSize=42mil|YSize=47mil|CornerRadius=13mil|HoleSize=0mil|Usage=FLASHONLY|Rotation=0.000|XOffset=0mil|YOffset=0mil|HoleType=Round|Shape=RoundedRectangle|*
%AMROUNDEDRECTD106*
21,1,0.042,0.021,0,0,0.0*
21,1,0.017,0.047,0,0,0.0*
1,1,0.025,0.008,-0.011*
1,1,0.025,-0.008,-0.011*
1,1,0.025,-0.008,0.011*
1,1,0.025,0.008,0.011*
%
%ADD106ROUNDEDRECTD106*%
G04:AMPARAMS|DCode=107|XSize=42mil|YSize=47mil|CornerRadius=13mil|HoleSize=0mil|Usage=FLASHONLY|Rotation=270.000|XOffset=0mil|YOffset=0mil|HoleType=Round|Shape=RoundedRectangle|*
%AMROUNDEDRECTD107*
21,1,0.042,0.021,0,0,270.0*
21,1,0.017,0.047,0,0,270.0*
1,1,0.025,-0.011,-0.008*
1,1,0.025,-0.011,0.008*
1,1,0.025,0.011,0.008*
1,1,0.025,0.011,-0.008*
%
%ADD107ROUNDEDRECTD107*%
%ADD108C,0.064*%
%ADD109R,0.064X0.064*%
%ADD110C,0.068*%
%ADD111R,0.068X0.068*%
%ADD112R,0.068X0.068*%
%ADD113C,0.058*%
%ADD114R,0.058X0.058*%
%ADD115R,0.058X0.058*%
%ADD116C,0.028*%
%ADD117C,0.033*%
%ADD118C,0.032*%
%ADD119C,0.048*%
%ADD120C,0.038*%
%ADD121C,0.165*%
G36*
X577Y5295D02*
X537D01*
Y5331D01*
X577D01*
Y5295D01*
D02*
G37*
G36*
X596Y5298D02*
X629D01*
Y5279D01*
X594D01*
Y5295D01*
X577D01*
Y5331D01*
X596D01*
Y5298D01*
D02*
G37*
G36*
X537Y5295D02*
X521D01*
Y5279D01*
X485D01*
Y5298D01*
X518D01*
Y5331D01*
X537D01*
Y5295D01*
D02*
G37*
G36*
X629Y5259D02*
Y5239D01*
X594D01*
Y5259D01*
Y5279D01*
X629D01*
Y5259D01*
D02*
G37*
G36*
X521D02*
Y5239D01*
X485D01*
Y5259D01*
Y5279D01*
X521D01*
Y5259D01*
D02*
G37*
G36*
X629Y5219D02*
X596D01*
Y5187D01*
X577D01*
Y5222D01*
X594D01*
Y5239D01*
X629D01*
Y5219D01*
D02*
G37*
G36*
X577Y5187D02*
X537D01*
Y5222D01*
X577D01*
Y5187D01*
D02*
G37*
G36*
X521Y5222D02*
X537D01*
Y5187D01*
X518D01*
Y5219D01*
X485D01*
Y5239D01*
X521D01*
Y5222D01*
D02*
G37*
G36*
X1720Y5075D02*
X1650D01*
Y5135D01*
X1720D01*
Y5075D01*
D02*
G37*
G36*
X1761Y5123D02*
Y5105D01*
Y5087D01*
Y5069D01*
X1724D01*
Y5087D01*
Y5105D01*
Y5123D01*
Y5141D01*
X1761D01*
Y5123D01*
D02*
G37*
G36*
X1646D02*
Y5105D01*
Y5087D01*
Y5069D01*
X1610D01*
Y5087D01*
Y5105D01*
Y5123D01*
Y5141D01*
X1646D01*
Y5123D01*
D02*
G37*
G36*
X3989Y4876D02*
X3881D01*
Y4934D01*
X3989D01*
Y4876D01*
D02*
G37*
G36*
X3329D02*
X3221D01*
Y4934D01*
X3329D01*
Y4876D01*
D02*
G37*
G36*
X534Y4841D02*
X479D01*
Y4880D01*
X534D01*
Y4841D01*
D02*
G37*
G36*
X577Y4840D02*
X538D01*
Y4860D01*
X577D01*
Y4840D01*
D02*
G37*
G36*
X475D02*
X435D01*
Y4860D01*
X475D01*
Y4840D01*
D02*
G37*
G36*
X1722Y4786D02*
X1652D01*
Y4846D01*
X1722D01*
Y4786D01*
D02*
G37*
G36*
X577Y4820D02*
Y4801D01*
Y4781D01*
X538D01*
Y4801D01*
Y4820D01*
Y4840D01*
X577D01*
Y4820D01*
D02*
G37*
G36*
X475D02*
Y4801D01*
Y4781D01*
X435D01*
Y4801D01*
Y4820D01*
Y4840D01*
X475D01*
Y4820D01*
D02*
G37*
G36*
X1763Y4834D02*
Y4816D01*
Y4798D01*
Y4780D01*
X1726D01*
Y4798D01*
Y4816D01*
Y4834D01*
Y4852D01*
X1763D01*
Y4834D01*
D02*
G37*
G36*
X1648D02*
Y4816D01*
Y4798D01*
Y4780D01*
X1612D01*
Y4798D01*
Y4816D01*
Y4834D01*
Y4852D01*
X1648D01*
Y4834D01*
D02*
G37*
G36*
X3989Y4776D02*
X3881D01*
Y4834D01*
X3989D01*
Y4776D01*
D02*
G37*
G36*
X3329D02*
X3221D01*
Y4834D01*
X3329D01*
Y4776D01*
D02*
G37*
G36*
X577Y4761D02*
X538D01*
Y4781D01*
X577D01*
Y4761D01*
D02*
G37*
G36*
X475D02*
X435D01*
Y4781D01*
X475D01*
Y4761D01*
D02*
G37*
G36*
X534Y4741D02*
X479D01*
Y4780D01*
X534D01*
Y4741D01*
D02*
G37*
G36*
X3989Y4676D02*
X3881D01*
Y4734D01*
X3989D01*
Y4676D01*
D02*
G37*
G36*
X3329D02*
X3221D01*
Y4734D01*
X3329D01*
Y4676D01*
D02*
G37*
G36*
X3989Y4576D02*
X3881D01*
Y4634D01*
X3989D01*
Y4576D01*
D02*
G37*
G36*
X3329D02*
X3221D01*
Y4634D01*
X3329D01*
Y4576D01*
D02*
G37*
D37*
X369Y4498D02*
Y5568D01*
X2240Y4838D02*
Y5113D01*
Y4838D02*
X2270D01*
Y5113D01*
X2240D02*
X2270D01*
X2240Y4548D02*
Y4788D01*
Y4548D02*
X2270D01*
Y4788D01*
X2240D02*
X2270D01*
X369Y5568D02*
X2243D01*
Y5165D02*
Y5568D01*
D38*
X369Y4498D02*
X3998D01*
X3135Y4785D02*
X3185D01*
Y4545D02*
Y4785D01*
X3135Y4545D02*
X3185D01*
X3135D02*
Y4785D01*
Y5090D02*
X3185D01*
Y4850D02*
Y5090D01*
X3135Y4850D02*
X3185D01*
X3135D02*
Y5090D01*
X4785Y4498D02*
Y4780D01*
X3998Y4498D02*
X4785D01*
X4015Y4840D02*
Y5080D01*
Y4840D02*
X4065D01*
Y5080D01*
X4015D02*
X4065D01*
X4015Y4535D02*
Y4775D01*
Y4535D02*
X4065D01*
Y4775D01*
X4015D02*
X4065D01*
X2243Y5165D02*
X4785D01*
Y4780D02*
Y5165D01*
D86*
X622Y4773D02*
D03*
X672D02*
D03*
X722D02*
D03*
X772D02*
D03*
Y4683D02*
D03*
X722D02*
D03*
X672D02*
D03*
X622D02*
D03*
D87*
X552Y4944D02*
D03*
X454D02*
D03*
Y5103D02*
D03*
X552D02*
D03*
D88*
X533Y4944D02*
D03*
X513D02*
D03*
X493D02*
D03*
X473D02*
D03*
Y5103D02*
D03*
X493D02*
D03*
X513D02*
D03*
X533D02*
D03*
D89*
X423Y4974D02*
D03*
Y5072D02*
D03*
X583D02*
D03*
Y4974D02*
D03*
D90*
X423Y4994D02*
D03*
Y5013D02*
D03*
Y5033D02*
D03*
Y5053D02*
D03*
X583D02*
D03*
Y5033D02*
D03*
Y5013D02*
D03*
Y4994D02*
D03*
D91*
X504Y5022D02*
D03*
D92*
X1355Y5174D02*
D03*
X1329Y5256D02*
D03*
X1381D02*
D03*
D93*
X1690Y5034D02*
D03*
X1630D02*
D03*
X1367Y4731D02*
D03*
X1427D02*
D03*
X1024Y5380D02*
D03*
X1084D02*
D03*
X957Y5381D02*
D03*
X897D02*
D03*
X1510Y4950D02*
D03*
X1570D02*
D03*
X1750Y5180D02*
D03*
X1690D02*
D03*
X1753Y4888D02*
D03*
X1693D02*
D03*
X1683Y4676D02*
D03*
X1623D02*
D03*
Y4736D02*
D03*
X1683D02*
D03*
X662Y5147D02*
D03*
X722D02*
D03*
X647Y4921D02*
D03*
X707D02*
D03*
D94*
X1456Y5429D02*
D03*
X1937D02*
D03*
D95*
X1549Y5315D02*
D03*
X1598D02*
D03*
X1647D02*
D03*
X1697D02*
D03*
X1746D02*
D03*
X1795D02*
D03*
X1844D02*
D03*
D96*
X2415Y4850D02*
D03*
X2475D02*
D03*
D97*
X1885Y5170D02*
D03*
Y5020D02*
D03*
X1887Y4891D02*
D03*
Y4741D02*
D03*
D98*
X2648Y5014D02*
D03*
X3030D02*
D03*
Y4668D02*
D03*
X2648D02*
D03*
D99*
Y4971D02*
D03*
Y4927D02*
D03*
Y4884D02*
D03*
Y4754D02*
D03*
Y4797D02*
D03*
Y4841D02*
D03*
Y4711D02*
D03*
X3030D02*
D03*
Y4841D02*
D03*
Y4797D02*
D03*
Y4754D02*
D03*
Y4884D02*
D03*
Y4927D02*
D03*
Y4971D02*
D03*
D100*
X2550Y4820D02*
D03*
Y4880D02*
D03*
X1450Y5060D02*
D03*
Y5000D02*
D03*
X1579Y5109D02*
D03*
Y5049D02*
D03*
D101*
X4180Y4780D02*
D03*
X4610D02*
D03*
D102*
X1443Y4788D02*
D03*
X1503D02*
D03*
D103*
X797Y5150D02*
D03*
Y5130D02*
D03*
Y5110D02*
D03*
Y5091D02*
D03*
Y5071D02*
D03*
Y5051D02*
D03*
Y5032D02*
D03*
Y5012D02*
D03*
Y4992D02*
D03*
Y4972D02*
D03*
Y4953D02*
D03*
Y4933D02*
D03*
Y4913D02*
D03*
Y4894D02*
D03*
Y4874D02*
D03*
Y4854D02*
D03*
X1271D02*
D03*
Y4874D02*
D03*
Y4894D02*
D03*
Y4913D02*
D03*
Y4933D02*
D03*
Y4953D02*
D03*
Y4972D02*
D03*
Y4992D02*
D03*
Y5012D02*
D03*
Y5032D02*
D03*
Y5051D02*
D03*
Y5071D02*
D03*
Y5091D02*
D03*
Y5110D02*
D03*
Y5130D02*
D03*
Y5150D02*
D03*
D104*
X886Y4765D02*
D03*
X906D02*
D03*
X926D02*
D03*
X945D02*
D03*
X965D02*
D03*
X985D02*
D03*
X1004D02*
D03*
X1024D02*
D03*
X1044D02*
D03*
X1064D02*
D03*
X1083D02*
D03*
X1103D02*
D03*
X1123D02*
D03*
X1142D02*
D03*
X1162D02*
D03*
X1182D02*
D03*
Y5239D02*
D03*
X1162D02*
D03*
X1142D02*
D03*
X1123D02*
D03*
X1103D02*
D03*
X1083D02*
D03*
X1064D02*
D03*
X1044D02*
D03*
X1024D02*
D03*
X1004D02*
D03*
X985D02*
D03*
X965D02*
D03*
X945D02*
D03*
X926D02*
D03*
X906D02*
D03*
X886D02*
D03*
D105*
X705Y5073D02*
D03*
X643D02*
D03*
Y4987D02*
D03*
X705D02*
D03*
D106*
X1806Y4656D02*
D03*
X1744D02*
D03*
X1428Y4666D02*
D03*
X1490D02*
D03*
X1574Y5180D02*
D03*
X1636D02*
D03*
X1689Y4966D02*
D03*
X1627D02*
D03*
X760Y5333D02*
D03*
X822D02*
D03*
D107*
X1518Y5050D02*
D03*
Y5112D02*
D03*
X1578Y4770D02*
D03*
Y4832D02*
D03*
D108*
X633Y5462D02*
D03*
X711D02*
D03*
X790D02*
D03*
X869D02*
D03*
X948D02*
D03*
X1026D02*
D03*
X1105D02*
D03*
X1184D02*
D03*
X1263D02*
D03*
X1341D02*
D03*
Y4596D02*
D03*
X1263D02*
D03*
X1184D02*
D03*
X1105D02*
D03*
X1026D02*
D03*
X948D02*
D03*
X869D02*
D03*
X790D02*
D03*
X711D02*
D03*
D109*
X633D02*
D03*
D110*
X2050Y4775D02*
D03*
Y4675D02*
D03*
X1740Y4575D02*
D03*
X1840D02*
D03*
X2050Y4895D02*
D03*
X3680Y5040D02*
D03*
X3580D02*
D03*
X1630Y4575D02*
D03*
X1530D02*
D03*
X4395Y5080D02*
D03*
X4295D02*
D03*
X2050Y5226D02*
D03*
Y5147D02*
D03*
D111*
Y4575D02*
D03*
Y4995D02*
D03*
D112*
X1940Y4575D02*
D03*
X3780Y5040D02*
D03*
X1430Y4575D02*
D03*
X4195Y5080D02*
D03*
D113*
X2154Y4659D02*
D03*
Y4580D02*
D03*
Y4816D02*
D03*
X2156Y5077D02*
D03*
Y4998D02*
D03*
Y5156D02*
D03*
Y5234D02*
D03*
X2683Y4575D02*
D03*
X2761D02*
D03*
X2919D02*
D03*
X2840D02*
D03*
X504Y5022D02*
D03*
D114*
X2154Y4738D02*
D03*
X2156Y4920D02*
D03*
D115*
X2997Y4575D02*
D03*
D116*
X911Y4557D02*
D03*
X2210Y4548D02*
D03*
X2326Y4797D02*
D03*
X732Y5189D02*
D03*
X988Y5421D02*
D03*
X1123Y5086D02*
D03*
X1814Y5102D02*
D03*
X418Y5249D02*
D03*
X714Y5280D02*
D03*
X667Y5194D02*
D03*
X1542Y4714D02*
D03*
X994Y5340D02*
D03*
X1268Y5352D02*
D03*
X1353Y5373D02*
D03*
X1295Y5382D02*
D03*
X2847Y4705D02*
D03*
X1442Y5269D02*
D03*
X553Y4696D02*
D03*
X1211Y4653D02*
D03*
X1435Y5236D02*
D03*
X1543Y4783D02*
D03*
X511Y5147D02*
D03*
X1021Y4840D02*
D03*
X868Y4851D02*
D03*
X1028Y5027D02*
D03*
X580Y4640D02*
D03*
X631Y4880D02*
D03*
X2939Y4993D02*
D03*
X1290Y4720D02*
D03*
X1299Y4754D02*
D03*
X1388Y4662D02*
D03*
X1220Y5350D02*
D03*
X1176Y5368D02*
D03*
X1232Y5383D02*
D03*
X1297Y5500D02*
D03*
X1275Y5287D02*
D03*
X1440Y5102D02*
D03*
X1347Y4687D02*
D03*
X1015Y4899D02*
D03*
X3089Y4948D02*
D03*
X988Y4834D02*
D03*
X1311Y4803D02*
D03*
X448Y4903D02*
D03*
X417Y5288D02*
D03*
X1401Y5000D02*
D03*
X670Y5338D02*
D03*
X1616Y5370D02*
D03*
X1722Y5256D02*
D03*
X3098Y4717D02*
D03*
X1439Y5331D02*
D03*
X1127Y5414D02*
D03*
X1401Y5036D02*
D03*
X1391Y5496D02*
D03*
X708Y4873D02*
D03*
X720Y5219D02*
D03*
X1134Y5038D02*
D03*
X1179Y5052D02*
D03*
X1203Y5028D02*
D03*
X1203Y4930D02*
D03*
X899Y4863D02*
D03*
X942Y4891D02*
D03*
X1018Y5172D02*
D03*
X815Y4721D02*
D03*
X851Y5386D02*
D03*
X1085Y5520D02*
D03*
X1053Y5164D02*
D03*
X1086Y5148D02*
D03*
X721Y5328D02*
D03*
X948Y5314D02*
D03*
X872Y4888D02*
D03*
X936Y4853D02*
D03*
X880Y4946D02*
D03*
X855Y5122D02*
D03*
X892Y5103D02*
D03*
X1867Y5106D02*
D03*
X1897Y4817D02*
D03*
X1204Y4985D02*
D03*
X1390Y4960D02*
D03*
X1738Y4955D02*
D03*
X1816Y4957D02*
D03*
X1164Y5090D02*
D03*
X1196Y5093D02*
D03*
X878Y5136D02*
D03*
X1352Y4801D02*
D03*
X1388Y4892D02*
D03*
X1346Y4913D02*
D03*
X1256Y4724D02*
D03*
X877Y4660D02*
D03*
X1060Y4675D02*
D03*
X914Y4669D02*
D03*
X821Y4759D02*
D03*
X439Y5178D02*
D03*
X600Y5126D02*
D03*
X572Y5168D02*
D03*
X628Y5345D02*
D03*
X420Y5209D02*
D03*
X421Y5128D02*
D03*
X1613Y5260D02*
D03*
X422Y4872D02*
D03*
X590Y4918D02*
D03*
X1166Y4983D02*
D03*
X1160Y4947D02*
D03*
X476Y5157D02*
D03*
X587Y4678D02*
D03*
X1184Y4881D02*
D03*
X1170Y4664D02*
D03*
X1017Y4660D02*
D03*
X1500Y5003D02*
D03*
X1256Y4667D02*
D03*
X565Y4735D02*
D03*
X4705Y4585D02*
D03*
X568Y4880D02*
D03*
X2770Y5090D02*
D03*
X2560Y4950D02*
D03*
X4255Y4895D02*
D03*
X3090Y4785D02*
D03*
X2750D02*
D03*
X2820Y4810D02*
D03*
X2560Y4770D02*
D03*
X1972Y5281D02*
D03*
X875Y5032D02*
D03*
X878Y4982D02*
D03*
X1325Y4726D02*
D03*
X1116Y4699D02*
D03*
X1687Y5104D02*
D03*
X422Y4733D02*
D03*
X915Y5317D02*
D03*
X1747Y4701D02*
D03*
X1141Y4678D02*
D03*
X1218Y4723D02*
D03*
X1626Y5523D02*
D03*
X1387Y4787D02*
D03*
X867Y5066D02*
D03*
X1528Y5158D02*
D03*
X1511Y5309D02*
D03*
X836Y5285D02*
D03*
D117*
X1535Y4874D02*
D03*
D118*
X1772Y5525D02*
D03*
X1685Y4810D02*
D03*
X2008Y5481D02*
D03*
D119*
X3673Y4874D02*
D03*
D120*
X2820Y4910D02*
D03*
D121*
X474Y4606D02*
D03*
Y5449D02*
D03*
X2121D02*
D03*
X3315Y5045D02*
D03*
X4679Y5054D02*
D03*
X2370Y5030D02*
D03*
M02*
