G04 Layer_Color=32896*
%FSLAX23Y23*%
%MOIN*%
G70*
G01*
G75*
%ADD37C,0.006*%
%ADD38C,0.010*%
D37*
X1614Y4770D02*
Y4830D01*
X1860Y4690D02*
X1920D01*
X1430Y4928D02*
X1490D01*
X1430Y4869D02*
X1490D01*
X1535Y4920D02*
X1595D01*
X1418Y4956D02*
Y5016D01*
X1478Y4956D02*
Y5016D01*
X566Y5235D02*
Y5295D01*
X626Y5235D02*
Y5295D01*
X493Y5235D02*
Y5295D01*
X551Y5235D02*
Y5295D01*
X680Y4694D02*
Y4754D01*
X461Y4993D02*
Y5053D01*
X491Y4981D02*
X551D01*
X605Y5010D02*
Y5070D01*
X752Y4694D02*
Y4754D01*
X465Y4879D02*
X525D01*
X463Y4817D02*
X522D01*
X4217Y4587D02*
X4385D01*
Y4653D01*
X4217D02*
X4385D01*
X3440Y5005D02*
X3500D01*
X1520Y5410D02*
X1855D01*
X1945Y5175D02*
Y5405D01*
X1484Y5213D02*
Y5409D01*
X1493Y5028D02*
X1902Y5028D01*
X4395Y4653D02*
X4563D01*
X4395Y4587D02*
Y4653D01*
Y4587D02*
X4563D01*
X2885Y4900D02*
X2945D01*
X2885Y4835D02*
X2945D01*
X2885Y4770D02*
X2945D01*
X2905Y4964D02*
X2960D01*
X2905Y5024D02*
X2960D01*
X2385Y4610D02*
Y4640D01*
Y4610D02*
X2390D01*
X2500Y4730D02*
X2505D01*
Y4700D02*
Y4730D01*
X2500Y4610D02*
X2505D01*
Y4640D01*
X2385Y4700D02*
Y4730D01*
X2390D01*
X862Y4943D02*
Y5003D01*
X1128Y5108D02*
X1188D01*
X1320Y4820D02*
X1380D01*
X1295Y5275D02*
Y5335D01*
X938Y4719D02*
X998D01*
X930Y5168D02*
X990D01*
X1091Y4928D02*
Y4988D01*
X877Y5183D02*
Y5243D01*
X930Y5240D02*
X990D01*
X1032Y4932D02*
Y4992D01*
X1128Y5180D02*
X1188D01*
X812Y5186D02*
Y5246D01*
X1100Y5048D02*
Y5108D01*
X930Y5096D02*
X990D01*
X680Y4925D02*
Y4985D01*
X1429Y5149D02*
Y5209D01*
X1288Y5053D02*
X1348D01*
X1106Y4778D02*
Y4838D01*
X673Y4935D02*
Y4995D01*
X1357Y5285D02*
Y5345D01*
X1018Y4932D02*
Y4992D01*
X892Y4942D02*
Y5002D01*
X2745Y4639D02*
X2805D01*
X1423Y4692D02*
X1483D01*
X1071Y5317D02*
Y5377D01*
X999Y5317D02*
Y5377D01*
X4380Y4884D02*
X4440D01*
X2019Y5107D02*
X2079D01*
X1170Y5268D02*
X1230D01*
X1424Y4625D02*
X1484D01*
X2880Y4639D02*
X2940D01*
X2750Y4705D02*
X2810D01*
X2880Y4704D02*
X2940D01*
X1593Y4909D02*
X1653D01*
X2846Y4975D02*
Y5035D01*
X608Y4801D02*
X668D01*
X2681Y4960D02*
X2741D01*
X369Y4498D02*
Y5568D01*
X2240Y4838D02*
Y5113D01*
Y4838D02*
X2270D01*
Y5113D01*
X2240D02*
X2270D01*
X2240Y4548D02*
Y4788D01*
Y4548D02*
X2270D01*
Y4788D01*
X2240D02*
X2270D01*
X369Y5568D02*
X2243D01*
Y5165D02*
Y5568D01*
D38*
X369Y4498D02*
X3998D01*
X3135Y4785D02*
X3185D01*
Y4545D02*
Y4785D01*
X3135Y4545D02*
X3185D01*
X3135D02*
Y4785D01*
Y5090D02*
X3185D01*
Y4850D02*
Y5090D01*
X3135Y4850D02*
X3185D01*
X3135D02*
Y5090D01*
X4785Y4498D02*
Y4780D01*
X3998Y4498D02*
X4785D01*
X4015Y4840D02*
Y5080D01*
Y4840D02*
X4065D01*
Y5080D01*
X4015D02*
X4065D01*
X4015Y4535D02*
Y4775D01*
Y4535D02*
X4065D01*
Y4775D01*
X4015D02*
X4065D01*
X2243Y5165D02*
X4785D01*
Y4780D02*
Y5165D01*
M02*
