G04 Layer_Physical_Order=4*
G04 Layer_Color=16711680*
%FSLAX23Y23*%
%MOIN*%
G70*
G01*
G75*
G04:AMPARAMS|DCode=14|XSize=50mil|YSize=20mil|CornerRadius=5mil|HoleSize=0mil|Usage=FLASHONLY|Rotation=270.000|XOffset=0mil|YOffset=0mil|HoleType=Round|Shape=RoundedRectangle|*
%AMROUNDEDRECTD14*
21,1,0.050,0.009,0,0,270.0*
21,1,0.040,0.020,0,0,270.0*
1,1,0.010,-0.005,-0.020*
1,1,0.010,-0.005,0.020*
1,1,0.010,0.005,0.020*
1,1,0.010,0.005,-0.020*
%
%ADD14ROUNDEDRECTD14*%
G04:AMPARAMS|DCode=15|XSize=37mil|YSize=37mil|CornerRadius=9mil|HoleSize=0mil|Usage=FLASHONLY|Rotation=0.000|XOffset=0mil|YOffset=0mil|HoleType=Round|Shape=RoundedRectangle|*
%AMROUNDEDRECTD15*
21,1,0.037,0.019,0,0,0.0*
21,1,0.019,0.037,0,0,0.0*
1,1,0.018,0.010,-0.009*
1,1,0.018,-0.010,-0.009*
1,1,0.018,-0.010,0.009*
1,1,0.018,0.010,0.009*
%
%ADD15ROUNDEDRECTD15*%
G04:AMPARAMS|DCode=24|XSize=37mil|YSize=37mil|CornerRadius=9mil|HoleSize=0mil|Usage=FLASHONLY|Rotation=270.000|XOffset=0mil|YOffset=0mil|HoleType=Round|Shape=RoundedRectangle|*
%AMROUNDEDRECTD24*
21,1,0.037,0.019,0,0,270.0*
21,1,0.019,0.037,0,0,270.0*
1,1,0.018,-0.009,-0.010*
1,1,0.018,-0.009,0.010*
1,1,0.018,0.009,0.010*
1,1,0.018,0.009,-0.010*
%
%ADD24ROUNDEDRECTD24*%
G04:AMPARAMS|DCode=33|XSize=34mil|YSize=39mil|CornerRadius=9mil|HoleSize=0mil|Usage=FLASHONLY|Rotation=0.000|XOffset=0mil|YOffset=0mil|HoleType=Round|Shape=RoundedRectangle|*
%AMROUNDEDRECTD33*
21,1,0.034,0.021,0,0,0.0*
21,1,0.017,0.039,0,0,0.0*
1,1,0.017,0.008,-0.011*
1,1,0.017,-0.008,-0.011*
1,1,0.017,-0.008,0.011*
1,1,0.017,0.008,0.011*
%
%ADD33ROUNDEDRECTD33*%
G04:AMPARAMS|DCode=34|XSize=34mil|YSize=39mil|CornerRadius=9mil|HoleSize=0mil|Usage=FLASHONLY|Rotation=270.000|XOffset=0mil|YOffset=0mil|HoleType=Round|Shape=RoundedRectangle|*
%AMROUNDEDRECTD34*
21,1,0.034,0.021,0,0,270.0*
21,1,0.017,0.039,0,0,270.0*
1,1,0.017,-0.011,-0.008*
1,1,0.017,-0.011,0.008*
1,1,0.017,0.011,0.008*
1,1,0.017,0.011,-0.008*
%
%ADD34ROUNDEDRECTD34*%
%ADD37C,0.006*%
%ADD38C,0.010*%
%ADD39C,0.025*%
%ADD57C,0.056*%
%ADD58R,0.056X0.056*%
%ADD59C,0.060*%
%ADD60R,0.060X0.060*%
%ADD61R,0.060X0.060*%
%ADD62C,0.050*%
%ADD63R,0.050X0.050*%
%ADD64R,0.050X0.050*%
%ADD65C,0.020*%
%ADD66C,0.025*%
%ADD67C,0.024*%
%ADD68C,0.040*%
%ADD69C,0.030*%
%ADD70C,0.157*%
G04:AMPARAMS|DCode=71|XSize=50mil|YSize=20mil|CornerRadius=5mil|HoleSize=0mil|Usage=FLASHONLY|Rotation=180.000|XOffset=0mil|YOffset=0mil|HoleType=Round|Shape=RoundedRectangle|*
%AMROUNDEDRECTD71*
21,1,0.050,0.009,0,0,180.0*
21,1,0.040,0.020,0,0,180.0*
1,1,0.010,-0.020,0.005*
1,1,0.010,0.020,0.005*
1,1,0.010,0.020,-0.005*
1,1,0.010,-0.020,-0.005*
%
%ADD71ROUNDEDRECTD71*%
G04:AMPARAMS|DCode=72|XSize=36mil|YSize=37mil|CornerRadius=9mil|HoleSize=0mil|Usage=FLASHONLY|Rotation=270.000|XOffset=0mil|YOffset=0mil|HoleType=Round|Shape=RoundedRectangle|*
%AMROUNDEDRECTD72*
21,1,0.036,0.018,0,0,270.0*
21,1,0.018,0.037,0,0,270.0*
1,1,0.018,-0.009,-0.009*
1,1,0.018,-0.009,0.009*
1,1,0.018,0.009,0.009*
1,1,0.018,0.009,-0.009*
%
%ADD72ROUNDEDRECTD72*%
G04:AMPARAMS|DCode=73|XSize=59mil|YSize=30mil|CornerRadius=7mil|HoleSize=0mil|Usage=FLASHONLY|Rotation=180.000|XOffset=0mil|YOffset=0mil|HoleType=Round|Shape=RoundedRectangle|*
%AMROUNDEDRECTD73*
21,1,0.059,0.015,0,0,180.0*
21,1,0.044,0.030,0,0,180.0*
1,1,0.015,-0.022,0.007*
1,1,0.015,0.022,0.007*
1,1,0.015,0.022,-0.007*
1,1,0.015,-0.022,-0.007*
%
%ADD73ROUNDEDRECTD73*%
%ADD74R,0.057X0.039*%
%ADD75R,0.039X0.061*%
%ADD76R,0.047X0.059*%
%ADD77R,0.059X0.059*%
%ADD78R,0.031X0.055*%
%ADD79R,0.031X0.069*%
%ADD80R,0.025X0.034*%
%ADD81R,0.039X0.039*%
%ADD82R,0.087X0.039*%
G36*
X4770Y5070D02*
X4765Y5070D01*
X4764Y5071D01*
X4760Y5087D01*
X4751Y5102D01*
X4741Y5116D01*
X4727Y5126D01*
X4712Y5135D01*
X4696Y5139D01*
X4679Y5141D01*
X4662Y5139D01*
X4646Y5135D01*
X4631Y5126D01*
X4617Y5116D01*
X4607Y5102D01*
X4598Y5087D01*
X4594Y5071D01*
X4592Y5054D01*
X4594Y5037D01*
X4598Y5021D01*
X4607Y5006D01*
X4617Y4992D01*
X4631Y4982D01*
X4646Y4973D01*
X4662Y4969D01*
X4679Y4967D01*
X4696Y4969D01*
X4712Y4973D01*
X4727Y4982D01*
X4741Y4992D01*
X4751Y5006D01*
X4760Y5021D01*
X4764Y5037D01*
X4765Y5038D01*
X4770Y5038D01*
Y4525D01*
X4088D01*
X4084Y4530D01*
X4085Y4535D01*
Y4770D01*
X4084Y4778D01*
X4079Y4784D01*
X4073Y4789D01*
X4065Y4790D01*
X4015D01*
X4007Y4789D01*
X4001Y4784D01*
X3996Y4778D01*
X3995Y4770D01*
Y4535D01*
X3996Y4530D01*
X3992Y4525D01*
X3201D01*
X3199Y4530D01*
X3199Y4531D01*
X3204Y4537D01*
X3205Y4545D01*
Y4780D01*
X3204Y4788D01*
X3199Y4794D01*
X3193Y4799D01*
X3185Y4800D01*
X3135D01*
X3127Y4799D01*
X3121Y4794D01*
X3116Y4788D01*
X3115Y4780D01*
Y4733D01*
X3110Y4731D01*
X3105Y4734D01*
X3098Y4735D01*
X3097Y4735D01*
X3094Y4740D01*
X3099Y4745D01*
X3102Y4749D01*
X3103Y4754D01*
Y4772D01*
X3107Y4778D01*
X3108Y4785D01*
X3107Y4792D01*
X3103Y4798D01*
X3097Y4802D01*
X3090Y4803D01*
X3083Y4802D01*
X3077Y4798D01*
X3073Y4792D01*
X3072Y4785D01*
X3073Y4778D01*
X3077Y4772D01*
Y4760D01*
X3070Y4753D01*
X2971D01*
X2970Y4757D01*
X2966Y4763D01*
X2961Y4766D01*
X2954Y4768D01*
X2937D01*
X2931Y4766D01*
X2925Y4763D01*
X2922Y4757D01*
X2920Y4751D01*
Y4740D01*
X2916Y4738D01*
X2910Y4744D01*
Y4751D01*
X2908Y4757D01*
X2905Y4763D01*
X2899Y4766D01*
X2893Y4768D01*
X2876D01*
X2869Y4766D01*
X2864Y4763D01*
X2860Y4757D01*
X2859Y4751D01*
Y4729D01*
X2860Y4724D01*
X2857Y4721D01*
X2856Y4721D01*
X2854Y4722D01*
X2847Y4723D01*
X2845Y4723D01*
X2841Y4727D01*
X2841Y4730D01*
Y4752D01*
X2840Y4758D01*
X2836Y4764D01*
X2833Y4766D01*
Y4797D01*
X2837Y4803D01*
X2838Y4810D01*
X2837Y4817D01*
X2833Y4823D01*
X2827Y4827D01*
X2820Y4828D01*
X2813Y4827D01*
X2807Y4823D01*
X2803Y4817D01*
X2802Y4810D01*
X2803Y4803D01*
X2807Y4797D01*
Y4769D01*
X2801Y4767D01*
X2795Y4764D01*
X2792Y4758D01*
X2790Y4752D01*
Y4730D01*
X2792Y4724D01*
X2795Y4718D01*
X2801Y4715D01*
X2807Y4713D01*
X2824D01*
X2826Y4714D01*
X2830Y4709D01*
X2829Y4705D01*
X2828Y4705D01*
X2824Y4702D01*
X2819Y4703D01*
X2802D01*
X2796Y4701D01*
X2790Y4698D01*
X2787Y4692D01*
X2785Y4686D01*
Y4674D01*
X2781Y4672D01*
X2775Y4678D01*
Y4686D01*
X2773Y4692D01*
X2770Y4698D01*
X2764Y4701D01*
X2758Y4703D01*
X2741D01*
X2734Y4701D01*
X2729Y4698D01*
X2725Y4692D01*
X2724Y4686D01*
Y4664D01*
X2725Y4658D01*
X2729Y4652D01*
X2734Y4649D01*
X2741Y4647D01*
X2758D01*
X2764Y4649D01*
X2766Y4650D01*
X2787Y4629D01*
Y4603D01*
X2782Y4601D01*
X2778Y4604D01*
X2770Y4607D01*
X2761Y4608D01*
X2755Y4607D01*
X2703Y4660D01*
Y4793D01*
X2708Y4797D01*
X2710Y4796D01*
X2720D01*
X2725Y4797D01*
X2729Y4800D01*
X2732Y4804D01*
X2733Y4810D01*
Y4849D01*
X2732Y4854D01*
X2729Y4859D01*
X2725Y4862D01*
X2720Y4863D01*
X2710D01*
X2708Y4862D01*
X2703Y4866D01*
Y4881D01*
X2704Y4881D01*
X2706Y4886D01*
X2708Y4891D01*
Y4930D01*
X2706Y4936D01*
X2704Y4940D01*
X2703Y4941D01*
Y4971D01*
X2706Y4973D01*
X2709Y4979D01*
X2711Y4985D01*
Y5007D01*
X2709Y5013D01*
X2706Y5019D01*
X2700Y5022D01*
X2694Y5024D01*
X2677D01*
X2670Y5022D01*
X2665Y5019D01*
X2661Y5013D01*
X2660Y5007D01*
Y4985D01*
X2661Y4979D01*
X2665Y4973D01*
X2670Y4970D01*
X2676Y4969D01*
Y4941D01*
X2675Y4940D01*
X2672Y4936D01*
X2671Y4930D01*
Y4891D01*
X2672Y4886D01*
X2675Y4881D01*
X2676Y4881D01*
Y4655D01*
X2677Y4650D01*
X2680Y4645D01*
X2733Y4592D01*
X2732Y4592D01*
X2729Y4584D01*
X2728Y4575D01*
X2729Y4566D01*
X2732Y4558D01*
X2738Y4551D01*
X2742Y4548D01*
X2740Y4543D01*
X2704D01*
X2702Y4548D01*
X2706Y4551D01*
X2711Y4558D01*
X2715Y4566D01*
X2716Y4575D01*
X2715Y4584D01*
X2711Y4592D01*
X2706Y4599D01*
X2699Y4604D01*
X2691Y4607D01*
X2683Y4608D01*
X2674Y4607D01*
X2671Y4606D01*
X2647Y4629D01*
Y5027D01*
X2657Y5037D01*
X2707D01*
X2726Y5018D01*
X2723Y5013D01*
X2721Y5007D01*
Y4985D01*
X2723Y4979D01*
X2726Y4973D01*
X2732Y4970D01*
X2732Y4970D01*
Y4943D01*
X2731Y4943D01*
X2726Y4940D01*
X2724Y4936D01*
X2722Y4930D01*
Y4891D01*
X2724Y4886D01*
X2726Y4881D01*
X2731Y4878D01*
X2736Y4877D01*
X2745D01*
X2750Y4878D01*
X2755Y4881D01*
X2758Y4886D01*
X2759Y4891D01*
Y4914D01*
X2759Y4916D01*
Y4969D01*
X2762Y4970D01*
X2767Y4973D01*
X2771Y4979D01*
X2772Y4985D01*
Y5007D01*
X2771Y5013D01*
X2767Y5019D01*
X2762Y5022D01*
X2757Y5023D01*
X2755Y5026D01*
X2721Y5059D01*
X2717Y5062D01*
X2712Y5063D01*
X2652D01*
X2647Y5062D01*
X2643Y5059D01*
X2625Y5041D01*
X2622Y5037D01*
X2621Y5032D01*
Y4624D01*
X2622Y4618D01*
X2625Y4614D01*
X2652Y4587D01*
X2650Y4584D01*
X2649Y4575D01*
X2650Y4571D01*
X2645Y4569D01*
X2603Y4610D01*
Y4920D01*
X2602Y4925D01*
X2599Y4929D01*
X2578Y4950D01*
X2577Y4957D01*
X2573Y4963D01*
X2567Y4967D01*
X2560Y4968D01*
X2553Y4967D01*
X2547Y4963D01*
X2543Y4957D01*
X2542Y4950D01*
X2543Y4943D01*
X2547Y4937D01*
X2553Y4933D01*
X2560Y4932D01*
X2577Y4915D01*
Y4786D01*
X2572Y4784D01*
X2567Y4787D01*
X2560Y4788D01*
X2553Y4787D01*
X2547Y4783D01*
X2543Y4777D01*
X2542Y4770D01*
X2543Y4763D01*
X2547Y4757D01*
Y4725D01*
X2519Y4698D01*
X2482D01*
Y4642D01*
X2538D01*
Y4679D01*
X2569Y4711D01*
X2572Y4714D01*
X2575Y4714D01*
X2577Y4713D01*
Y4605D01*
X2578Y4600D01*
X2581Y4596D01*
X2646Y4530D01*
X2644Y4525D01*
X2281D01*
X2280Y4530D01*
X2284Y4534D01*
X2289Y4540D01*
X2290Y4548D01*
Y4783D01*
X2289Y4791D01*
X2284Y4797D01*
X2278Y4802D01*
X2270Y4803D01*
X2261D01*
X2257Y4807D01*
X2257Y4818D01*
X2270D01*
X2278Y4819D01*
X2284Y4824D01*
X2289Y4830D01*
X2290Y4838D01*
Y4985D01*
X2295Y4986D01*
X2298Y4982D01*
X2308Y4968D01*
X2322Y4958D01*
X2337Y4949D01*
X2353Y4945D01*
X2370Y4943D01*
X2387Y4945D01*
X2403Y4949D01*
X2418Y4958D01*
X2432Y4968D01*
X2442Y4982D01*
X2451Y4997D01*
X2455Y5013D01*
X2457Y5030D01*
X2455Y5047D01*
X2451Y5063D01*
X2442Y5078D01*
X2432Y5092D01*
X2418Y5102D01*
X2403Y5111D01*
X2387Y5115D01*
X2370Y5117D01*
X2353Y5115D01*
X2337Y5111D01*
X2322Y5102D01*
X2308Y5092D01*
X2298Y5078D01*
X2295Y5074D01*
X2290Y5075D01*
Y5113D01*
X2289Y5121D01*
X2284Y5127D01*
X2278Y5132D01*
X2270Y5133D01*
X2263D01*
X2260Y5137D01*
X2260Y5150D01*
X2265D01*
X2270Y5145D01*
X3120D01*
X3890Y5150D01*
X4770D01*
Y5070D01*
D02*
G37*
G36*
X3091Y4700D02*
X3098Y4699D01*
X3105Y4700D01*
X3110Y4703D01*
X3115Y4701D01*
Y4545D01*
X3116Y4537D01*
X3121Y4531D01*
X3121Y4530D01*
X3119Y4525D01*
X2806D01*
X2804Y4530D01*
X2809Y4536D01*
X2812Y4540D01*
X2813Y4545D01*
Y4548D01*
X2818Y4550D01*
X2823Y4546D01*
X2831Y4543D01*
X2840Y4542D01*
X2849Y4543D01*
X2857Y4546D01*
X2864Y4551D01*
X2869Y4558D01*
X2872Y4566D01*
X2873Y4575D01*
X2872Y4584D01*
X2869Y4592D01*
X2865Y4596D01*
X2894Y4625D01*
X2895Y4627D01*
X2900Y4625D01*
Y4602D01*
X2895Y4599D01*
X2890Y4592D01*
X2887Y4584D01*
X2885Y4575D01*
X2887Y4566D01*
X2890Y4558D01*
X2895Y4551D01*
X2902Y4546D01*
X2910Y4543D01*
X2919Y4542D01*
X2927Y4543D01*
X2935Y4546D01*
X2942Y4551D01*
X2948Y4558D01*
X2951Y4566D01*
X2952Y4575D01*
X2951Y4584D01*
X2948Y4592D01*
X2942Y4599D01*
X2935Y4604D01*
X2927Y4607D01*
X2926Y4607D01*
Y4646D01*
X2930Y4648D01*
X2931Y4649D01*
X2937Y4647D01*
X2954D01*
X2961Y4649D01*
X2966Y4652D01*
X2970Y4658D01*
X2971Y4664D01*
Y4682D01*
X2993Y4704D01*
X3085D01*
X3091Y4700D01*
D02*
G37*
%LPC*%
G36*
X3580Y5078D02*
X3570Y5077D01*
X3561Y5073D01*
X3553Y5067D01*
X3547Y5059D01*
X3545Y5056D01*
X3522D01*
X3522Y5057D01*
X3516Y5060D01*
X3510Y5062D01*
X3490D01*
X3484Y5060D01*
X3478Y5057D01*
X3474Y5051D01*
X3473Y5044D01*
Y5026D01*
X3474Y5019D01*
X3478Y5013D01*
X3484Y5010D01*
X3490Y5008D01*
X3510D01*
X3516Y5010D01*
X3522Y5013D01*
X3522Y5014D01*
X3552D01*
X3553Y5013D01*
X3561Y5007D01*
X3570Y5003D01*
X3580Y5002D01*
X3590Y5003D01*
X3599Y5007D01*
X3607Y5013D01*
X3613Y5021D01*
X3617Y5030D01*
X3618Y5040D01*
X3617Y5050D01*
X3613Y5059D01*
X3607Y5067D01*
X3599Y5073D01*
X3590Y5077D01*
X3580Y5078D01*
D02*
G37*
G36*
X4395Y5118D02*
X4385Y5117D01*
X4376Y5113D01*
X4368Y5107D01*
X4362Y5099D01*
X4358Y5090D01*
X4357Y5080D01*
X4358Y5070D01*
X4362Y5061D01*
X4368Y5053D01*
X4376Y5047D01*
X4385Y5043D01*
X4395Y5042D01*
X4405Y5043D01*
X4414Y5047D01*
X4422Y5053D01*
X4428Y5061D01*
X4432Y5070D01*
X4433Y5080D01*
X4432Y5090D01*
X4428Y5099D01*
X4422Y5107D01*
X4414Y5113D01*
X4405Y5117D01*
X4395Y5118D01*
D02*
G37*
G36*
X2770Y5108D02*
X2763Y5107D01*
X2757Y5103D01*
X2753Y5097D01*
X2752Y5090D01*
X2753Y5083D01*
X2757Y5077D01*
Y5070D01*
X2758Y5065D01*
X2761Y5061D01*
X2782Y5039D01*
Y5032D01*
X2784Y5026D01*
X2787Y5020D01*
X2793Y5017D01*
X2799Y5015D01*
X2821D01*
X2827Y5017D01*
X2833Y5020D01*
X2836Y5026D01*
X2838Y5032D01*
Y5049D01*
X2836Y5056D01*
X2833Y5061D01*
X2827Y5065D01*
X2821Y5066D01*
X2799D01*
X2794Y5065D01*
X2783Y5075D01*
Y5077D01*
X2787Y5083D01*
X2788Y5090D01*
X2787Y5097D01*
X2783Y5103D01*
X2777Y5107D01*
X2770Y5108D01*
D02*
G37*
G36*
X2995Y5019D02*
X2955D01*
Y5010D01*
X2950Y5008D01*
X2946Y5010D01*
X2939Y5011D01*
X2932Y5010D01*
X2926Y5006D01*
X2922Y5000D01*
X2921Y4993D01*
X2922Y4986D01*
X2926Y4980D01*
X2932Y4976D01*
X2936Y4975D01*
X2937Y4970D01*
X2936Y4968D01*
X2933Y4964D01*
X2932Y4959D01*
Y4956D01*
X2929Y4955D01*
X2923Y4952D01*
X2919Y4946D01*
X2918Y4939D01*
Y4921D01*
X2919Y4914D01*
X2923Y4908D01*
X2929Y4905D01*
X2932Y4904D01*
Y4891D01*
X2929Y4890D01*
X2923Y4887D01*
X2919Y4881D01*
X2918Y4874D01*
Y4856D01*
X2919Y4849D01*
X2923Y4843D01*
X2929Y4840D01*
X2932Y4839D01*
Y4826D01*
X2929Y4825D01*
X2923Y4822D01*
X2919Y4816D01*
X2918Y4809D01*
Y4791D01*
X2919Y4784D01*
X2923Y4778D01*
X2929Y4775D01*
X2935Y4773D01*
X2955D01*
X2961Y4775D01*
X2967Y4778D01*
X2971Y4784D01*
X2972Y4791D01*
Y4809D01*
X2971Y4816D01*
X2967Y4822D01*
X2961Y4825D01*
X2958Y4826D01*
Y4839D01*
X2961Y4840D01*
X2967Y4843D01*
X2971Y4849D01*
X2972Y4856D01*
Y4874D01*
X2971Y4881D01*
X2967Y4887D01*
X2961Y4890D01*
X2958Y4891D01*
Y4904D01*
X2961Y4905D01*
X2967Y4908D01*
X2971Y4914D01*
X2972Y4921D01*
Y4939D01*
X2971Y4946D01*
X2967Y4952D01*
X2965Y4953D01*
X2964Y4959D01*
X2974Y4969D01*
X2995D01*
Y5019D01*
D02*
G37*
G36*
X3680Y5078D02*
X3670Y5077D01*
X3661Y5073D01*
X3653Y5067D01*
X3647Y5059D01*
X3643Y5050D01*
X3642Y5040D01*
X3643Y5030D01*
X3647Y5021D01*
X3653Y5013D01*
X3661Y5007D01*
X3670Y5003D01*
X3680Y5002D01*
X3690Y5003D01*
X3699Y5007D01*
X3707Y5013D01*
X3713Y5021D01*
X3717Y5030D01*
X3718Y5040D01*
X3717Y5050D01*
X3713Y5059D01*
X3707Y5067D01*
X3699Y5073D01*
X3690Y5077D01*
X3680Y5078D01*
D02*
G37*
G36*
X2905Y5019D02*
X2865D01*
Y4991D01*
X2864Y4991D01*
X2862Y4989D01*
X2837D01*
X2836Y4994D01*
X2833Y5000D01*
X2827Y5003D01*
X2821Y5005D01*
X2799D01*
X2793Y5003D01*
X2787Y5000D01*
X2784Y4994D01*
X2782Y4988D01*
Y4971D01*
X2784Y4964D01*
X2787Y4959D01*
X2793Y4955D01*
X2799Y4954D01*
X2821D01*
X2827Y4955D01*
X2833Y4959D01*
X2835Y4962D01*
X2868D01*
X2873Y4963D01*
X2877Y4966D01*
X2880Y4969D01*
X2905D01*
Y5019D01*
D02*
G37*
G36*
X3315Y5132D02*
X3298Y5130D01*
X3282Y5126D01*
X3267Y5117D01*
X3253Y5107D01*
X3243Y5093D01*
X3234Y5078D01*
X3230Y5062D01*
X3228Y5045D01*
X3230Y5028D01*
X3234Y5012D01*
X3243Y4997D01*
X3253Y4983D01*
X3267Y4973D01*
X3282Y4964D01*
X3298Y4960D01*
X3315Y4958D01*
X3332Y4960D01*
X3348Y4964D01*
X3363Y4973D01*
X3377Y4983D01*
X3387Y4997D01*
X3396Y5012D01*
X3400Y5028D01*
X3402Y5045D01*
X3400Y5062D01*
X3396Y5078D01*
X3387Y5093D01*
X3377Y5107D01*
X3363Y5117D01*
X3348Y5126D01*
X3332Y5130D01*
X3315Y5132D01*
D02*
G37*
G36*
X3089Y4966D02*
X3082Y4965D01*
X3076Y4961D01*
X3072Y4955D01*
X3071Y4948D01*
X3072Y4941D01*
X3076Y4935D01*
X3082Y4931D01*
X3089Y4930D01*
X3096Y4931D01*
X3102Y4935D01*
X3106Y4941D01*
X3107Y4948D01*
X3106Y4955D01*
X3102Y4961D01*
X3096Y4965D01*
X3089Y4966D01*
D02*
G37*
G36*
X3185Y5105D02*
X3135D01*
X3127Y5104D01*
X3121Y5099D01*
X3116Y5093D01*
X3115Y5085D01*
Y4850D01*
X3116Y4842D01*
X3121Y4836D01*
X3127Y4831D01*
X3135Y4830D01*
X3185D01*
X3193Y4831D01*
X3199Y4836D01*
X3204Y4842D01*
X3205Y4850D01*
Y5085D01*
X3204Y5093D01*
X3199Y5099D01*
X3193Y5104D01*
X3185Y5105D01*
D02*
G37*
G36*
X4065Y5095D02*
X4015D01*
X4007Y5094D01*
X4001Y5089D01*
X3996Y5083D01*
X3995Y5075D01*
Y4840D01*
X3996Y4832D01*
X4001Y4826D01*
X4007Y4821D01*
X4015Y4820D01*
X4065D01*
X4073Y4821D01*
X4079Y4826D01*
X4084Y4832D01*
X4085Y4840D01*
Y5075D01*
X4084Y5083D01*
X4079Y5089D01*
X4073Y5094D01*
X4065Y5095D01*
D02*
G37*
G36*
X4295Y5118D02*
X4285Y5117D01*
X4276Y5113D01*
X4268Y5107D01*
X4262Y5099D01*
X4258Y5090D01*
X4257Y5080D01*
X4258Y5070D01*
X4262Y5061D01*
X4268Y5053D01*
X4276Y5047D01*
X4282Y5044D01*
Y5009D01*
X4283Y5004D01*
X4286Y5000D01*
X4359Y4927D01*
Y4909D01*
X4360Y4903D01*
X4364Y4897D01*
X4369Y4894D01*
X4376Y4892D01*
X4381D01*
Y4866D01*
X4380Y4865D01*
X4377Y4861D01*
X4376Y4855D01*
Y4816D01*
X4377Y4811D01*
X4380Y4806D01*
X4385Y4803D01*
X4390Y4802D01*
X4399D01*
X4404Y4803D01*
X4409Y4806D01*
X4411Y4811D01*
X4413Y4816D01*
Y4855D01*
X4411Y4861D01*
X4409Y4865D01*
X4408Y4866D01*
Y4902D01*
X4408Y4903D01*
X4410Y4909D01*
Y4931D01*
X4408Y4937D01*
X4405Y4943D01*
X4399Y4946D01*
X4393Y4948D01*
X4376D01*
X4375Y4948D01*
X4308Y5015D01*
Y5044D01*
X4314Y5047D01*
X4322Y5053D01*
X4328Y5061D01*
X4332Y5070D01*
X4333Y5080D01*
X4332Y5090D01*
X4328Y5099D01*
X4322Y5107D01*
X4314Y5113D01*
X4305Y5117D01*
X4295Y5118D01*
D02*
G37*
G36*
X4255Y4913D02*
X4248Y4912D01*
X4242Y4908D01*
X4238Y4902D01*
X4237Y4895D01*
X4238Y4888D01*
X4242Y4882D01*
Y4870D01*
X4243Y4865D01*
X4246Y4861D01*
X4347Y4760D01*
Y4745D01*
X4285Y4683D01*
X4252D01*
X4247Y4682D01*
X4243Y4679D01*
X4206Y4643D01*
X4180D01*
X4174Y4642D01*
X4168Y4639D01*
X4165Y4634D01*
X4164Y4627D01*
Y4613D01*
X4165Y4606D01*
X4168Y4601D01*
X4174Y4598D01*
X4180Y4597D01*
X4224D01*
X4230Y4598D01*
X4235Y4601D01*
X4239Y4606D01*
X4240Y4613D01*
Y4627D01*
X4239Y4634D01*
X4237Y4636D01*
X4257Y4657D01*
X4290D01*
X4295Y4658D01*
X4299Y4661D01*
X4369Y4731D01*
X4372Y4735D01*
X4373Y4740D01*
Y4741D01*
X4402D01*
Y4735D01*
X4403Y4729D01*
X4406Y4725D01*
X4410Y4722D01*
X4415Y4721D01*
X4425D01*
X4430Y4722D01*
X4434Y4725D01*
X4437Y4729D01*
X4438Y4735D01*
Y4774D01*
X4437Y4779D01*
X4434Y4784D01*
X4430Y4787D01*
X4425Y4788D01*
X4415D01*
X4410Y4787D01*
X4406Y4784D01*
X4403Y4779D01*
X4402Y4774D01*
Y4768D01*
X4376D01*
X4369Y4774D01*
X4268Y4875D01*
Y4882D01*
X4272Y4888D01*
X4273Y4895D01*
X4272Y4902D01*
X4268Y4908D01*
X4262Y4912D01*
X4255Y4913D01*
D02*
G37*
G36*
X2750Y4803D02*
X2743Y4802D01*
X2737Y4798D01*
X2733Y4792D01*
X2732Y4785D01*
X2733Y4778D01*
X2737Y4772D01*
X2738Y4772D01*
X2737Y4766D01*
X2734Y4764D01*
X2730Y4758D01*
X2729Y4752D01*
Y4730D01*
X2730Y4724D01*
X2734Y4718D01*
X2739Y4715D01*
X2746Y4713D01*
X2763D01*
X2769Y4715D01*
X2775Y4718D01*
X2778Y4724D01*
X2780Y4730D01*
Y4752D01*
X2778Y4758D01*
X2775Y4764D01*
X2773Y4765D01*
Y4776D01*
X2772Y4781D01*
X2769Y4785D01*
X2768Y4785D01*
X2767Y4792D01*
X2763Y4798D01*
X2757Y4802D01*
X2750Y4803D01*
D02*
G37*
G36*
X4464Y4643D02*
X4420D01*
X4414Y4642D01*
X4408Y4639D01*
X4405Y4634D01*
X4405Y4633D01*
X4375D01*
X4375Y4634D01*
X4372Y4639D01*
X4366Y4642D01*
X4360Y4643D01*
X4316D01*
X4310Y4642D01*
X4305Y4639D01*
X4301Y4634D01*
X4300Y4627D01*
Y4613D01*
X4301Y4606D01*
X4305Y4601D01*
X4310Y4598D01*
X4316Y4597D01*
X4360D01*
X4366Y4598D01*
X4372Y4601D01*
X4375Y4606D01*
X4375Y4607D01*
X4405D01*
X4405Y4606D01*
X4408Y4601D01*
X4414Y4598D01*
X4420Y4597D01*
X4464D01*
X4470Y4598D01*
X4475Y4601D01*
X4479Y4606D01*
X4480Y4613D01*
Y4627D01*
X4479Y4634D01*
X4475Y4639D01*
X4470Y4642D01*
X4464Y4643D01*
D02*
G37*
G36*
X4600D02*
X4556D01*
X4550Y4642D01*
X4545Y4639D01*
X4541Y4634D01*
X4540Y4627D01*
Y4613D01*
X4541Y4606D01*
X4545Y4601D01*
X4550Y4598D01*
X4556Y4597D01*
X4600D01*
X4606Y4598D01*
X4612Y4601D01*
X4615Y4606D01*
X4615Y4607D01*
X4665D01*
X4687Y4585D01*
X4688Y4578D01*
X4692Y4572D01*
X4698Y4568D01*
X4705Y4567D01*
X4712Y4568D01*
X4718Y4572D01*
X4722Y4578D01*
X4723Y4585D01*
X4722Y4592D01*
X4718Y4598D01*
X4712Y4602D01*
X4705Y4603D01*
X4679Y4629D01*
X4675Y4632D01*
X4670Y4633D01*
X4615D01*
X4615Y4634D01*
X4612Y4639D01*
X4606Y4642D01*
X4600Y4643D01*
D02*
G37*
%LPD*%
D14*
X4394Y4836D02*
D03*
X4446D02*
D03*
X4420Y4754D02*
D03*
X2715Y4829D02*
D03*
X2741Y4911D02*
D03*
X2689D02*
D03*
D15*
X1860Y4660D02*
D03*
X1920D02*
D03*
X1490Y4898D02*
D03*
X1430D02*
D03*
Y4839D02*
D03*
X1490D02*
D03*
X1535Y4950D02*
D03*
X1595D02*
D03*
X551Y4951D02*
D03*
X491D02*
D03*
X465Y4850D02*
D03*
X525D02*
D03*
X522Y4786D02*
D03*
X463D02*
D03*
X3500Y5035D02*
D03*
X3440D02*
D03*
X2945Y4930D02*
D03*
X2885D02*
D03*
X2945Y4865D02*
D03*
X2885D02*
D03*
Y4800D02*
D03*
X2945D02*
D03*
X1128Y5138D02*
D03*
X1188D02*
D03*
X1320Y4850D02*
D03*
X1380D02*
D03*
X938Y4749D02*
D03*
X998D02*
D03*
X930Y5138D02*
D03*
X990D02*
D03*
X930Y5210D02*
D03*
X990D02*
D03*
X1188D02*
D03*
X1128D02*
D03*
X990Y5066D02*
D03*
X930D02*
D03*
D24*
X1584Y4770D02*
D03*
Y4830D02*
D03*
X596Y5295D02*
D03*
Y5235D02*
D03*
X656D02*
D03*
Y5295D02*
D03*
X463Y5235D02*
D03*
Y5295D02*
D03*
X521Y5235D02*
D03*
Y5295D02*
D03*
X650Y4694D02*
D03*
Y4754D02*
D03*
X431Y5053D02*
D03*
Y4993D02*
D03*
X575Y5070D02*
D03*
Y5010D02*
D03*
X722Y4754D02*
D03*
Y4694D02*
D03*
X832Y5003D02*
D03*
Y4943D02*
D03*
X1325Y5275D02*
D03*
Y5335D02*
D03*
X1121Y4988D02*
D03*
Y4928D02*
D03*
X847Y5183D02*
D03*
Y5243D02*
D03*
X1062Y4992D02*
D03*
Y4932D02*
D03*
X782Y5186D02*
D03*
Y5246D02*
D03*
X1070Y5108D02*
D03*
Y5048D02*
D03*
D33*
X1282Y5017D02*
D03*
X1344D02*
D03*
X2811Y4675D02*
D03*
X2749D02*
D03*
X1427Y4728D02*
D03*
X1489D02*
D03*
X4446Y4920D02*
D03*
X4384D02*
D03*
X2013Y5071D02*
D03*
X2075D02*
D03*
X1174Y5304D02*
D03*
X1236D02*
D03*
X1490Y4661D02*
D03*
X1428D02*
D03*
X2946Y4675D02*
D03*
X2884D02*
D03*
X2754Y4741D02*
D03*
X2816D02*
D03*
X2946Y4740D02*
D03*
X2884D02*
D03*
X1587Y4873D02*
D03*
X1649D02*
D03*
X612Y4837D02*
D03*
X674D02*
D03*
X2685Y4996D02*
D03*
X2747D02*
D03*
D34*
X644Y4991D02*
D03*
Y4929D02*
D03*
X1393Y5153D02*
D03*
Y5215D02*
D03*
X1070Y4782D02*
D03*
Y4844D02*
D03*
X709Y4929D02*
D03*
Y4991D02*
D03*
X1393Y5341D02*
D03*
Y5280D02*
D03*
X982Y4998D02*
D03*
Y4936D02*
D03*
X928Y4998D02*
D03*
Y4936D02*
D03*
X1107Y5311D02*
D03*
Y5373D02*
D03*
X1035D02*
D03*
Y5311D02*
D03*
X2810Y4979D02*
D03*
Y5041D02*
D03*
D37*
X749Y4623D02*
X843Y4717D01*
X749Y4557D02*
Y4623D01*
Y4557D02*
X785Y4521D01*
X2193D01*
X2210Y4538D01*
X1068Y4549D02*
Y4611D01*
Y4549D02*
X1083Y4534D01*
X1465D01*
X1467Y4536D01*
X1649D01*
X1652Y4539D01*
X1718D01*
X1723Y4534D01*
X1757D01*
X1762Y4539D01*
X1818D01*
X1823Y4534D01*
X1857D01*
X1862Y4539D01*
X1900D01*
X1905Y4534D01*
X1975D01*
X1980Y4539D01*
X2010D01*
X2015Y4534D01*
X2085D01*
X2090Y4539D01*
X2190D01*
X2191Y4540D01*
Y4540D01*
X2191Y4540D02*
X2191Y4540D01*
X2191Y4540D02*
Y4556D01*
X2192Y4557D01*
Y5120D01*
X2210Y4538D02*
Y4548D01*
X2156Y5156D02*
X2192Y5120D01*
X729Y5189D02*
X732D01*
X726Y5186D02*
X729Y5189D01*
X988Y5412D02*
Y5421D01*
Y5412D02*
X1016Y5384D01*
X1101Y5080D02*
X1114Y5067D01*
X1128Y5091D02*
Y5138D01*
X1123Y5086D02*
X1128Y5091D01*
X1114Y5067D02*
X1131D01*
X1135Y5071D02*
X1361D01*
X1131Y5067D02*
X1135Y5071D01*
X1745Y5033D02*
X1814Y5102D01*
X1745Y5033D02*
Y5033D01*
X1540D02*
X1745D01*
X440Y5239D02*
X456Y5239D01*
X430Y5249D02*
X440Y5239D01*
X418Y5249D02*
X430D01*
X688Y5235D02*
X714Y5261D01*
Y5280D01*
X668Y5167D02*
X720Y5219D01*
X668Y5194D02*
X739Y5265D01*
X573Y5167D02*
X668D01*
X667Y5194D02*
X668D01*
X1557Y4742D02*
X1647D01*
X1555Y4745D02*
X1557Y4742D01*
X1554Y4745D02*
X1555D01*
X1524Y4775D02*
X1554Y4745D01*
X1559Y4724D02*
X1646D01*
X1550Y4733D02*
X1559Y4724D01*
X1548Y4733D02*
X1550D01*
X1524Y4757D02*
X1548Y4733D01*
X1531Y4714D02*
X1542D01*
X1509Y4736D02*
X1531Y4714D01*
X1234Y5309D02*
X1268Y5343D01*
Y5352D01*
X1293Y5380D02*
X1295Y5382D01*
X1293Y5347D02*
Y5380D01*
X1385Y5274D02*
X1390Y5269D01*
X1442D01*
X553Y4696D02*
X562D01*
X563Y4695D01*
X1486Y5260D02*
X1613D01*
X1442Y5216D02*
X1486Y5260D01*
X1424Y5247D02*
X1435Y5236D01*
X1356Y5247D02*
X1424D01*
X1385Y5216D02*
X1442D01*
X1524Y4775D02*
Y4778D01*
X1469Y4833D02*
X1524Y4778D01*
X1543Y4783D02*
X1545D01*
X1546Y4784D01*
X1770Y5525D02*
X1772D01*
X1757Y5512D02*
X1770Y5525D01*
X495Y5169D02*
X516D01*
X530Y5155D01*
Y5154D02*
X535Y5149D01*
X530Y5154D02*
Y5155D01*
X511Y5093D02*
Y5147D01*
X502Y5084D02*
X511Y5093D01*
X480Y5153D02*
X495Y5169D01*
X535Y5149D02*
X782D01*
X1025Y4844D02*
X1092D01*
X1021Y4840D02*
X1025Y4844D01*
X868Y4714D02*
Y4851D01*
Y4714D02*
X873Y4709D01*
X1052Y5066D02*
X1070Y5048D01*
X990Y5066D02*
X1052D01*
X1028Y4993D02*
Y5027D01*
X1001Y4966D02*
X1028Y4993D01*
X907Y4966D02*
X1001D01*
X899Y4958D02*
X907Y4966D01*
X899Y4927D02*
Y4958D01*
X615Y4788D02*
X645Y4818D01*
X615Y4675D02*
Y4788D01*
X580Y4640D02*
X615Y4675D01*
X580Y4639D02*
Y4640D01*
X644Y4918D02*
Y4929D01*
X631Y4905D02*
X644Y4918D01*
X631Y4880D02*
Y4905D01*
X1273Y4690D02*
X1320Y4643D01*
X1350D01*
X1378Y4615D01*
X1355Y4655D02*
X1383Y4627D01*
X1327Y4655D02*
X1355D01*
X1280Y4702D02*
X1327Y4655D01*
X1406Y4707D02*
X1427Y4728D01*
X1317Y4707D02*
X1406D01*
X1304Y4720D02*
X1317Y4707D01*
X1290Y4720D02*
X1304D01*
X1238Y4808D02*
X1292Y4754D01*
X1299D01*
X1378Y4615D02*
X1594D01*
X1383Y4627D02*
X1583D01*
X1480Y4661D02*
X1490D01*
X1451Y4689D02*
X1480Y4661D01*
X1347Y4687D02*
X1349Y4689D01*
X1451D01*
X1388Y4662D02*
X1389Y4661D01*
X1428D01*
X1594Y4615D02*
X1679Y4700D01*
X1583Y4627D02*
X1678Y4722D01*
X1546Y4784D02*
X1560Y4770D01*
X1469Y4833D02*
X1490D01*
X1328Y4757D02*
X1524D01*
X1560Y4770D02*
X1584D01*
X1563Y4872D02*
X1577Y4886D01*
X1646Y4724D02*
X1656Y4734D01*
X1647Y4742D02*
X1701Y4796D01*
X1656Y4734D02*
X1848D01*
X1871Y4757D01*
X1968D01*
X2050Y4675D01*
X1272Y4813D02*
X1328Y4757D01*
X1920Y4722D02*
X2013Y4629D01*
X1678Y4722D02*
X1920D01*
X1172Y5303D02*
X1219Y5350D01*
X1293Y5347D02*
X1305Y5335D01*
X1219Y5350D02*
X1220D01*
X1176Y5368D02*
X1190D01*
X1240Y5418D01*
X1232Y5383D02*
X1255Y5406D01*
X1240Y5418D02*
X1531D01*
X1255Y5406D02*
X1557D01*
X1297Y5500D02*
X1339Y5542D01*
X1275Y5287D02*
X1307D01*
X1310Y5290D01*
X1143Y5429D02*
Y5485D01*
X1116Y5512D02*
X1143Y5485D01*
X1093Y5512D02*
X1116D01*
X1085Y5520D02*
X1093Y5512D01*
X739Y5270D02*
Y5282D01*
X739Y5270D02*
X739Y5270D01*
X739Y5265D02*
Y5270D01*
X751Y5265D02*
X771Y5285D01*
X751Y5208D02*
Y5265D01*
Y5208D02*
X776Y5183D01*
X1143Y5429D02*
X1149Y5423D01*
X1069Y4612D02*
Y4619D01*
X1068Y4611D02*
X1069Y4612D01*
X1027Y4661D02*
X1069Y4619D01*
X1014Y4898D02*
X1015Y4899D01*
X986Y4926D02*
X1014Y4898D01*
X1116Y4702D02*
X1280D01*
X1141Y4690D02*
X1273D01*
X1393Y5331D02*
X1439D01*
X1718Y4925D02*
Y4935D01*
X1663Y4871D02*
X1718Y4925D01*
X1624Y4910D02*
X1663Y4871D01*
X1538Y4872D02*
X1563D01*
X1624Y4910D02*
Y4940D01*
X1614Y4950D02*
X1624Y4940D01*
X988Y4834D02*
X991D01*
X993Y4832D01*
X1311Y4803D02*
Y4815D01*
X1320Y4824D01*
X1184Y4880D02*
X1210D01*
X1272Y4819D01*
Y4813D02*
Y4819D01*
X479Y5203D02*
X511Y5235D01*
X426Y5203D02*
X479D01*
X420Y5209D02*
X426Y5203D01*
X458Y4903D02*
X491Y4936D01*
X448Y4903D02*
X458D01*
X1377Y4991D02*
X1391D01*
X1375Y4989D02*
X1377Y4991D01*
X1391D02*
X1400Y5000D01*
X1382Y4979D02*
X1418D01*
X1375Y4972D02*
X1382Y4979D01*
X1417Y5016D02*
X1448D01*
X1401Y5000D02*
X1417Y5016D01*
X1307Y4989D02*
X1375D01*
X1400Y5000D02*
X1401D01*
X1718Y4935D02*
X1738Y4955D01*
X670Y5338D02*
X674Y5334D01*
Y5314D02*
Y5334D01*
X1616Y5370D02*
X1781D01*
X1786Y5365D01*
X1722Y5254D02*
Y5256D01*
X1691Y5223D02*
X1722Y5254D01*
X1458Y5307D02*
X1540Y5389D01*
X1340Y5307D02*
X1458D01*
X1325Y5292D02*
X1340Y5307D01*
X1540Y5389D02*
X1557D01*
X1103Y5386D02*
X1127Y5410D01*
Y5414D01*
X1799Y4974D02*
X1816Y4957D01*
X1571Y4977D02*
X1612D01*
X1569Y4979D02*
X1571Y4977D01*
X1730Y4974D02*
X1799D01*
X1728Y4972D02*
X1730Y4974D01*
X1617Y4972D02*
X1728D01*
X1612Y4977D02*
X1617Y4972D01*
X1418Y4979D02*
X1427Y4987D01*
X1418Y4979D02*
X1418Y4979D01*
X1427Y4987D02*
X1466D01*
X1282Y5014D02*
X1307Y4989D01*
X1282Y5014D02*
Y5017D01*
X1269Y4972D02*
X1375D01*
X1208Y5033D02*
X1269Y4972D01*
X1466Y4987D02*
X1473Y4979D01*
X1374Y5017D02*
X1393Y5036D01*
X1401D01*
X1515Y5059D02*
X1540Y5033D01*
X1168Y5059D02*
X1515D01*
X1344Y5017D02*
X1374D01*
X1313Y5153D02*
X1384D01*
X1270Y5110D02*
X1313Y5153D01*
X1234Y5287D02*
Y5309D01*
X1786Y5365D02*
X1843Y5422D01*
X1656Y5407D02*
X1670Y5421D01*
X1592Y5407D02*
X1656D01*
X1582Y5397D02*
X1592Y5407D01*
X1565Y5397D02*
X1582D01*
X1766Y5395D02*
X1800Y5429D01*
X1597Y5395D02*
X1766D01*
X1511Y5309D02*
X1597Y5395D01*
X1557Y5389D02*
X1565Y5397D01*
X1339Y5542D02*
X1671D01*
X1713Y5500D01*
Y5465D02*
Y5500D01*
X1557Y5406D02*
X1583Y5432D01*
X1531Y5418D02*
Y5456D01*
X1391Y5465D02*
Y5496D01*
Y5465D02*
X1411Y5445D01*
X1426D01*
X1333Y5224D02*
X1356Y5247D01*
X1333Y5218D02*
Y5224D01*
X633Y5378D02*
X663D01*
X693Y5348D01*
X653Y5293D02*
X674Y5314D01*
X693Y5328D02*
Y5348D01*
X656Y5235D02*
X688D01*
X590Y5421D02*
X633Y5378D01*
X590Y5421D02*
Y5496D01*
X633Y5539D01*
X1180D01*
X1258Y5461D01*
X645Y4818D02*
Y4863D01*
X655Y4873D01*
X708D01*
X1124Y5048D02*
X1134Y5038D01*
X1070Y5048D02*
X1124D01*
X1168Y5059D02*
X1175Y5052D01*
X1203Y5028D02*
X1208Y5033D01*
X1179Y4960D02*
X1204Y4985D01*
X1179Y4939D02*
Y4960D01*
X1112Y4872D02*
X1179Y4939D01*
X908Y4872D02*
X1112D01*
X899Y4863D02*
X908Y4872D01*
X1156Y4899D02*
X1187Y4930D01*
X1203D01*
X872Y4888D02*
Y4900D01*
X899Y4927D01*
X942Y4891D02*
Y4942D01*
X872Y4888D02*
X880D01*
X930Y5066D02*
X964Y5100D01*
X1012D01*
X1032Y5080D01*
X1101D01*
X1361Y5071D02*
X1439Y5149D01*
Y5183D01*
X1479Y5223D01*
X1691D01*
X1531Y5456D02*
X1540Y5465D01*
X797Y4735D02*
X821Y4759D01*
X743Y4735D02*
X797D01*
X742Y4734D02*
X743Y4735D01*
X742Y4734D02*
X742D01*
X843Y4717D02*
Y4795D01*
X709Y4929D02*
X843Y4795D01*
X1305Y5335D02*
X1325D01*
X1016Y5384D02*
X1044D01*
Y5322D02*
X1053Y5313D01*
Y5164D02*
Y5313D01*
X1149Y5370D02*
Y5423D01*
X1103Y5324D02*
X1149Y5370D01*
X1113Y5248D02*
X1169D01*
X1087Y5222D02*
X1113Y5248D01*
X1087Y5149D02*
Y5222D01*
X1086Y5148D02*
X1087Y5149D01*
X1070Y5148D02*
X1086D01*
X1062Y5140D02*
X1070Y5148D01*
X1062Y5108D02*
Y5140D01*
X721Y5323D02*
Y5328D01*
X651Y5295D02*
X653Y5293D01*
X948Y5314D02*
X957D01*
X990Y5281D01*
X945Y5353D02*
Y5465D01*
Y5353D02*
X1018Y5280D01*
X936Y4853D02*
X957Y4832D01*
X1018Y5172D02*
Y5280D01*
X832Y4943D02*
X877D01*
X880Y4946D01*
X852Y4972D02*
X862Y4982D01*
X747Y4972D02*
X852D01*
X728Y4991D02*
X747Y4972D01*
X847Y5243D02*
X871D01*
X889Y5225D01*
Y5174D02*
Y5225D01*
X859Y5144D02*
X889Y5174D01*
X859Y5126D02*
Y5144D01*
X855Y5122D02*
X859Y5126D01*
X828Y5103D02*
X892D01*
X782Y5149D02*
X828Y5103D01*
X1701Y4796D02*
X2029D01*
X2050Y4775D01*
X1415Y4950D02*
X1535D01*
X1229Y4960D02*
X1390D01*
X1204Y4985D02*
X1229Y4960D01*
X1213Y5110D02*
X1270D01*
X1390Y4960D02*
X1405D01*
X1595Y4950D02*
X1614D01*
X1473Y4979D02*
X1569D01*
X1164Y5090D02*
Y5102D01*
X1196Y5093D02*
X1213Y5110D01*
X1164Y5102D02*
X1194Y5132D01*
X930Y5138D02*
Y5210D01*
X1346Y4913D02*
X1352Y4907D01*
Y4801D02*
Y4907D01*
X1380Y4830D02*
X1388Y4838D01*
X1380Y4830D02*
Y4850D01*
X1388Y4838D02*
Y4892D01*
X1320Y4824D02*
Y4850D01*
X1199Y4790D02*
X1256Y4733D01*
Y4724D02*
Y4733D01*
X787Y4623D02*
X873Y4709D01*
X787Y4599D02*
Y4623D01*
X877Y4665D02*
X938Y4726D01*
X877Y4660D02*
Y4665D01*
X1060Y4675D02*
Y4760D01*
X1072Y4772D01*
X998Y4709D02*
Y4749D01*
Y4709D02*
X1060Y4647D01*
X1155D01*
X938Y4726D02*
Y4749D01*
X590Y4918D02*
X602Y4930D01*
Y5124D01*
X600Y5126D02*
X602Y5124D01*
X563Y5345D02*
X628D01*
X521Y5303D02*
X563Y5345D01*
X431Y5053D02*
Y5118D01*
X421Y5128D02*
X431Y5118D01*
X904Y5291D02*
X915Y5302D01*
X904Y5236D02*
Y5291D01*
Y5236D02*
X930Y5210D01*
X1280Y4588D02*
Y4643D01*
X1256Y4667D02*
X1280Y4643D01*
X1141Y4678D02*
Y4690D01*
X1115Y4703D02*
X1116Y4702D01*
X1713Y5465D02*
X1719Y5459D01*
X1670Y5421D02*
Y5465D01*
X463Y4786D02*
Y4872D01*
X463Y4872D01*
X422D02*
X463D01*
X422D02*
X450D01*
X563Y4695D02*
X585Y4717D01*
Y4821D01*
X609Y4845D01*
X590Y4864D02*
Y4918D01*
Y4864D02*
X609Y4845D01*
X476Y5157D02*
X480Y5153D01*
X1161Y4988D02*
X1166Y4983D01*
X1121Y4988D02*
X1161D01*
X1062D02*
X1121D01*
X1141Y4928D02*
X1160Y4947D01*
X1121Y4928D02*
X1141D01*
X1199Y4790D02*
Y4847D01*
X1186Y4860D02*
X1199Y4847D01*
X1156Y4860D02*
X1186D01*
X1156D02*
Y4899D01*
X1062Y4928D02*
X1121D01*
X1170Y4662D02*
Y4664D01*
X1155Y4647D02*
X1170Y4662D01*
X1062Y4782D02*
X1072Y4772D01*
X1017Y4660D02*
X1026D01*
X1027Y4661D01*
X1825Y4575D02*
Y4625D01*
X1489Y4736D02*
X1509D01*
X646Y4750D02*
X650Y4754D01*
X722D01*
Y4782D01*
X671Y4845D02*
X701Y4815D01*
X463Y4758D02*
Y4786D01*
Y4758D02*
X485Y4735D01*
X565D01*
X596Y5235D02*
X656D01*
X1436Y4779D02*
X1490Y4833D01*
Y4850D02*
Y4905D01*
X1825Y4625D02*
X1860Y4660D01*
X644Y4991D02*
X709D01*
X923Y5000D02*
X983D01*
X1380Y4850D02*
X1430D01*
Y4905D01*
X650Y4694D02*
X722D01*
X555Y4880D02*
X568D01*
X525Y4850D02*
X555Y4880D01*
X522Y4847D02*
X525Y4850D01*
X522Y4786D02*
Y4847D01*
X551Y4951D02*
Y4975D01*
X431Y4993D02*
X475D01*
X417Y5288D02*
X446D01*
X456Y5299D01*
X1482Y5166D02*
X1485Y5169D01*
X1482Y5119D02*
Y5166D01*
Y5119D02*
X1495Y5106D01*
X1441Y5460D02*
X1487D01*
X1426Y5445D02*
X1441Y5460D01*
X1935Y5045D02*
X1985Y4995D01*
X2050D01*
X1935Y5045D02*
Y5077D01*
X1945Y5087D01*
Y5135D01*
X1940Y5460D02*
X1987D01*
X1757Y5465D02*
Y5512D01*
X596Y5295D02*
X651D01*
X776Y5183D02*
X847D01*
X1092Y4844D02*
X1103Y4834D01*
X1156D01*
X990Y5138D02*
Y5210D01*
X1128Y5138D02*
Y5210D01*
X1062Y4782D02*
X1156D01*
X1156Y4782D01*
X1405Y4960D02*
X1415Y4950D01*
X802Y5243D02*
X847D01*
X2050Y5147D02*
X2075Y5123D01*
Y5071D02*
Y5123D01*
X502Y5084D02*
X516Y5070D01*
X575D01*
X521Y5295D02*
Y5303D01*
X492Y5010D02*
X516D01*
X575D01*
X516D02*
X551Y4975D01*
X475Y4993D02*
X492Y5010D01*
X491Y4936D02*
Y4951D01*
X551Y4923D02*
Y4951D01*
Y4923D02*
X568Y4905D01*
Y4880D02*
Y4905D01*
X701Y4803D02*
Y4815D01*
Y4803D02*
X722Y4782D01*
Y4754D02*
X742Y4734D01*
X990Y5210D02*
Y5281D01*
X1188Y5138D02*
X1194Y5132D01*
X1169Y5248D02*
X1188Y5229D01*
Y5210D02*
Y5229D01*
X1325Y5275D02*
Y5292D01*
X861Y5032D02*
X875D01*
X862Y4982D02*
X878D01*
X709Y4991D02*
X728D01*
X1388Y4779D02*
X1436D01*
X1940Y4575D02*
Y4640D01*
X1920Y4660D02*
X1940Y4640D01*
X2105Y4629D02*
X2154Y4580D01*
X2013Y4629D02*
X2105D01*
X1113Y4703D02*
X1115D01*
X1113Y4702D02*
Y4703D01*
Y4702D02*
X1116Y4699D01*
X2001Y5083D02*
X2013Y5071D01*
X2001Y5083D02*
Y5252D01*
X1972Y5281D02*
X2001Y5252D01*
X1987Y5460D02*
X2008Y5481D01*
X1062Y4928D02*
Y4930D01*
X915Y5302D02*
Y5317D01*
X1747Y4700D02*
Y4701D01*
X1260Y4599D02*
Y4608D01*
X1280Y4588D01*
X1626Y5466D02*
Y5523D01*
Y5466D02*
X1627Y5465D01*
X1583Y5432D02*
Y5465D01*
X1172Y5287D02*
Y5303D01*
X1234Y5261D02*
Y5287D01*
Y5261D02*
X1251Y5244D01*
Y5192D02*
Y5194D01*
X1206Y5239D02*
X1251Y5194D01*
X1206Y5239D02*
X1206D01*
X1172Y5273D02*
X1206Y5239D01*
X1172Y5273D02*
Y5287D01*
X1310Y5290D02*
X1325Y5275D01*
X1679Y4700D02*
X1747D01*
X1387Y4780D02*
X1388Y4779D01*
X1387Y4780D02*
Y4787D01*
X867Y5066D02*
X930D01*
X833Y5004D02*
X923Y5000D01*
X832Y5003D02*
X833Y5004D01*
X861Y5032D01*
X1485Y5169D02*
X1496Y5158D01*
X1528D01*
X1843Y5422D02*
Y5465D01*
X1800Y5429D02*
Y5465D01*
X511Y5235D02*
X521D01*
X693Y5328D02*
X739Y5282D01*
X771Y5285D02*
X836D01*
X957Y4832D02*
X993D01*
X369Y4498D02*
Y5568D01*
X2240Y4838D02*
Y5113D01*
Y4838D02*
X2270D01*
Y5113D01*
X2240D02*
X2270D01*
X2240Y4548D02*
Y4788D01*
Y4548D02*
X2270D01*
Y4788D01*
X2240D02*
X2270D01*
X369Y5568D02*
X2243D01*
Y5165D02*
Y5568D01*
D38*
X2847Y4697D02*
Y4705D01*
X2825Y4675D02*
X2847Y4697D01*
X1535Y4874D02*
X1536D01*
X1538Y4872D01*
X2652Y5050D02*
X2712D01*
X2634Y5032D02*
X2652Y5050D01*
X2634Y4624D02*
Y5032D01*
X2712Y5050D02*
X2746Y5016D01*
X2868Y4976D02*
X2874Y4982D01*
X2810Y4976D02*
X2868D01*
X2936Y4990D02*
X2976D01*
X2945Y4959D02*
X2976Y4990D01*
X2945Y4930D02*
Y4959D01*
X2936Y4990D02*
X2939Y4993D01*
X1538Y4872D02*
X1580Y4830D01*
X1584D01*
X2946Y4675D02*
X2988Y4717D01*
X3098D01*
X1947Y4890D02*
Y4952D01*
X1897Y4840D02*
X1947Y4890D01*
X1897Y4817D02*
Y4840D01*
X722Y4694D02*
X749Y4721D01*
X815D01*
X1867Y5106D02*
X1889Y5084D01*
Y5010D02*
Y5084D01*
Y5010D02*
X1947Y4952D01*
X4360Y4765D02*
X4371Y4754D01*
X4255Y4870D02*
X4360Y4765D01*
X4578Y4620D02*
X4670D01*
X4705Y4585D01*
X2840Y4575D02*
Y4590D01*
X2884Y4634D01*
Y4675D01*
Y4740D02*
X2895D01*
X2913Y4722D01*
Y4581D02*
Y4722D01*
Y4581D02*
X2919Y4575D01*
X2770Y5070D02*
X2800Y5040D01*
X2770Y5070D02*
Y5090D01*
X2810Y4976D02*
Y4979D01*
X2560Y4950D02*
X2590Y4920D01*
Y4605D02*
Y4920D01*
Y4605D02*
X2665Y4530D01*
X2785D01*
X2800Y4545D01*
Y4634D01*
X2759Y4675D02*
X2800Y4634D01*
X4202Y4620D02*
X4252Y4670D01*
X4290D01*
X4360Y4740D01*
Y4765D01*
X4255Y4870D02*
Y4895D01*
X4371Y4754D02*
X4420D01*
X4338Y4620D02*
X4442D01*
X2946Y4740D02*
X3076D01*
X3090Y4754D01*
Y4785D01*
X2750D02*
X2759Y4776D01*
Y4740D02*
Y4776D01*
X2820Y4741D02*
Y4810D01*
Y4741D02*
X2821Y4740D01*
X4295Y5009D02*
Y5080D01*
Y5009D02*
X4394Y4910D01*
Y4836D02*
Y4910D01*
X2510Y4670D02*
X2560Y4720D01*
Y4770D01*
X2821Y4675D02*
X2825D01*
X2945Y4800D02*
Y4865D01*
Y4930D01*
X2684Y4980D02*
X2689Y4975D01*
Y4655D02*
Y4975D01*
Y4655D02*
X2761Y4583D01*
Y4575D02*
Y4583D01*
X2634Y4624D02*
X2683Y4575D01*
X2746Y4916D02*
Y5016D01*
X2741Y4911D02*
X2746Y4916D01*
X369Y4498D02*
X3998D01*
X3135Y4785D02*
X3185D01*
Y4545D02*
Y4785D01*
X3135Y4545D02*
X3185D01*
X3135D02*
Y4785D01*
Y5090D02*
X3185D01*
Y4850D02*
Y5090D01*
X3135Y4850D02*
X3185D01*
X3135D02*
Y5090D01*
X4785Y4498D02*
Y4780D01*
X3998Y4498D02*
X4785D01*
X4015Y4840D02*
Y5080D01*
Y4840D02*
X4065D01*
Y5080D01*
X4015D02*
X4065D01*
X4015Y4535D02*
Y4775D01*
Y4535D02*
X4065D01*
Y4775D01*
X4015D02*
X4065D01*
X2243Y5165D02*
X4785D01*
Y4780D02*
Y5165D01*
D39*
X3575Y5035D02*
X3580Y5030D01*
X3500Y5035D02*
X3575D01*
D57*
X633Y5462D02*
D03*
X711D02*
D03*
X790D02*
D03*
X869D02*
D03*
X948D02*
D03*
X1026D02*
D03*
X1105D02*
D03*
X1184D02*
D03*
X1263D02*
D03*
X1341D02*
D03*
Y4596D02*
D03*
X1263D02*
D03*
X1184D02*
D03*
X1105D02*
D03*
X1026D02*
D03*
X948D02*
D03*
X869D02*
D03*
X790D02*
D03*
X711D02*
D03*
D58*
X633D02*
D03*
D59*
X2050Y4775D02*
D03*
Y4675D02*
D03*
X1740Y4575D02*
D03*
X1840D02*
D03*
X2050Y4895D02*
D03*
X3680Y5040D02*
D03*
X3580D02*
D03*
X1630Y4575D02*
D03*
X1530D02*
D03*
X4395Y5080D02*
D03*
X4295D02*
D03*
X2050Y5226D02*
D03*
Y5147D02*
D03*
D60*
Y4575D02*
D03*
Y4995D02*
D03*
D61*
X1940Y4575D02*
D03*
X3780Y5040D02*
D03*
X1430Y4575D02*
D03*
X4195Y5080D02*
D03*
D62*
X2154Y4659D02*
D03*
Y4580D02*
D03*
Y4816D02*
D03*
X2156Y5077D02*
D03*
Y4998D02*
D03*
Y5156D02*
D03*
Y5234D02*
D03*
X2683Y4575D02*
D03*
X2761D02*
D03*
X2919D02*
D03*
X2840D02*
D03*
X504Y5022D02*
D03*
D63*
X2154Y4738D02*
D03*
X2156Y4920D02*
D03*
D64*
X2997Y4575D02*
D03*
D65*
X911Y4557D02*
D03*
X2210Y4548D02*
D03*
X2326Y4797D02*
D03*
X732Y5189D02*
D03*
X988Y5421D02*
D03*
X1123Y5086D02*
D03*
X1814Y5102D02*
D03*
X418Y5249D02*
D03*
X714Y5280D02*
D03*
X667Y5194D02*
D03*
X1542Y4714D02*
D03*
X994Y5340D02*
D03*
X1268Y5352D02*
D03*
X1353Y5373D02*
D03*
X1295Y5382D02*
D03*
X2847Y4705D02*
D03*
X1442Y5269D02*
D03*
X553Y4696D02*
D03*
X1211Y4653D02*
D03*
X1435Y5236D02*
D03*
X1543Y4783D02*
D03*
X511Y5147D02*
D03*
X1021Y4840D02*
D03*
X868Y4851D02*
D03*
X1028Y5027D02*
D03*
X580Y4640D02*
D03*
X631Y4880D02*
D03*
X2939Y4993D02*
D03*
X1290Y4720D02*
D03*
X1299Y4754D02*
D03*
X1388Y4662D02*
D03*
X1220Y5350D02*
D03*
X1176Y5368D02*
D03*
X1232Y5383D02*
D03*
X1297Y5500D02*
D03*
X1275Y5287D02*
D03*
X1440Y5102D02*
D03*
X1347Y4687D02*
D03*
X1015Y4899D02*
D03*
X3089Y4948D02*
D03*
X988Y4834D02*
D03*
X1311Y4803D02*
D03*
X448Y4903D02*
D03*
X417Y5288D02*
D03*
X1401Y5000D02*
D03*
X670Y5338D02*
D03*
X1616Y5370D02*
D03*
X1722Y5256D02*
D03*
X3098Y4717D02*
D03*
X1439Y5331D02*
D03*
X1127Y5414D02*
D03*
X1401Y5036D02*
D03*
X1391Y5496D02*
D03*
X708Y4873D02*
D03*
X720Y5219D02*
D03*
X1134Y5038D02*
D03*
X1179Y5052D02*
D03*
X1203Y5028D02*
D03*
X1203Y4930D02*
D03*
X899Y4863D02*
D03*
X942Y4891D02*
D03*
X1018Y5172D02*
D03*
X815Y4721D02*
D03*
X851Y5386D02*
D03*
X1085Y5520D02*
D03*
X1053Y5164D02*
D03*
X1086Y5148D02*
D03*
X721Y5328D02*
D03*
X948Y5314D02*
D03*
X872Y4888D02*
D03*
X936Y4853D02*
D03*
X880Y4946D02*
D03*
X855Y5122D02*
D03*
X892Y5103D02*
D03*
X1867Y5106D02*
D03*
X1897Y4817D02*
D03*
X1204Y4985D02*
D03*
X1390Y4960D02*
D03*
X1738Y4955D02*
D03*
X1816Y4957D02*
D03*
X1164Y5090D02*
D03*
X1196Y5093D02*
D03*
X878Y5136D02*
D03*
X1352Y4801D02*
D03*
X1388Y4892D02*
D03*
X1346Y4913D02*
D03*
X1256Y4724D02*
D03*
X877Y4660D02*
D03*
X1060Y4675D02*
D03*
X914Y4669D02*
D03*
X821Y4759D02*
D03*
X439Y5178D02*
D03*
X600Y5126D02*
D03*
X572Y5168D02*
D03*
X628Y5345D02*
D03*
X420Y5209D02*
D03*
X421Y5128D02*
D03*
X1613Y5260D02*
D03*
X422Y4872D02*
D03*
X590Y4918D02*
D03*
X1166Y4983D02*
D03*
X1160Y4947D02*
D03*
X476Y5157D02*
D03*
X587Y4678D02*
D03*
X1184Y4881D02*
D03*
X1170Y4664D02*
D03*
X1017Y4660D02*
D03*
X1500Y5003D02*
D03*
X1256Y4667D02*
D03*
X565Y4735D02*
D03*
X4705Y4585D02*
D03*
X568Y4880D02*
D03*
X2770Y5090D02*
D03*
X2560Y4950D02*
D03*
X4255Y4895D02*
D03*
X3090Y4785D02*
D03*
X2750D02*
D03*
X2820Y4810D02*
D03*
X2560Y4770D02*
D03*
X1972Y5281D02*
D03*
X875Y5032D02*
D03*
X878Y4982D02*
D03*
X1325Y4726D02*
D03*
X1116Y4699D02*
D03*
X1687Y5104D02*
D03*
X422Y4733D02*
D03*
X915Y5317D02*
D03*
X1747Y4701D02*
D03*
X1141Y4678D02*
D03*
X1218Y4723D02*
D03*
X1626Y5523D02*
D03*
X1387Y4787D02*
D03*
X867Y5066D02*
D03*
X1528Y5158D02*
D03*
X1511Y5309D02*
D03*
X836Y5285D02*
D03*
D66*
X1535Y4874D02*
D03*
D67*
X1772Y5525D02*
D03*
X1685Y4810D02*
D03*
X2008Y5481D02*
D03*
D68*
X3673Y4874D02*
D03*
D69*
X2820Y4910D02*
D03*
D70*
X474Y4606D02*
D03*
Y5449D02*
D03*
X2121D02*
D03*
X3315Y5045D02*
D03*
X4679Y5054D02*
D03*
X2370Y5030D02*
D03*
D71*
X1156Y4782D02*
D03*
Y4834D02*
D03*
X1238Y4808D02*
D03*
X1251Y5192D02*
D03*
Y5244D02*
D03*
X1333Y5218D02*
D03*
D72*
X1448Y4956D02*
D03*
Y5016D02*
D03*
D73*
X4202Y4620D02*
D03*
X4338D02*
D03*
X4578D02*
D03*
X4442D02*
D03*
D74*
X1495Y5106D02*
D03*
D75*
X1935Y5045D02*
D03*
D76*
X1487Y5460D02*
D03*
D77*
X1940D02*
D03*
D78*
X1945Y5135D02*
D03*
X1485Y5169D02*
D03*
D79*
X1540Y5465D02*
D03*
X1583D02*
D03*
X1627D02*
D03*
X1757D02*
D03*
X1713D02*
D03*
X1670D02*
D03*
X1800D02*
D03*
X1843D02*
D03*
D80*
X2975Y4994D02*
D03*
X2885D02*
D03*
D81*
X2510Y4670D02*
D03*
X2380D02*
D03*
D82*
X2445Y4730D02*
D03*
Y4610D02*
D03*
M02*
