G04 Layer_Color=2752767*
%FSLAX23Y23*%
%MOIN*%
G70*
G01*
G75*
%ADD37C,0.006*%
%ADD38C,0.010*%
%ADD132C,0.002*%
%ADD133C,0.003*%
D37*
X369Y4498D02*
Y5568D01*
X2240Y4838D02*
Y5113D01*
Y4838D02*
X2270D01*
Y5113D01*
X2240D02*
X2270D01*
X2240Y4548D02*
Y4788D01*
Y4548D02*
X2270D01*
Y4788D01*
X2240D02*
X2270D01*
X369Y5568D02*
X2243D01*
Y5165D02*
Y5568D01*
D38*
X369Y4498D02*
X3998D01*
X3135Y4785D02*
X3185D01*
Y4545D02*
Y4785D01*
X3135Y4545D02*
X3185D01*
X3135D02*
Y4785D01*
Y5090D02*
X3185D01*
Y4850D02*
Y5090D01*
X3135Y4850D02*
X3185D01*
X3135D02*
Y5090D01*
X4785Y4498D02*
Y4780D01*
X3998Y4498D02*
X4785D01*
X4015Y4840D02*
Y5080D01*
Y4840D02*
X4065D01*
Y5080D01*
X4015D02*
X4065D01*
X4015Y4535D02*
Y4775D01*
Y4535D02*
X4065D01*
Y4775D01*
X4015D02*
X4065D01*
X2243Y5165D02*
X4785D01*
Y4780D02*
Y5165D01*
D132*
X625Y5454D02*
Y5470D01*
X641D01*
Y5454D01*
X625D01*
X703D02*
Y5470D01*
X719D01*
Y5454D01*
X703D01*
X782D02*
Y5470D01*
X798D01*
Y5454D01*
X782D01*
X861D02*
Y5470D01*
X877D01*
Y5454D01*
X861D01*
X940D02*
Y5470D01*
X956D01*
Y5454D01*
X940D01*
X1018D02*
Y5470D01*
X1034D01*
Y5454D01*
X1018D01*
X1097D02*
Y5470D01*
X1113D01*
Y5454D01*
X1097D01*
X1176D02*
Y5470D01*
X1192D01*
Y5454D01*
X1176D01*
X1255D02*
Y5470D01*
X1271D01*
Y5454D01*
X1255D01*
X1333D02*
Y5470D01*
X1349D01*
Y5454D01*
X1333D01*
Y4588D02*
Y4604D01*
X1349D01*
Y4588D01*
X1333D01*
X1255D02*
Y4604D01*
X1271D01*
Y4588D01*
X1255D01*
X1176D02*
Y4604D01*
X1192D01*
Y4588D01*
X1176D01*
X1097D02*
Y4604D01*
X1113D01*
Y4588D01*
X1097D01*
X1018D02*
Y4604D01*
X1034D01*
Y4588D01*
X1018D01*
X940D02*
Y4604D01*
X956D01*
Y4588D01*
X940D01*
X861D02*
Y4604D01*
X877D01*
Y4588D01*
X861D01*
X782D02*
Y4604D01*
X798D01*
Y4588D01*
X782D01*
X703D02*
Y4604D01*
X719D01*
Y4588D01*
X703D01*
X625D02*
Y4604D01*
X641D01*
Y4588D01*
X625D01*
X911Y4549D02*
X903Y4565D01*
X919D01*
X911Y4549D01*
X2210Y4540D02*
X2202Y4556D01*
X2218D01*
X2210Y4540D01*
X2326Y4789D02*
X2318Y4805D01*
X2334D01*
X2326Y4789D01*
X732Y5181D02*
X724Y5197D01*
X740D01*
X732Y5181D01*
X988Y5413D02*
X980Y5429D01*
X996D01*
X988Y5413D01*
X1123Y5078D02*
X1115Y5094D01*
X1131D01*
X1123Y5078D01*
X1814Y5094D02*
X1806Y5110D01*
X1822D01*
X1814Y5094D01*
X418Y5241D02*
X410Y5257D01*
X426D01*
X418Y5241D01*
X714Y5272D02*
X706Y5288D01*
X722D01*
X714Y5272D01*
X667Y5186D02*
X659Y5202D01*
X675D01*
X667Y5186D01*
X1542Y4706D02*
X1534Y4722D01*
X1550D01*
X1542Y4706D01*
X994Y5332D02*
X986Y5348D01*
X1002D01*
X994Y5332D01*
X1268Y5344D02*
X1260Y5360D01*
X1276D01*
X1268Y5344D01*
X1353Y5365D02*
X1345Y5381D01*
X1361D01*
X1353Y5365D01*
X1295Y5374D02*
X1287Y5390D01*
X1303D01*
X1295Y5374D01*
X2847Y4697D02*
X2839Y4713D01*
X2855D01*
X2847Y4697D01*
X1442Y5261D02*
X1434Y5277D01*
X1450D01*
X1442Y5261D01*
X1535Y4866D02*
X1527Y4882D01*
X1543D01*
X1535Y4866D01*
X553Y4688D02*
X545Y4704D01*
X561D01*
X553Y4688D01*
X1211Y4645D02*
X1203Y4661D01*
X1219D01*
X1211Y4645D01*
X1435Y5228D02*
X1427Y5244D01*
X1443D01*
X1435Y5228D01*
X1543Y4775D02*
X1535Y4791D01*
X1551D01*
X1543Y4775D01*
X1772Y5517D02*
X1764Y5533D01*
X1780D01*
X1772Y5517D01*
X511Y5139D02*
X503Y5155D01*
X519D01*
X511Y5139D01*
X1021Y4832D02*
X1013Y4848D01*
X1029D01*
X1021Y4832D01*
X868Y4843D02*
X860Y4859D01*
X876D01*
X868Y4843D01*
X1028Y5019D02*
X1020Y5035D01*
X1036D01*
X1028Y5019D01*
X580Y4632D02*
X572Y4648D01*
X588D01*
X580Y4632D01*
X631Y4872D02*
X623Y4888D01*
X639D01*
X631Y4872D01*
X2939Y4985D02*
X2931Y5001D01*
X2947D01*
X2939Y4985D01*
X1290Y4712D02*
X1282Y4728D01*
X1298D01*
X1290Y4712D01*
X1299Y4746D02*
X1291Y4762D01*
X1307D01*
X1299Y4746D01*
X1388Y4654D02*
X1380Y4670D01*
X1396D01*
X1388Y4654D01*
X1220Y5342D02*
X1212Y5358D01*
X1228D01*
X1220Y5342D01*
X1176Y5360D02*
X1168Y5376D01*
X1184D01*
X1176Y5360D01*
X1232Y5375D02*
X1224Y5391D01*
X1240D01*
X1232Y5375D01*
X1297Y5492D02*
X1289Y5508D01*
X1305D01*
X1297Y5492D01*
X1275Y5279D02*
X1267Y5295D01*
X1283D01*
X1275Y5279D01*
X1440Y5094D02*
X1432Y5110D01*
X1448D01*
X1440Y5094D01*
X1347Y4679D02*
X1339Y4695D01*
X1355D01*
X1347Y4679D01*
X1015Y4891D02*
X1007Y4907D01*
X1023D01*
X1015Y4891D01*
X3673Y4866D02*
X3677Y4870D01*
X3681D01*
X3677Y4874D01*
X3681Y4878D01*
X3677D01*
X3673Y4882D01*
X3669Y4878D01*
X3665D01*
X3669Y4874D01*
X3665Y4870D01*
X3669D01*
X3673Y4866D01*
X3089Y4940D02*
X3081Y4956D01*
X3097D01*
X3089Y4940D01*
X2820Y4902D02*
X2824Y4906D01*
X2828D01*
X2824Y4910D01*
X2828Y4914D01*
X2824D01*
X2820Y4918D01*
X2816Y4914D01*
X2812D01*
X2816Y4910D01*
X2812Y4906D01*
X2816D01*
X2820Y4902D01*
X988Y4826D02*
X980Y4842D01*
X996D01*
X988Y4826D01*
X1311Y4795D02*
X1303Y4811D01*
X1319D01*
X1311Y4795D01*
X448Y4895D02*
X440Y4911D01*
X456D01*
X448Y4895D01*
X417Y5280D02*
X409Y5296D01*
X425D01*
X417Y5280D01*
X1401Y4992D02*
X1393Y5008D01*
X1409D01*
X1401Y4992D01*
X670Y5330D02*
X662Y5346D01*
X678D01*
X670Y5330D01*
X1616Y5362D02*
X1608Y5378D01*
X1624D01*
X1616Y5362D01*
X1722Y5248D02*
X1714Y5264D01*
X1730D01*
X1722Y5248D01*
X3098Y4709D02*
X3090Y4725D01*
X3106D01*
X3098Y4709D01*
X1439Y5323D02*
X1431Y5339D01*
X1447D01*
X1439Y5323D01*
X1127Y5406D02*
X1119Y5422D01*
X1135D01*
X1127Y5406D01*
X1401Y5028D02*
X1393Y5044D01*
X1409D01*
X1401Y5028D01*
X1391Y5488D02*
X1383Y5504D01*
X1399D01*
X1391Y5488D01*
X708Y4865D02*
X700Y4881D01*
X716D01*
X708Y4865D01*
X720Y5211D02*
X712Y5227D01*
X728D01*
X720Y5211D01*
X1134Y5030D02*
X1126Y5046D01*
X1142D01*
X1134Y5030D01*
X1179Y5044D02*
X1171Y5060D01*
X1187D01*
X1179Y5044D01*
X1203Y5020D02*
X1195Y5036D01*
X1211D01*
X1203Y5020D01*
X1203Y4922D02*
X1195Y4938D01*
X1211D01*
X1203Y4922D01*
X899Y4855D02*
X891Y4871D01*
X907D01*
X899Y4855D01*
X942Y4883D02*
X934Y4899D01*
X950D01*
X942Y4883D01*
X1018Y5164D02*
X1010Y5180D01*
X1026D01*
X1018Y5164D01*
X815Y4713D02*
X807Y4729D01*
X823D01*
X815Y4713D01*
X851Y5378D02*
X843Y5394D01*
X859D01*
X851Y5378D01*
X1085Y5512D02*
X1077Y5528D01*
X1093D01*
X1085Y5512D01*
X1053Y5156D02*
X1045Y5172D01*
X1061D01*
X1053Y5156D01*
X1086Y5140D02*
X1078Y5156D01*
X1094D01*
X1086Y5140D01*
X721Y5320D02*
X713Y5336D01*
X729D01*
X721Y5320D01*
X948Y5306D02*
X940Y5322D01*
X956D01*
X948Y5306D01*
X872Y4880D02*
X864Y4896D01*
X880D01*
X872Y4880D01*
X936Y4845D02*
X928Y4861D01*
X944D01*
X936Y4845D01*
X880Y4938D02*
X872Y4954D01*
X888D01*
X880Y4938D01*
X855Y5114D02*
X847Y5130D01*
X863D01*
X855Y5114D01*
X892Y5095D02*
X884Y5111D01*
X900D01*
X892Y5095D01*
X1867Y5098D02*
X1859Y5114D01*
X1875D01*
X1867Y5098D01*
X1897Y4809D02*
X1889Y4825D01*
X1905D01*
X1897Y4809D01*
X1204Y4977D02*
X1196Y4993D01*
X1212D01*
X1204Y4977D01*
X1390Y4952D02*
X1382Y4968D01*
X1398D01*
X1390Y4952D01*
X1738Y4947D02*
X1730Y4963D01*
X1746D01*
X1738Y4947D01*
X1816Y4949D02*
X1808Y4965D01*
X1824D01*
X1816Y4949D01*
X1164Y5082D02*
X1156Y5098D01*
X1172D01*
X1164Y5082D01*
X1196Y5085D02*
X1188Y5101D01*
X1204D01*
X1196Y5085D01*
X1677Y4802D02*
X1681Y4810D01*
X1677Y4818D01*
X1685Y4814D01*
X1693Y4818D01*
X1689Y4810D01*
X1693Y4802D01*
X1685Y4806D01*
X1677Y4802D01*
X878Y5128D02*
X870Y5144D01*
X886D01*
X878Y5128D01*
X1352Y4793D02*
X1344Y4809D01*
X1360D01*
X1352Y4793D01*
X1388Y4884D02*
X1380Y4900D01*
X1396D01*
X1388Y4884D01*
X1346Y4905D02*
X1338Y4921D01*
X1354D01*
X1346Y4905D01*
X1256Y4716D02*
X1248Y4732D01*
X1264D01*
X1256Y4716D01*
X877Y4652D02*
X869Y4668D01*
X885D01*
X877Y4652D01*
X1060Y4667D02*
X1052Y4683D01*
X1068D01*
X1060Y4667D01*
X914Y4661D02*
X906Y4677D01*
X922D01*
X914Y4661D01*
X821Y4751D02*
X813Y4767D01*
X829D01*
X821Y4751D01*
X439Y5170D02*
X431Y5186D01*
X447D01*
X439Y5170D01*
X600Y5118D02*
X592Y5134D01*
X608D01*
X600Y5118D01*
X572Y5160D02*
X564Y5176D01*
X580D01*
X572Y5160D01*
X628Y5337D02*
X620Y5353D01*
X636D01*
X628Y5337D01*
X420Y5201D02*
X412Y5217D01*
X428D01*
X420Y5201D01*
X421Y5120D02*
X413Y5136D01*
X429D01*
X421Y5120D01*
X1613Y5252D02*
X1605Y5268D01*
X1621D01*
X1613Y5252D01*
X422Y4864D02*
X414Y4880D01*
X430D01*
X422Y4864D01*
X590Y4910D02*
X582Y4926D01*
X598D01*
X590Y4910D01*
X1166Y4975D02*
X1158Y4991D01*
X1174D01*
X1166Y4975D01*
X1160Y4939D02*
X1152Y4955D01*
X1168D01*
X1160Y4939D01*
X476Y5149D02*
X468Y5165D01*
X484D01*
X476Y5149D01*
X587Y4670D02*
X579Y4686D01*
X595D01*
X587Y4670D01*
X1184Y4873D02*
X1176Y4889D01*
X1192D01*
X1184Y4873D01*
X1170Y4656D02*
X1162Y4672D01*
X1178D01*
X1170Y4656D01*
X1017Y4652D02*
X1009Y4668D01*
X1025D01*
X1017Y4652D01*
X1500Y4995D02*
X1492Y5011D01*
X1508D01*
X1500Y4995D01*
X1256Y4659D02*
X1248Y4675D01*
X1264D01*
X1256Y4659D01*
X470Y4602D02*
Y4598D01*
X478D01*
Y4602D01*
X482D01*
Y4610D01*
X478D01*
Y4614D01*
X470D01*
Y4610D01*
X466D01*
Y4602D01*
X470D01*
Y5445D02*
Y5441D01*
X478D01*
Y5445D01*
X482D01*
Y5453D01*
X478D01*
Y5457D01*
X470D01*
Y5453D01*
X466D01*
Y5445D01*
X470D01*
X2117D02*
Y5441D01*
X2125D01*
Y5445D01*
X2129D01*
Y5453D01*
X2125D01*
Y5457D01*
X2117D01*
Y5453D01*
X2113D01*
Y5445D01*
X2117D01*
X3311Y5041D02*
Y5037D01*
X3319D01*
Y5041D01*
X3323D01*
Y5049D01*
X3319D01*
Y5053D01*
X3311D01*
Y5049D01*
X3307D01*
Y5041D01*
X3311D01*
X4675Y5050D02*
Y5046D01*
X4683D01*
Y5050D01*
X4687D01*
Y5058D01*
X4683D01*
Y5062D01*
X4675D01*
Y5058D01*
X4671D01*
Y5050D01*
X4675D01*
X2366Y5026D02*
Y5022D01*
X2374D01*
Y5026D01*
X2378D01*
Y5034D01*
X2374D01*
Y5038D01*
X2366D01*
Y5034D01*
X2362D01*
Y5026D01*
X2366D01*
X565Y4727D02*
X557Y4743D01*
X573D01*
X565Y4727D01*
X4705Y4577D02*
X4697Y4593D01*
X4713D01*
X4705Y4577D01*
X568Y4872D02*
X561Y4889D01*
X576D01*
X568Y4872D01*
X2770Y5082D02*
X2762Y5098D01*
X2778D01*
X2770Y5082D01*
X2560Y4942D02*
X2552Y4958D01*
X2568D01*
X2560Y4942D01*
X4255Y4887D02*
X4247Y4903D01*
X4263D01*
X4255Y4887D01*
X3090Y4777D02*
X3082Y4793D01*
X3098D01*
X3090Y4777D01*
X2750D02*
X2742Y4793D01*
X2758D01*
X2750Y4777D01*
X2820Y4802D02*
X2812Y4818D01*
X2828D01*
X2820Y4802D01*
X2560Y4762D02*
X2552Y4778D01*
X2568D01*
X2560Y4762D01*
X1972Y5273D02*
X1964Y5289D01*
X1980D01*
X1972Y5273D01*
X496Y5014D02*
X500D01*
X504Y5018D01*
X508Y5014D01*
X512D01*
Y5018D01*
X508Y5022D01*
X512Y5026D01*
Y5030D01*
X508D01*
X504Y5026D01*
X500Y5030D01*
X496D01*
Y5026D01*
X500Y5022D01*
X496Y5018D01*
Y5014D01*
X875Y5024D02*
X867Y5040D01*
X883D01*
X875Y5024D01*
X878Y4974D02*
X870Y4990D01*
X886D01*
X878Y4974D01*
X1325Y4718D02*
X1317Y4734D01*
X1333D01*
X1325Y4718D01*
X1116Y4691D02*
X1108Y4707D01*
X1124D01*
X1116Y4691D01*
X1687Y5096D02*
X1679Y5112D01*
X1695D01*
X1687Y5096D01*
X422Y4725D02*
X414Y4741D01*
X430D01*
X422Y4725D01*
X2008Y5473D02*
X2000Y5489D01*
X2016D01*
X2008Y5473D01*
X915Y5309D02*
X907Y5325D01*
X923D01*
X915Y5309D01*
X1747Y4693D02*
X1739Y4709D01*
X1755D01*
X1747Y4693D01*
X1141Y4670D02*
X1133Y4686D01*
X1149D01*
X1141Y4670D01*
X1218Y4715D02*
X1210Y4731D01*
X1226D01*
X1218Y4715D01*
X1626Y5515D02*
X1618Y5531D01*
X1634D01*
X1626Y5515D01*
X1387Y4779D02*
X1379Y4795D01*
X1395D01*
X1387Y4779D01*
X867Y5058D02*
X859Y5074D01*
X875D01*
X867Y5058D01*
X1528Y5150D02*
X1520Y5166D01*
X1536D01*
X1528Y5150D01*
X1511Y5301D02*
X1503Y5317D01*
X1519D01*
X1511Y5301D01*
X836Y5277D02*
X828Y5293D01*
X844D01*
X836Y5277D01*
D133*
X2058Y4775D02*
G03*
X2058Y4775I-8J0D01*
G01*
Y4575D02*
G03*
X2058Y4575I-8J0D01*
G01*
Y4675D02*
G03*
X2058Y4675I-8J0D01*
G01*
X1748Y4575D02*
G03*
X1748Y4575I-8J0D01*
G01*
X1948D02*
G03*
X1948Y4575I-8J0D01*
G01*
X1848D02*
G03*
X1848Y4575I-8J0D01*
G01*
X2058Y4895D02*
G03*
X2058Y4895I-8J0D01*
G01*
Y4995D02*
G03*
X2058Y4995I-8J0D01*
G01*
X3688Y5040D02*
G03*
X3688Y5040I-8J0D01*
G01*
X3788D02*
G03*
X3788Y5040I-8J0D01*
G01*
X3588D02*
G03*
X3588Y5040I-8J0D01*
G01*
X1638Y4575D02*
G03*
X1638Y4575I-8J0D01*
G01*
X1438D02*
G03*
X1438Y4575I-8J0D01*
G01*
X1538D02*
G03*
X1538Y4575I-8J0D01*
G01*
X4403Y5080D02*
G03*
X4403Y5080I-8J0D01*
G01*
X4203D02*
G03*
X4203Y5080I-8J0D01*
G01*
X4303D02*
G03*
X4303Y5080I-8J0D01*
G01*
X2162Y4659D02*
G03*
X2162Y4659I-8J0D01*
G01*
Y4738D02*
G03*
X2162Y4738I-8J0D01*
G01*
Y4580D02*
G03*
X2162Y4580I-8J0D01*
G01*
Y4816D02*
G03*
X2162Y4816I-8J0D01*
G01*
X2164Y5077D02*
G03*
X2164Y5077I-8J0D01*
G01*
Y4998D02*
G03*
X2164Y4998I-8J0D01*
G01*
Y5156D02*
G03*
X2164Y5156I-8J0D01*
G01*
Y4920D02*
G03*
X2164Y4920I-8J0D01*
G01*
Y5234D02*
G03*
X2164Y5234I-8J0D01*
G01*
X2691Y4575D02*
G03*
X2691Y4575I-8J0D01*
G01*
X3005D02*
G03*
X3005Y4575I-8J0D01*
G01*
X2769D02*
G03*
X2769Y4575I-8J0D01*
G01*
X2927D02*
G03*
X2927Y4575I-8J0D01*
G01*
X2848D02*
G03*
X2848Y4575I-8J0D01*
G01*
X2058Y5226D02*
G03*
X2058Y5226I-8J0D01*
G01*
Y5147D02*
G03*
X2058Y5147I-8J0D01*
G01*
M02*
