G04 Layer_Color=128*
%FSLAX23Y23*%
%MOIN*%
G70*
G01*
G75*
%ADD37C,0.006*%
%ADD38C,0.010*%
%ADD132C,0.002*%
D37*
X369Y4498D02*
Y5568D01*
X2240Y4838D02*
Y5113D01*
Y4838D02*
X2270D01*
Y5113D01*
X2240D02*
X2270D01*
X2240Y4548D02*
Y4788D01*
Y4548D02*
X2270D01*
Y4788D01*
X2240D02*
X2270D01*
X369Y5568D02*
X2243D01*
Y5165D02*
Y5568D01*
D38*
X369Y4498D02*
X3998D01*
X3135Y4785D02*
X3185D01*
Y4545D02*
Y4785D01*
X3135Y4545D02*
X3185D01*
X3135D02*
Y4785D01*
Y5090D02*
X3185D01*
Y4850D02*
Y5090D01*
X3135Y4850D02*
X3185D01*
X3135D02*
Y5090D01*
X4785Y4498D02*
Y4780D01*
X3998Y4498D02*
X4785D01*
X4015Y4840D02*
Y5080D01*
Y4840D02*
X4065D01*
Y5080D01*
X4015D02*
X4065D01*
X4015Y4535D02*
Y4775D01*
Y4535D02*
X4065D01*
Y4775D01*
X4015D02*
X4065D01*
X2243Y5165D02*
X4785D01*
Y4780D02*
Y5165D01*
D132*
X614Y5462D02*
X651D01*
X633Y5443D02*
Y5481D01*
X693Y5462D02*
X730D01*
X711Y5443D02*
Y5481D01*
X771Y5462D02*
X809D01*
X790Y5443D02*
Y5481D01*
X850Y5462D02*
X888D01*
X869Y5443D02*
Y5481D01*
X929Y5462D02*
X966D01*
X948Y5443D02*
Y5481D01*
X1008Y5462D02*
X1045D01*
X1026Y5443D02*
Y5481D01*
X1086Y5462D02*
X1124D01*
X1105Y5443D02*
Y5481D01*
X1165Y5462D02*
X1203D01*
X1184Y5443D02*
Y5481D01*
X1244Y5462D02*
X1281D01*
X1263Y5443D02*
Y5481D01*
X1323Y5462D02*
X1360D01*
X1341Y5443D02*
Y5481D01*
X1323Y4596D02*
X1360D01*
X1341Y4577D02*
Y4615D01*
X1244Y4596D02*
X1281D01*
X1263Y4577D02*
Y4615D01*
X1165Y4596D02*
X1203D01*
X1184Y4577D02*
Y4615D01*
X1086Y4596D02*
X1124D01*
X1105Y4577D02*
Y4615D01*
X1008Y4596D02*
X1045D01*
X1026Y4577D02*
Y4615D01*
X929Y4596D02*
X966D01*
X948Y4577D02*
Y4615D01*
X850Y4596D02*
X888D01*
X869Y4577D02*
Y4615D01*
X771Y4596D02*
X809D01*
X790Y4577D02*
Y4615D01*
X693Y4596D02*
X730D01*
X711Y4577D02*
Y4615D01*
X614Y4596D02*
X651D01*
X633Y4577D02*
Y4615D01*
X2035Y4775D02*
X2065D01*
X2050Y4760D02*
Y4790D01*
X2035Y4575D02*
X2065D01*
X2050Y4560D02*
Y4590D01*
X2035Y4675D02*
X2065D01*
X2050Y4660D02*
Y4690D01*
X1725Y4575D02*
X1755D01*
X1740Y4560D02*
Y4590D01*
X1925Y4575D02*
X1955D01*
X1940Y4560D02*
Y4590D01*
X1825Y4575D02*
X1855D01*
X1840Y4560D02*
Y4590D01*
X2035Y4895D02*
X2065D01*
X2050Y4880D02*
Y4910D01*
X2035Y4995D02*
X2065D01*
X2050Y4980D02*
Y5010D01*
X3665Y5040D02*
X3695D01*
X3680Y5025D02*
Y5055D01*
X3765Y5040D02*
X3795D01*
X3780Y5025D02*
Y5055D01*
X3565Y5040D02*
X3595D01*
X3580Y5025D02*
Y5055D01*
X1615Y4575D02*
X1645D01*
X1630Y4560D02*
Y4590D01*
X1415Y4575D02*
X1445D01*
X1430Y4560D02*
Y4590D01*
X1515Y4575D02*
X1545D01*
X1530Y4560D02*
Y4590D01*
X4380Y5080D02*
X4410D01*
X4395Y5065D02*
Y5095D01*
X4180Y5080D02*
X4210D01*
X4195Y5065D02*
Y5095D01*
X4280Y5080D02*
X4310D01*
X4295Y5065D02*
Y5095D01*
X2139Y4659D02*
X2169D01*
X2154Y4644D02*
Y4674D01*
X2139Y4738D02*
X2169D01*
X2154Y4723D02*
Y4753D01*
X2139Y4580D02*
X2169D01*
X2154Y4565D02*
Y4595D01*
X2139Y4816D02*
X2169D01*
X2154Y4801D02*
Y4831D01*
X2141Y5077D02*
X2171D01*
X2156Y5062D02*
Y5092D01*
X2141Y4998D02*
X2171D01*
X2156Y4983D02*
Y5013D01*
X2141Y5156D02*
X2171D01*
X2156Y5141D02*
Y5171D01*
X2141Y4920D02*
X2171D01*
X2156Y4905D02*
Y4935D01*
X2141Y5234D02*
X2171D01*
X2156Y5219D02*
Y5249D01*
X2668Y4575D02*
X2698D01*
X2683Y4560D02*
Y4590D01*
X2982Y4575D02*
X3012D01*
X2997Y4560D02*
Y4590D01*
X2746Y4575D02*
X2776D01*
X2761Y4560D02*
Y4590D01*
X2904Y4575D02*
X2934D01*
X2919Y4560D02*
Y4590D01*
X2825Y4575D02*
X2855D01*
X2840Y4560D02*
Y4590D01*
X2035Y5226D02*
X2065D01*
X2050Y5211D02*
Y5241D01*
X2035Y5147D02*
X2065D01*
X2050Y5132D02*
Y5162D01*
X905Y4557D02*
X917D01*
X911Y4551D02*
Y4563D01*
X2204Y4548D02*
X2216D01*
X2210Y4542D02*
Y4554D01*
X2320Y4797D02*
X2332D01*
X2326Y4791D02*
Y4803D01*
X726Y5189D02*
X738D01*
X732Y5183D02*
Y5195D01*
X982Y5421D02*
X994D01*
X988Y5415D02*
Y5427D01*
X1117Y5086D02*
X1129D01*
X1123Y5080D02*
Y5092D01*
X1808Y5102D02*
X1820D01*
X1814Y5096D02*
Y5108D01*
X412Y5249D02*
X424D01*
X418Y5243D02*
Y5255D01*
X708Y5280D02*
X720D01*
X714Y5274D02*
Y5286D01*
X661Y5194D02*
X673D01*
X667Y5188D02*
Y5200D01*
X1536Y4714D02*
X1548D01*
X1542Y4708D02*
Y4720D01*
X988Y5340D02*
X1000D01*
X994Y5334D02*
Y5346D01*
X1262Y5352D02*
X1274D01*
X1268Y5346D02*
Y5358D01*
X1347Y5373D02*
X1359D01*
X1353Y5367D02*
Y5379D01*
X1289Y5382D02*
X1301D01*
X1295Y5376D02*
Y5388D01*
X2841Y4705D02*
X2853D01*
X2847Y4699D02*
Y4711D01*
X1436Y5269D02*
X1448D01*
X1442Y5263D02*
Y5275D01*
X1529Y4874D02*
X1541D01*
X1535Y4868D02*
Y4880D01*
X547Y4696D02*
X559D01*
X553Y4690D02*
Y4702D01*
X1205Y4653D02*
X1217D01*
X1211Y4647D02*
Y4659D01*
X1429Y5236D02*
X1441D01*
X1435Y5230D02*
Y5242D01*
X1537Y4783D02*
X1549D01*
X1543Y4777D02*
Y4789D01*
X1766Y5525D02*
X1778D01*
X1772Y5519D02*
Y5531D01*
X505Y5147D02*
X517D01*
X511Y5141D02*
Y5153D01*
X1015Y4840D02*
X1027D01*
X1021Y4834D02*
Y4846D01*
X862Y4851D02*
X874D01*
X868Y4845D02*
Y4857D01*
X1022Y5027D02*
X1034D01*
X1028Y5021D02*
Y5033D01*
X574Y4640D02*
X586D01*
X580Y4634D02*
Y4646D01*
X625Y4880D02*
X637D01*
X631Y4874D02*
Y4886D01*
X2933Y4993D02*
X2945D01*
X2939Y4987D02*
Y4999D01*
X1284Y4720D02*
X1296D01*
X1290Y4714D02*
Y4726D01*
X1293Y4754D02*
X1305D01*
X1299Y4748D02*
Y4760D01*
X1382Y4662D02*
X1394D01*
X1388Y4656D02*
Y4668D01*
X1214Y5350D02*
X1226D01*
X1220Y5344D02*
Y5356D01*
X1170Y5368D02*
X1182D01*
X1176Y5362D02*
Y5374D01*
X1225Y5383D02*
X1237D01*
X1232Y5377D02*
Y5389D01*
X1291Y5500D02*
X1303D01*
X1297Y5494D02*
Y5506D01*
X1269Y5287D02*
X1281D01*
X1275Y5281D02*
Y5293D01*
X1434Y5102D02*
X1446D01*
X1440Y5096D02*
Y5108D01*
X1341Y4687D02*
X1353D01*
X1347Y4681D02*
Y4693D01*
X1009Y4899D02*
X1021D01*
X1015Y4893D02*
Y4905D01*
X3663Y4874D02*
X3683D01*
X3673Y4864D02*
Y4884D01*
X3083Y4948D02*
X3095D01*
X3089Y4942D02*
Y4954D01*
X2810Y4910D02*
X2830D01*
X2820Y4900D02*
Y4920D01*
X982Y4834D02*
X994D01*
X988Y4828D02*
Y4840D01*
X1305Y4803D02*
X1317D01*
X1311Y4797D02*
Y4809D01*
X442Y4903D02*
X454D01*
X448Y4897D02*
Y4909D01*
X411Y5288D02*
X423D01*
X417Y5282D02*
Y5294D01*
X1395Y5000D02*
X1407D01*
X1401Y4994D02*
Y5006D01*
X664Y5338D02*
X676D01*
X670Y5332D02*
Y5344D01*
X1610Y5370D02*
X1622D01*
X1616Y5364D02*
Y5376D01*
X1716Y5256D02*
X1728D01*
X1722Y5250D02*
Y5262D01*
X3092Y4717D02*
X3104D01*
X3098Y4711D02*
Y4723D01*
X1433Y5331D02*
X1445D01*
X1439Y5325D02*
Y5337D01*
X1121Y5414D02*
X1133D01*
X1127Y5408D02*
Y5420D01*
X1395Y5036D02*
X1407D01*
X1401Y5030D02*
Y5042D01*
X1385Y5496D02*
X1397D01*
X1391Y5490D02*
Y5502D01*
X702Y4873D02*
X714D01*
X708Y4867D02*
Y4879D01*
X714Y5219D02*
X726D01*
X720Y5213D02*
Y5225D01*
X1128Y5038D02*
X1140D01*
X1134Y5032D02*
Y5044D01*
X1173Y5052D02*
X1185D01*
X1179Y5046D02*
Y5058D01*
X1197Y5028D02*
X1209D01*
X1203Y5022D02*
Y5034D01*
X1197Y4930D02*
X1209D01*
X1203Y4924D02*
Y4936D01*
X893Y4863D02*
X905D01*
X899Y4857D02*
Y4869D01*
X936Y4891D02*
X948D01*
X942Y4885D02*
Y4897D01*
X1012Y5172D02*
X1024D01*
X1018Y5166D02*
Y5178D01*
X809Y4721D02*
X821D01*
X815Y4715D02*
Y4727D01*
X845Y5386D02*
X857D01*
X851Y5380D02*
Y5392D01*
X1079Y5520D02*
X1091D01*
X1085Y5514D02*
Y5526D01*
X1047Y5164D02*
X1059D01*
X1053Y5158D02*
Y5170D01*
X1080Y5148D02*
X1092D01*
X1086Y5142D02*
Y5154D01*
X715Y5328D02*
X727D01*
X721Y5322D02*
Y5334D01*
X942Y5314D02*
X954D01*
X948Y5308D02*
Y5320D01*
X866Y4888D02*
X878D01*
X872Y4882D02*
Y4894D01*
X930Y4853D02*
X942D01*
X936Y4847D02*
Y4859D01*
X874Y4946D02*
X886D01*
X880Y4940D02*
Y4952D01*
X849Y5122D02*
X861D01*
X855Y5116D02*
Y5128D01*
X886Y5103D02*
X898D01*
X892Y5097D02*
Y5109D01*
X1861Y5106D02*
X1873D01*
X1867Y5100D02*
Y5112D01*
X1891Y4817D02*
X1903D01*
X1897Y4811D02*
Y4823D01*
X1198Y4985D02*
X1210D01*
X1204Y4979D02*
Y4991D01*
X1384Y4960D02*
X1396D01*
X1390Y4954D02*
Y4966D01*
X1732Y4955D02*
X1744D01*
X1738Y4949D02*
Y4961D01*
X1810Y4957D02*
X1822D01*
X1816Y4951D02*
Y4963D01*
X1158Y5090D02*
X1170D01*
X1164Y5084D02*
Y5096D01*
X1190Y5093D02*
X1202D01*
X1196Y5087D02*
Y5099D01*
X1678Y4810D02*
X1692D01*
X1685Y4803D02*
Y4817D01*
X872Y5136D02*
X884D01*
X878Y5130D02*
Y5142D01*
X1346Y4801D02*
X1358D01*
X1352Y4795D02*
Y4807D01*
X1382Y4892D02*
X1394D01*
X1388Y4886D02*
Y4898D01*
X1340Y4913D02*
X1352D01*
X1346Y4907D02*
Y4919D01*
X1250Y4724D02*
X1262D01*
X1256Y4718D02*
Y4730D01*
X871Y4660D02*
X883D01*
X877Y4654D02*
Y4666D01*
X1054Y4675D02*
X1066D01*
X1060Y4669D02*
Y4681D01*
X908Y4669D02*
X920D01*
X914Y4663D02*
Y4675D01*
X815Y4759D02*
X827D01*
X821Y4753D02*
Y4765D01*
X433Y5178D02*
X445D01*
X439Y5172D02*
Y5184D01*
X594Y5126D02*
X606D01*
X600Y5120D02*
Y5132D01*
X566Y5168D02*
X578D01*
X572Y5162D02*
Y5174D01*
X622Y5345D02*
X634D01*
X628Y5339D02*
Y5351D01*
X414Y5209D02*
X426D01*
X420Y5203D02*
Y5215D01*
X415Y5128D02*
X427D01*
X421Y5122D02*
Y5134D01*
X1607Y5260D02*
X1619D01*
X1613Y5254D02*
Y5266D01*
X416Y4872D02*
X428D01*
X422Y4866D02*
Y4878D01*
X584Y4918D02*
X596D01*
X590Y4912D02*
Y4924D01*
X1160Y4983D02*
X1172D01*
X1166Y4977D02*
Y4989D01*
X1154Y4947D02*
X1166D01*
X1160Y4941D02*
Y4953D01*
X470Y5157D02*
X482D01*
X476Y5151D02*
Y5163D01*
X581Y4678D02*
X593D01*
X587Y4672D02*
Y4684D01*
X1178Y4881D02*
X1190D01*
X1184Y4875D02*
Y4887D01*
X1164Y4664D02*
X1176D01*
X1170Y4658D02*
Y4670D01*
X1011Y4660D02*
X1023D01*
X1017Y4654D02*
Y4666D01*
X1494Y5003D02*
X1506D01*
X1500Y4997D02*
Y5009D01*
X1250Y4667D02*
X1262D01*
X1256Y4661D02*
Y4673D01*
X435Y4606D02*
X513D01*
X474Y4567D02*
Y4645D01*
X435Y5449D02*
X513D01*
X474Y5410D02*
Y5488D01*
X2082Y5449D02*
X2160D01*
X2121Y5410D02*
Y5488D01*
X3276Y5045D02*
X3354D01*
X3315Y5006D02*
Y5084D01*
X4640Y5054D02*
X4718D01*
X4679Y5015D02*
Y5093D01*
X2331Y5030D02*
X2409D01*
X2370Y4991D02*
Y5069D01*
X559Y4735D02*
X571D01*
X565Y4729D02*
Y4741D01*
X4699Y4585D02*
X4711D01*
X4705Y4579D02*
Y4591D01*
X562Y4880D02*
X575D01*
X568Y4874D02*
Y4886D01*
X2764Y5090D02*
X2776D01*
X2770Y5084D02*
Y5096D01*
X2554Y4950D02*
X2566D01*
X2560Y4944D02*
Y4956D01*
X4249Y4895D02*
X4261D01*
X4255Y4889D02*
Y4901D01*
X3084Y4785D02*
X3096D01*
X3090Y4779D02*
Y4791D01*
X2744Y4785D02*
X2756D01*
X2750Y4779D02*
Y4791D01*
X2814Y4810D02*
X2826D01*
X2820Y4804D02*
Y4816D01*
X2554Y4770D02*
X2566D01*
X2560Y4764D02*
Y4776D01*
X1966Y5281D02*
X1978D01*
X1972Y5275D02*
Y5287D01*
X490Y5022D02*
X518D01*
X504Y5008D02*
Y5036D01*
X869Y5032D02*
X881D01*
X875Y5026D02*
Y5038D01*
X872Y4982D02*
X884D01*
X878Y4976D02*
Y4988D01*
X1319Y4726D02*
X1331D01*
X1325Y4720D02*
Y4732D01*
X1110Y4699D02*
X1122D01*
X1116Y4693D02*
Y4705D01*
X1681Y5104D02*
X1693D01*
X1687Y5098D02*
Y5110D01*
X416Y4733D02*
X428D01*
X422Y4727D02*
Y4739D01*
X2002Y5481D02*
X2014D01*
X2008Y5475D02*
Y5487D01*
X909Y5317D02*
X921D01*
X915Y5311D02*
Y5323D01*
X1741Y4701D02*
X1753D01*
X1747Y4695D02*
Y4707D01*
X1135Y4678D02*
X1147D01*
X1141Y4672D02*
Y4684D01*
X1212Y4723D02*
X1224D01*
X1218Y4717D02*
Y4729D01*
X1620Y5523D02*
X1632D01*
X1626Y5517D02*
Y5529D01*
X1381Y4787D02*
X1393D01*
X1387Y4781D02*
Y4793D01*
X861Y5066D02*
X873D01*
X867Y5060D02*
Y5072D01*
X1522Y5158D02*
X1534D01*
X1528Y5152D02*
Y5164D01*
X1505Y5309D02*
X1517D01*
X1511Y5303D02*
Y5315D01*
X830Y5285D02*
X842D01*
X836Y5279D02*
Y5291D01*
M02*
