G04 Layer_Physical_Order=3*
G04 Layer_Color=16440176*
%FSLAX23Y23*%
%MOIN*%
G70*
G01*
G75*
%ADD37C,0.006*%
%ADD38C,0.010*%
%ADD59C,0.060*%
%ADD62C,0.050*%
%ADD65C,0.020*%
G36*
X2215Y5516D02*
X2215Y5185D01*
X2215Y5013D01*
X2211Y5009D01*
X2187D01*
X2185Y5015D01*
X2180Y5022D01*
X2173Y5027D01*
X2165Y5030D01*
X2156Y5032D01*
X2147Y5030D01*
X2139Y5027D01*
X2132Y5022D01*
X2127Y5015D01*
X2125Y5009D01*
X2088D01*
Y5033D01*
X2012D01*
Y5009D01*
X1517D01*
X1517Y5010D01*
X1513Y5016D01*
X1507Y5020D01*
X1500Y5021D01*
X1493Y5020D01*
X1487Y5016D01*
X1483Y5010D01*
X1483Y5009D01*
X1442D01*
Y4613D01*
X1392D01*
Y4537D01*
X1442D01*
Y4525D01*
X840D01*
Y4566D01*
X845Y4569D01*
X851Y4564D01*
X859Y4561D01*
X869Y4559D01*
X878Y4561D01*
X887Y4564D01*
X895Y4570D01*
X900Y4578D01*
X904Y4586D01*
X905Y4596D01*
X904Y4605D01*
X900Y4614D01*
X895Y4622D01*
X887Y4628D01*
X878Y4631D01*
X869Y4632D01*
X859Y4631D01*
X851Y4628D01*
X845Y4623D01*
X840Y4626D01*
Y5104D01*
X845Y5107D01*
X848Y5105D01*
X855Y5104D01*
X862Y5105D01*
X868Y5109D01*
X872Y5115D01*
X873Y5122D01*
X872Y5129D01*
X868Y5135D01*
X862Y5139D01*
X855Y5140D01*
X848Y5139D01*
X845Y5137D01*
X840Y5140D01*
Y5267D01*
X843Y5268D01*
X849Y5272D01*
X853Y5278D01*
X854Y5285D01*
X853Y5292D01*
X849Y5298D01*
X843Y5302D01*
X840Y5303D01*
Y5366D01*
X845Y5369D01*
X851Y5368D01*
X858Y5369D01*
X864Y5373D01*
X868Y5379D01*
X869Y5386D01*
X868Y5393D01*
X864Y5399D01*
X858Y5403D01*
X851Y5404D01*
X845Y5403D01*
X840Y5406D01*
Y5432D01*
X845Y5435D01*
X851Y5430D01*
X859Y5427D01*
X869Y5426D01*
X878Y5427D01*
X887Y5430D01*
X895Y5436D01*
X900Y5444D01*
X904Y5453D01*
X905Y5462D01*
X904Y5472D01*
X900Y5480D01*
X895Y5488D01*
X887Y5494D01*
X878Y5497D01*
X869Y5499D01*
X859Y5497D01*
X851Y5494D01*
X845Y5489D01*
X840Y5492D01*
Y5520D01*
X1067Y5520D01*
X1067Y5520D01*
X1068Y5513D01*
X1072Y5507D01*
X1078Y5503D01*
X1085Y5502D01*
X1092Y5503D01*
X1098Y5507D01*
X1102Y5513D01*
X1103Y5520D01*
X1103Y5520D01*
X1286Y5520D01*
X1287Y5515D01*
X1284Y5513D01*
X1280Y5507D01*
X1279Y5500D01*
X1279Y5499D01*
X1275Y5496D01*
X1272Y5497D01*
X1263Y5499D01*
X1253Y5497D01*
X1244Y5494D01*
X1237Y5488D01*
X1231Y5480D01*
X1227Y5472D01*
X1226Y5462D01*
X1227Y5453D01*
X1231Y5444D01*
X1237Y5436D01*
X1244Y5430D01*
X1253Y5427D01*
X1263Y5426D01*
X1272Y5427D01*
X1281Y5430D01*
X1288Y5436D01*
X1294Y5444D01*
X1298Y5453D01*
X1299Y5462D01*
X1298Y5472D01*
X1296Y5477D01*
X1296Y5478D01*
X1299Y5482D01*
X1304Y5483D01*
X1307Y5485D01*
X1311Y5481D01*
X1310Y5480D01*
X1306Y5472D01*
X1305Y5462D01*
X1306Y5453D01*
X1310Y5444D01*
X1316Y5436D01*
X1323Y5430D01*
X1332Y5427D01*
X1341Y5426D01*
X1351Y5427D01*
X1360Y5430D01*
X1367Y5436D01*
X1373Y5444D01*
X1377Y5453D01*
X1378Y5462D01*
X1377Y5472D01*
X1373Y5480D01*
X1367Y5488D01*
X1360Y5494D01*
X1351Y5497D01*
X1341Y5499D01*
X1332Y5497D01*
X1323Y5494D01*
X1318Y5489D01*
X1314Y5493D01*
X1314Y5493D01*
X1315Y5500D01*
X1314Y5507D01*
X1310Y5513D01*
X1307Y5515D01*
X1308Y5520D01*
X1608Y5520D01*
X1609Y5516D01*
X1613Y5510D01*
X1619Y5506D01*
X1626Y5505D01*
X1633Y5506D01*
X1639Y5510D01*
X1643Y5516D01*
X1644Y5520D01*
X1753D01*
X1753Y5517D01*
X1758Y5511D01*
X1764Y5506D01*
X1772Y5505D01*
X1780Y5506D01*
X1786Y5511D01*
X1791Y5517D01*
X1791Y5520D01*
X2063Y5520D01*
X2065Y5515D01*
X2059Y5511D01*
X2049Y5497D01*
X2040Y5482D01*
X2036Y5466D01*
X2034Y5449D01*
X2036Y5432D01*
X2040Y5416D01*
X2049Y5401D01*
X2059Y5387D01*
X2073Y5377D01*
X2088Y5368D01*
X2104Y5364D01*
X2121Y5362D01*
X2138Y5364D01*
X2154Y5368D01*
X2169Y5377D01*
X2183Y5387D01*
X2193Y5401D01*
X2202Y5416D01*
X2206Y5432D01*
X2208Y5449D01*
X2206Y5466D01*
X2202Y5482D01*
X2193Y5497D01*
X2183Y5511D01*
X2177Y5515D01*
X2179Y5520D01*
X2211D01*
X2215Y5516D01*
D02*
G37*
G36*
X836Y5531D02*
X836Y5527D01*
X834Y5526D01*
X833Y5523D01*
X832Y5520D01*
Y5492D01*
X832Y5491D01*
X832Y5489D01*
X833Y5489D01*
X833Y5489D01*
X833Y5488D01*
X834Y5487D01*
X834Y5486D01*
X834Y5486D01*
X835Y5486D01*
X836Y5485D01*
X837Y5480D01*
X834Y5472D01*
X832Y5462D01*
X834Y5453D01*
X837Y5444D01*
X836Y5439D01*
X835Y5438D01*
X834Y5438D01*
X834Y5438D01*
X834Y5438D01*
X833Y5436D01*
X833Y5435D01*
X833Y5435D01*
X832Y5435D01*
X832Y5434D01*
X832Y5432D01*
Y5406D01*
X832Y5405D01*
X832Y5404D01*
X833Y5403D01*
X833Y5403D01*
X833Y5402D01*
X834Y5401D01*
X834Y5401D01*
X834Y5400D01*
X835Y5395D01*
X834Y5393D01*
X833Y5386D01*
X834Y5379D01*
X835Y5377D01*
X834Y5372D01*
X834Y5371D01*
X834Y5371D01*
X833Y5370D01*
X833Y5369D01*
X833Y5369D01*
X832Y5368D01*
X832Y5367D01*
X832Y5366D01*
Y5303D01*
X829Y5302D01*
X823Y5298D01*
X819Y5292D01*
X818Y5285D01*
X819Y5278D01*
X823Y5272D01*
X829Y5268D01*
X832Y5267D01*
Y5140D01*
X832Y5139D01*
X832Y5137D01*
X833Y5137D01*
X833Y5137D01*
X833Y5136D01*
X834Y5135D01*
X834Y5134D01*
X834Y5134D01*
X835Y5134D01*
X838Y5131D01*
X838Y5129D01*
X837Y5122D01*
X838Y5115D01*
X838Y5113D01*
X835Y5110D01*
X834Y5110D01*
X834Y5110D01*
X834Y5109D01*
X833Y5108D01*
X833Y5107D01*
X833Y5107D01*
X832Y5107D01*
X832Y5105D01*
X832Y5104D01*
Y4737D01*
X830Y4736D01*
X827Y4735D01*
X822Y4738D01*
X815Y4739D01*
X808Y4738D01*
X802Y4734D01*
X798Y4728D01*
X797Y4721D01*
X798Y4714D01*
X802Y4708D01*
X808Y4704D01*
X815Y4703D01*
X822Y4704D01*
X827Y4707D01*
X830Y4706D01*
X832Y4705D01*
Y4626D01*
X832Y4624D01*
X832Y4623D01*
X833Y4623D01*
X833Y4623D01*
X833Y4622D01*
X834Y4620D01*
X834Y4620D01*
X834Y4620D01*
X835Y4620D01*
X836Y4619D01*
X837Y4614D01*
X834Y4605D01*
X832Y4596D01*
X834Y4586D01*
X837Y4578D01*
X836Y4573D01*
X835Y4572D01*
X834Y4572D01*
X834Y4572D01*
X834Y4571D01*
X833Y4570D01*
X833Y4569D01*
X833Y4569D01*
X832Y4569D01*
X832Y4567D01*
X832Y4566D01*
Y4525D01*
X518D01*
X517Y4530D01*
X522Y4534D01*
X536Y4544D01*
X546Y4558D01*
X555Y4573D01*
X559Y4589D01*
X561Y4606D01*
X559Y4623D01*
X555Y4639D01*
X546Y4654D01*
X536Y4668D01*
X522Y4678D01*
X507Y4687D01*
X491Y4691D01*
X474Y4693D01*
X457Y4691D01*
X441Y4687D01*
X426Y4678D01*
X412Y4668D01*
X402Y4654D01*
X400Y4651D01*
X395Y4653D01*
X395Y5247D01*
X400Y5247D01*
X401Y5242D01*
X405Y5236D01*
X411Y5232D01*
X414Y5231D01*
Y5226D01*
X413Y5226D01*
X407Y5222D01*
X403Y5216D01*
X402Y5209D01*
X403Y5202D01*
X407Y5196D01*
X413Y5192D01*
X420Y5191D01*
X427Y5192D01*
X433Y5196D01*
X437Y5202D01*
X438Y5209D01*
X437Y5216D01*
X433Y5222D01*
X427Y5226D01*
X424Y5227D01*
Y5232D01*
X425Y5232D01*
X431Y5236D01*
X435Y5242D01*
X436Y5249D01*
X435Y5256D01*
X431Y5262D01*
X425Y5266D01*
X424Y5266D01*
Y5271D01*
X424Y5271D01*
X430Y5275D01*
X434Y5281D01*
X436Y5288D01*
X434Y5295D01*
X430Y5301D01*
X424Y5305D01*
X417Y5307D01*
X410Y5305D01*
X404Y5301D01*
X400Y5295D01*
X400Y5294D01*
X395Y5294D01*
X395Y5403D01*
X400Y5404D01*
X402Y5401D01*
X412Y5387D01*
X426Y5377D01*
X441Y5368D01*
X457Y5364D01*
X474Y5362D01*
X491Y5364D01*
X507Y5368D01*
X522Y5377D01*
X536Y5387D01*
X546Y5401D01*
X555Y5416D01*
X559Y5432D01*
X561Y5449D01*
X559Y5466D01*
X555Y5482D01*
X546Y5497D01*
X536Y5511D01*
X522Y5521D01*
X512Y5527D01*
X513Y5532D01*
X835D01*
X836Y5531D01*
D02*
G37*
G36*
X4770Y5070D02*
X4765Y5070D01*
X4764Y5071D01*
X4760Y5087D01*
X4751Y5102D01*
X4741Y5116D01*
X4727Y5126D01*
X4712Y5135D01*
X4696Y5139D01*
X4679Y5141D01*
X4662Y5139D01*
X4646Y5135D01*
X4631Y5126D01*
X4617Y5116D01*
X4607Y5102D01*
X4598Y5087D01*
X4594Y5071D01*
X4592Y5054D01*
X4594Y5037D01*
X4598Y5021D01*
X4607Y5006D01*
X4617Y4992D01*
X4631Y4982D01*
X4646Y4973D01*
X4662Y4969D01*
X4679Y4967D01*
X4696Y4969D01*
X4712Y4973D01*
X4727Y4982D01*
X4741Y4992D01*
X4751Y5006D01*
X4760Y5021D01*
X4764Y5037D01*
X4765Y5038D01*
X4770Y5038D01*
Y4525D01*
X4088D01*
X4084Y4530D01*
X4085Y4535D01*
Y4770D01*
X4084Y4778D01*
X4079Y4784D01*
X4073Y4789D01*
X4065Y4790D01*
X4015D01*
X4007Y4789D01*
X4001Y4784D01*
X3996Y4778D01*
X3995Y4770D01*
Y4535D01*
X3996Y4530D01*
X3992Y4525D01*
X3201D01*
X3199Y4530D01*
X3199Y4531D01*
X3204Y4537D01*
X3205Y4545D01*
Y4780D01*
X3204Y4788D01*
X3199Y4794D01*
X3193Y4799D01*
X3185Y4800D01*
X3165D01*
X3165Y4826D01*
X3169Y4830D01*
X3185D01*
X3193Y4831D01*
X3199Y4836D01*
X3204Y4842D01*
X3205Y4850D01*
Y5085D01*
X3204Y5093D01*
X3199Y5099D01*
X3193Y5104D01*
X3185Y5105D01*
X3163D01*
X3163Y5146D01*
X3166Y5150D01*
X4770D01*
Y5070D01*
D02*
G37*
G36*
X2212Y4996D02*
Y4856D01*
X2212Y4568D01*
X2210Y4566D01*
X2203Y4565D01*
X2197Y4561D01*
X2193Y4555D01*
X2192Y4548D01*
X2193Y4541D01*
X2197Y4535D01*
X2203Y4531D01*
X2206Y4530D01*
X2206Y4525D01*
X1450D01*
Y4537D01*
X1468D01*
Y4613D01*
X1450D01*
Y5001D01*
X1482D01*
X1483Y4996D01*
X1487Y4990D01*
X1493Y4986D01*
X1500Y4985D01*
X1507Y4986D01*
X1513Y4990D01*
X1517Y4996D01*
X1518Y5001D01*
X2012D01*
Y4957D01*
X2088D01*
Y5001D01*
X2120D01*
X2123Y4998D01*
X2124Y4990D01*
X2127Y4982D01*
X2132Y4975D01*
X2139Y4969D01*
X2147Y4966D01*
X2156Y4965D01*
X2165Y4966D01*
X2173Y4969D01*
X2180Y4975D01*
X2185Y4982D01*
X2188Y4990D01*
X2189Y4998D01*
X2192Y5001D01*
X2211D01*
X2212Y4996D01*
D02*
G37*
G36*
X3125Y5130D02*
Y5102D01*
X3121Y5099D01*
X3116Y5093D01*
X3115Y5085D01*
Y4850D01*
X3116Y4842D01*
X3121Y4836D01*
X3125Y4833D01*
Y4797D01*
X3121Y4794D01*
X3116Y4788D01*
X3115Y4780D01*
Y4733D01*
X3110Y4731D01*
X3105Y4734D01*
X3098Y4735D01*
X3091Y4734D01*
X3085Y4730D01*
X3081Y4724D01*
X3080Y4717D01*
X3081Y4710D01*
X3085Y4704D01*
X3091Y4700D01*
X3098Y4699D01*
X3105Y4700D01*
X3110Y4703D01*
X3115Y4701D01*
Y4545D01*
X3116Y4537D01*
X3121Y4531D01*
X3121Y4530D01*
X3119Y4525D01*
X2281D01*
X2280Y4530D01*
X2284Y4534D01*
X2289Y4540D01*
X2290Y4548D01*
Y4783D01*
X2289Y4791D01*
X2284Y4797D01*
X2278Y4802D01*
X2270Y4803D01*
X2253D01*
X2250Y4807D01*
X2250Y4818D01*
X2270D01*
X2278Y4819D01*
X2284Y4824D01*
X2289Y4830D01*
X2290Y4838D01*
Y4985D01*
X2295Y4986D01*
X2298Y4982D01*
X2308Y4968D01*
X2322Y4958D01*
X2337Y4949D01*
X2353Y4945D01*
X2370Y4943D01*
X2387Y4945D01*
X2403Y4949D01*
X2418Y4958D01*
X2432Y4968D01*
X2442Y4982D01*
X2451Y4997D01*
X2455Y5013D01*
X2457Y5030D01*
X2455Y5047D01*
X2451Y5063D01*
X2442Y5078D01*
X2432Y5092D01*
X2418Y5102D01*
X2403Y5111D01*
X2387Y5115D01*
X2370Y5117D01*
X2353Y5115D01*
X2337Y5111D01*
X2322Y5102D01*
X2308Y5092D01*
X2298Y5078D01*
X2295Y5074D01*
X2290Y5075D01*
Y5113D01*
X2289Y5121D01*
X2284Y5127D01*
X2278Y5132D01*
X2270Y5133D01*
X2258D01*
X2255Y5137D01*
X2255Y5150D01*
X3105D01*
X3125Y5130D01*
D02*
G37*
%LPC*%
G36*
X1391Y5514D02*
X1384Y5513D01*
X1378Y5509D01*
X1374Y5503D01*
X1373Y5496D01*
X1374Y5489D01*
X1378Y5483D01*
X1384Y5479D01*
X1391Y5478D01*
X1398Y5479D01*
X1404Y5483D01*
X1408Y5489D01*
X1409Y5496D01*
X1408Y5503D01*
X1404Y5509D01*
X1398Y5513D01*
X1391Y5514D01*
D02*
G37*
G36*
X2008Y5501D02*
X2000Y5500D01*
X1994Y5495D01*
X1989Y5489D01*
X1988Y5481D01*
X1989Y5473D01*
X1994Y5467D01*
X2000Y5462D01*
X2008Y5461D01*
X2016Y5462D01*
X2022Y5467D01*
X2027Y5473D01*
X2028Y5481D01*
X2027Y5489D01*
X2022Y5495D01*
X2016Y5500D01*
X2008Y5501D01*
D02*
G37*
G36*
X1026Y5499D02*
X1017Y5497D01*
X1008Y5494D01*
X1001Y5488D01*
X995Y5480D01*
X991Y5472D01*
X990Y5462D01*
X991Y5453D01*
X995Y5444D01*
X995Y5443D01*
X993Y5438D01*
X988Y5439D01*
X981Y5438D01*
X981Y5438D01*
X978Y5442D01*
X979Y5444D01*
X983Y5453D01*
X984Y5462D01*
X983Y5472D01*
X979Y5480D01*
X973Y5488D01*
X966Y5494D01*
X957Y5497D01*
X948Y5499D01*
X938Y5497D01*
X929Y5494D01*
X922Y5488D01*
X916Y5480D01*
X912Y5472D01*
X911Y5462D01*
X912Y5453D01*
X916Y5444D01*
X922Y5436D01*
X929Y5430D01*
X938Y5427D01*
X948Y5426D01*
X957Y5427D01*
X966Y5430D01*
X968Y5432D01*
X971Y5428D01*
X971Y5428D01*
X970Y5421D01*
X971Y5414D01*
X975Y5408D01*
X981Y5404D01*
X988Y5403D01*
X995Y5404D01*
X1001Y5408D01*
X1005Y5414D01*
X1006Y5421D01*
X1005Y5426D01*
X1006Y5428D01*
X1009Y5430D01*
X1009Y5430D01*
X1017Y5427D01*
X1026Y5426D01*
X1036Y5427D01*
X1045Y5430D01*
X1052Y5436D01*
X1058Y5444D01*
X1062Y5453D01*
X1063Y5462D01*
X1062Y5472D01*
X1058Y5480D01*
X1052Y5488D01*
X1045Y5494D01*
X1036Y5497D01*
X1026Y5499D01*
D02*
G37*
G36*
X1184D02*
X1174Y5497D01*
X1166Y5494D01*
X1158Y5488D01*
X1152Y5480D01*
X1149Y5472D01*
X1147Y5462D01*
X1149Y5453D01*
X1152Y5444D01*
X1158Y5436D01*
X1166Y5430D01*
X1174Y5427D01*
X1184Y5426D01*
X1193Y5427D01*
X1202Y5430D01*
X1210Y5436D01*
X1215Y5444D01*
X1219Y5453D01*
X1220Y5462D01*
X1219Y5472D01*
X1215Y5480D01*
X1210Y5488D01*
X1202Y5494D01*
X1193Y5497D01*
X1184Y5499D01*
D02*
G37*
G36*
X1105D02*
X1096Y5497D01*
X1087Y5494D01*
X1079Y5488D01*
X1074Y5480D01*
X1070Y5472D01*
X1069Y5462D01*
X1070Y5453D01*
X1074Y5444D01*
X1079Y5436D01*
X1087Y5430D01*
X1096Y5427D01*
X1105Y5426D01*
X1108Y5426D01*
X1111Y5422D01*
X1110Y5421D01*
X1109Y5414D01*
X1110Y5407D01*
X1114Y5401D01*
X1120Y5397D01*
X1127Y5396D01*
X1134Y5397D01*
X1140Y5401D01*
X1144Y5407D01*
X1145Y5414D01*
X1144Y5421D01*
X1140Y5427D01*
X1134Y5431D01*
X1133Y5431D01*
X1131Y5435D01*
X1131Y5437D01*
X1137Y5444D01*
X1140Y5453D01*
X1142Y5462D01*
X1140Y5472D01*
X1137Y5480D01*
X1131Y5488D01*
X1123Y5494D01*
X1115Y5497D01*
X1105Y5499D01*
D02*
G37*
G36*
X1295Y5400D02*
X1288Y5399D01*
X1282Y5395D01*
X1278Y5389D01*
X1277Y5382D01*
X1278Y5375D01*
X1280Y5371D01*
X1277Y5368D01*
X1275Y5369D01*
X1268Y5370D01*
X1261Y5369D01*
X1255Y5365D01*
X1251Y5359D01*
X1250Y5352D01*
X1251Y5345D01*
X1255Y5339D01*
X1261Y5335D01*
X1268Y5334D01*
X1275Y5335D01*
X1281Y5339D01*
X1285Y5345D01*
X1286Y5352D01*
X1285Y5359D01*
X1283Y5363D01*
X1286Y5366D01*
X1288Y5365D01*
X1295Y5364D01*
X1302Y5365D01*
X1308Y5369D01*
X1312Y5375D01*
X1313Y5382D01*
X1312Y5389D01*
X1308Y5395D01*
X1302Y5399D01*
X1295Y5400D01*
D02*
G37*
G36*
X1616Y5388D02*
X1609Y5387D01*
X1603Y5383D01*
X1599Y5377D01*
X1598Y5370D01*
X1599Y5363D01*
X1603Y5357D01*
X1609Y5353D01*
X1616Y5352D01*
X1623Y5353D01*
X1629Y5357D01*
X1633Y5363D01*
X1634Y5370D01*
X1633Y5377D01*
X1629Y5383D01*
X1623Y5387D01*
X1616Y5388D01*
D02*
G37*
G36*
X1176Y5386D02*
X1169Y5385D01*
X1163Y5381D01*
X1159Y5375D01*
X1158Y5368D01*
X1159Y5361D01*
X1163Y5355D01*
X1169Y5351D01*
X1176Y5350D01*
X1183Y5351D01*
X1189Y5355D01*
X1193Y5361D01*
X1194Y5368D01*
X1193Y5375D01*
X1189Y5381D01*
X1183Y5385D01*
X1176Y5386D01*
D02*
G37*
G36*
X1232Y5401D02*
X1224Y5400D01*
X1219Y5396D01*
X1215Y5390D01*
X1213Y5383D01*
X1215Y5376D01*
X1217Y5373D01*
X1214Y5367D01*
X1213Y5367D01*
X1207Y5363D01*
X1203Y5357D01*
X1202Y5350D01*
X1203Y5343D01*
X1207Y5337D01*
X1213Y5333D01*
X1220Y5332D01*
X1227Y5333D01*
X1233Y5337D01*
X1237Y5343D01*
X1238Y5350D01*
X1237Y5357D01*
X1235Y5360D01*
X1237Y5366D01*
X1239Y5366D01*
X1244Y5370D01*
X1248Y5376D01*
X1250Y5383D01*
X1248Y5390D01*
X1244Y5396D01*
X1239Y5400D01*
X1232Y5401D01*
D02*
G37*
G36*
X994Y5358D02*
X987Y5357D01*
X981Y5353D01*
X977Y5347D01*
X976Y5340D01*
X977Y5333D01*
X981Y5327D01*
X987Y5323D01*
X994Y5322D01*
X1001Y5323D01*
X1007Y5327D01*
X1011Y5333D01*
X1012Y5340D01*
X1011Y5347D01*
X1007Y5353D01*
X1001Y5357D01*
X994Y5358D01*
D02*
G37*
G36*
X1353Y5391D02*
X1346Y5390D01*
X1340Y5386D01*
X1336Y5380D01*
X1335Y5373D01*
X1336Y5366D01*
X1340Y5360D01*
X1346Y5356D01*
X1353Y5355D01*
X1356Y5355D01*
X1388Y5323D01*
X1388Y5323D01*
X1392Y5321D01*
X1396Y5320D01*
X1396Y5320D01*
X1425D01*
X1426Y5318D01*
X1432Y5314D01*
X1439Y5313D01*
X1446Y5314D01*
X1452Y5318D01*
X1456Y5324D01*
X1457Y5331D01*
X1456Y5338D01*
X1452Y5344D01*
X1446Y5348D01*
X1439Y5349D01*
X1432Y5348D01*
X1426Y5344D01*
X1425Y5342D01*
X1401D01*
X1371Y5372D01*
X1371Y5373D01*
X1370Y5380D01*
X1366Y5386D01*
X1360Y5390D01*
X1353Y5391D01*
D02*
G37*
G36*
X948Y5332D02*
X941Y5331D01*
X935Y5327D01*
X931Y5321D01*
X930Y5314D01*
X931Y5307D01*
X935Y5301D01*
X941Y5297D01*
X948Y5296D01*
X955Y5297D01*
X961Y5301D01*
X965Y5307D01*
X966Y5314D01*
X965Y5321D01*
X961Y5327D01*
X955Y5331D01*
X948Y5332D01*
D02*
G37*
G36*
X1511Y5327D02*
X1504Y5326D01*
X1498Y5322D01*
X1494Y5316D01*
X1493Y5309D01*
X1494Y5302D01*
X1498Y5296D01*
X1504Y5292D01*
X1511Y5291D01*
X1518Y5292D01*
X1524Y5296D01*
X1528Y5302D01*
X1529Y5309D01*
X1528Y5316D01*
X1524Y5322D01*
X1518Y5326D01*
X1511Y5327D01*
D02*
G37*
G36*
X1275Y5305D02*
X1268Y5304D01*
X1262Y5300D01*
X1258Y5294D01*
X1257Y5287D01*
X1258Y5280D01*
X1262Y5274D01*
X1268Y5270D01*
X1275Y5269D01*
X1282Y5270D01*
X1288Y5274D01*
X1292Y5280D01*
X1293Y5287D01*
X1292Y5294D01*
X1288Y5300D01*
X1282Y5304D01*
X1275Y5305D01*
D02*
G37*
G36*
X1613Y5278D02*
X1606Y5277D01*
X1600Y5273D01*
X1596Y5267D01*
X1595Y5260D01*
X1596Y5253D01*
X1600Y5247D01*
X1606Y5243D01*
X1613Y5242D01*
X1620Y5243D01*
X1626Y5247D01*
X1630Y5253D01*
X1631Y5260D01*
X1630Y5267D01*
X1626Y5273D01*
X1620Y5277D01*
X1613Y5278D01*
D02*
G37*
G36*
X1722Y5274D02*
X1715Y5273D01*
X1709Y5269D01*
X1705Y5263D01*
X1704Y5256D01*
X1705Y5249D01*
X1709Y5243D01*
X1715Y5239D01*
X1722Y5238D01*
X1729Y5239D01*
X1735Y5243D01*
X1739Y5249D01*
X1740Y5256D01*
X1739Y5263D01*
X1735Y5269D01*
X1729Y5273D01*
X1722Y5274D01*
D02*
G37*
G36*
X1435Y5254D02*
X1428Y5253D01*
X1422Y5249D01*
X1418Y5243D01*
X1417Y5236D01*
X1418Y5229D01*
X1422Y5223D01*
X1428Y5219D01*
X1435Y5218D01*
X1442Y5219D01*
X1448Y5223D01*
X1452Y5229D01*
X1453Y5236D01*
X1452Y5243D01*
X1448Y5249D01*
X1442Y5253D01*
X1435Y5254D01*
D02*
G37*
G36*
X1018Y5191D02*
X1010Y5189D01*
X1005Y5185D01*
X1001Y5180D01*
X999Y5172D01*
X1001Y5165D01*
X1005Y5160D01*
X1010Y5156D01*
X1018Y5154D01*
X1025Y5156D01*
X1030Y5160D01*
X1036Y5158D01*
X1036Y5157D01*
X1040Y5151D01*
X1046Y5147D01*
X1053Y5146D01*
X1060Y5147D01*
X1066Y5151D01*
X1070Y5157D01*
X1071Y5164D01*
X1070Y5171D01*
X1066Y5177D01*
X1060Y5181D01*
X1053Y5182D01*
X1046Y5181D01*
X1040Y5177D01*
X1035Y5178D01*
X1034Y5180D01*
X1030Y5185D01*
X1025Y5189D01*
X1018Y5191D01*
D02*
G37*
G36*
X1528Y5176D02*
X1521Y5175D01*
X1515Y5171D01*
X1511Y5165D01*
X1510Y5158D01*
X1511Y5151D01*
X1515Y5145D01*
X1521Y5141D01*
X1528Y5140D01*
X1535Y5141D01*
X1541Y5145D01*
X1545Y5151D01*
X1546Y5158D01*
X1545Y5165D01*
X1541Y5171D01*
X1535Y5175D01*
X1528Y5176D01*
D02*
G37*
G36*
X2156Y5189D02*
X2147Y5188D01*
X2139Y5185D01*
X2132Y5179D01*
X2127Y5172D01*
X2124Y5164D01*
X2123Y5156D01*
X2124Y5147D01*
X2127Y5139D01*
X2132Y5132D01*
X2139Y5127D01*
X2147Y5124D01*
X2156Y5122D01*
X2165Y5124D01*
X2173Y5127D01*
X2180Y5132D01*
X2185Y5139D01*
X2188Y5147D01*
X2189Y5156D01*
X2188Y5164D01*
X2185Y5172D01*
X2180Y5179D01*
X2173Y5185D01*
X2165Y5188D01*
X2156Y5189D01*
D02*
G37*
G36*
X2050Y5265D02*
X2040Y5263D01*
X2031Y5259D01*
X2023Y5253D01*
X2017Y5245D01*
X2013Y5236D01*
X2012Y5226D01*
X2013Y5216D01*
X2017Y5207D01*
X2023Y5199D01*
X2031Y5193D01*
X2039Y5189D01*
X2040Y5187D01*
Y5187D01*
X2039Y5184D01*
X2031Y5181D01*
X2023Y5175D01*
X2017Y5167D01*
X2013Y5157D01*
X2012Y5147D01*
X2013Y5138D01*
X2017Y5128D01*
X2023Y5120D01*
X2031Y5114D01*
X2040Y5110D01*
X2050Y5109D01*
X2060Y5110D01*
X2069Y5114D01*
X2077Y5120D01*
X2083Y5128D01*
X2087Y5138D01*
X2088Y5147D01*
X2087Y5157D01*
X2083Y5167D01*
X2077Y5175D01*
X2069Y5181D01*
X2061Y5184D01*
X2060Y5187D01*
Y5187D01*
X2061Y5189D01*
X2069Y5193D01*
X2077Y5199D01*
X2083Y5207D01*
X2087Y5216D01*
X2088Y5226D01*
X2087Y5236D01*
X2083Y5245D01*
X2077Y5253D01*
X2069Y5259D01*
X2060Y5263D01*
X2050Y5265D01*
D02*
G37*
G36*
X1196Y5111D02*
X1189Y5110D01*
X1183Y5106D01*
X1182Y5104D01*
X1177Y5103D01*
X1176Y5104D01*
X1171Y5107D01*
X1164Y5108D01*
X1157Y5107D01*
X1151Y5103D01*
X1147Y5097D01*
X1146Y5092D01*
X1146Y5090D01*
X1141Y5089D01*
X1140Y5093D01*
X1136Y5099D01*
X1130Y5103D01*
X1123Y5104D01*
X1116Y5103D01*
X1110Y5099D01*
X1106Y5093D01*
X1105Y5086D01*
X1106Y5079D01*
X1110Y5073D01*
X1116Y5069D01*
X1123Y5068D01*
X1130Y5069D01*
X1136Y5073D01*
X1140Y5079D01*
X1141Y5084D01*
X1141Y5086D01*
X1146Y5087D01*
X1147Y5083D01*
X1151Y5077D01*
X1157Y5073D01*
X1164Y5072D01*
X1168Y5072D01*
X1168Y5072D01*
X1170Y5068D01*
X1170Y5068D01*
X1166Y5065D01*
X1162Y5059D01*
X1161Y5052D01*
X1162Y5045D01*
X1166Y5039D01*
X1172Y5035D01*
X1179Y5034D01*
X1181Y5034D01*
X1185Y5031D01*
X1184Y5028D01*
X1186Y5021D01*
X1190Y5015D01*
X1196Y5011D01*
X1203Y5010D01*
X1210Y5011D01*
X1216Y5015D01*
X1220Y5021D01*
X1221Y5028D01*
X1220Y5035D01*
X1216Y5041D01*
X1210Y5045D01*
X1203Y5046D01*
X1200Y5046D01*
X1197Y5049D01*
X1197Y5052D01*
X1196Y5059D01*
X1192Y5065D01*
X1186Y5069D01*
X1179Y5070D01*
X1175Y5070D01*
X1175Y5070D01*
X1173Y5074D01*
X1173Y5074D01*
X1177Y5077D01*
X1178Y5079D01*
X1183Y5080D01*
X1184Y5079D01*
X1189Y5076D01*
X1196Y5075D01*
X1203Y5076D01*
X1209Y5080D01*
X1213Y5086D01*
X1214Y5093D01*
X1213Y5100D01*
X1209Y5106D01*
X1203Y5110D01*
X1196Y5111D01*
D02*
G37*
G36*
X1867Y5124D02*
X1860Y5123D01*
X1854Y5119D01*
X1850Y5113D01*
X1849Y5106D01*
X1850Y5099D01*
X1854Y5093D01*
X1860Y5089D01*
X1867Y5088D01*
X1874Y5089D01*
X1880Y5093D01*
X1884Y5099D01*
X1885Y5106D01*
X1884Y5113D01*
X1880Y5119D01*
X1874Y5123D01*
X1867Y5124D01*
D02*
G37*
G36*
X1687Y5122D02*
X1680Y5121D01*
X1674Y5117D01*
X1670Y5111D01*
X1669Y5104D01*
X1670Y5097D01*
X1674Y5091D01*
X1680Y5087D01*
X1687Y5086D01*
X1694Y5087D01*
X1700Y5091D01*
X1704Y5097D01*
X1705Y5104D01*
X1704Y5111D01*
X1700Y5117D01*
X1694Y5121D01*
X1687Y5122D01*
D02*
G37*
G36*
X892Y5121D02*
X885Y5120D01*
X879Y5116D01*
X875Y5110D01*
X874Y5103D01*
X875Y5096D01*
X879Y5090D01*
X885Y5086D01*
X892Y5085D01*
X899Y5086D01*
X905Y5090D01*
X909Y5096D01*
X910Y5103D01*
X909Y5110D01*
X905Y5116D01*
X899Y5120D01*
X892Y5121D01*
D02*
G37*
G36*
X1814Y5120D02*
X1807Y5119D01*
X1801Y5115D01*
X1797Y5109D01*
X1796Y5102D01*
X1797Y5095D01*
X1801Y5089D01*
X1807Y5085D01*
X1814Y5084D01*
X1821Y5085D01*
X1827Y5089D01*
X1831Y5095D01*
X1832Y5102D01*
X1831Y5109D01*
X1827Y5115D01*
X1821Y5119D01*
X1814Y5120D01*
D02*
G37*
G36*
X2156Y5110D02*
X2147Y5109D01*
X2139Y5106D01*
X2132Y5101D01*
X2127Y5094D01*
X2124Y5086D01*
X2123Y5077D01*
X2124Y5068D01*
X2127Y5060D01*
X2132Y5053D01*
X2139Y5048D01*
X2147Y5045D01*
X2156Y5044D01*
X2165Y5045D01*
X2173Y5048D01*
X2180Y5053D01*
X2185Y5060D01*
X2188Y5068D01*
X2189Y5077D01*
X2188Y5086D01*
X2185Y5094D01*
X2180Y5101D01*
X2173Y5106D01*
X2165Y5109D01*
X2156Y5110D01*
D02*
G37*
G36*
X1134Y5056D02*
X1127Y5055D01*
X1121Y5051D01*
X1117Y5045D01*
X1116Y5038D01*
X1117Y5031D01*
X1121Y5025D01*
X1127Y5021D01*
X1134Y5020D01*
X1141Y5021D01*
X1147Y5025D01*
X1151Y5031D01*
X1152Y5038D01*
X1151Y5045D01*
X1147Y5051D01*
X1141Y5055D01*
X1134Y5056D01*
D02*
G37*
G36*
X1401Y5054D02*
X1394Y5053D01*
X1388Y5049D01*
X1384Y5043D01*
X1383Y5036D01*
X1384Y5029D01*
X1388Y5023D01*
X1394Y5019D01*
X1401Y5017D01*
X1408Y5019D01*
X1414Y5023D01*
X1418Y5029D01*
X1419Y5036D01*
X1418Y5043D01*
X1414Y5049D01*
X1408Y5053D01*
X1401Y5054D01*
D02*
G37*
G36*
X867Y5084D02*
X860Y5083D01*
X854Y5079D01*
X850Y5073D01*
X849Y5066D01*
X850Y5059D01*
X854Y5053D01*
X860Y5049D01*
X860Y5048D01*
X861Y5044D01*
X858Y5039D01*
X857Y5032D01*
X858Y5025D01*
X862Y5019D01*
X868Y5015D01*
X875Y5014D01*
X882Y5015D01*
X888Y5019D01*
X892Y5025D01*
X893Y5032D01*
X892Y5039D01*
X888Y5045D01*
X882Y5049D01*
X882Y5050D01*
X881Y5054D01*
X884Y5059D01*
X885Y5066D01*
X884Y5073D01*
X880Y5079D01*
X874Y5083D01*
X867Y5084D01*
D02*
G37*
G36*
X1028Y5045D02*
X1021Y5044D01*
X1015Y5040D01*
X1011Y5034D01*
X1010Y5027D01*
X1011Y5020D01*
X1015Y5014D01*
X1021Y5010D01*
X1028Y5009D01*
X1035Y5010D01*
X1041Y5014D01*
X1045Y5020D01*
X1046Y5027D01*
X1045Y5034D01*
X1041Y5040D01*
X1035Y5044D01*
X1028Y5045D01*
D02*
G37*
G36*
X1204Y5003D02*
X1197Y5002D01*
X1191Y4998D01*
X1187Y4992D01*
X1185Y4992D01*
X1182Y4992D01*
X1179Y4996D01*
X1173Y5000D01*
X1166Y5001D01*
X1159Y5000D01*
X1153Y4996D01*
X1149Y4990D01*
X1148Y4983D01*
X1149Y4976D01*
X1153Y4970D01*
X1159Y4966D01*
X1166Y4965D01*
X1173Y4966D01*
X1179Y4970D01*
X1183Y4976D01*
X1185Y4976D01*
X1188Y4976D01*
X1191Y4972D01*
X1197Y4968D01*
X1204Y4967D01*
X1211Y4968D01*
X1217Y4972D01*
X1221Y4978D01*
X1222Y4985D01*
X1221Y4992D01*
X1217Y4998D01*
X1211Y5002D01*
X1204Y5003D01*
D02*
G37*
G36*
X1390Y4978D02*
X1383Y4977D01*
X1377Y4973D01*
X1373Y4967D01*
X1372Y4960D01*
X1373Y4953D01*
X1377Y4947D01*
X1383Y4943D01*
X1390Y4942D01*
X1397Y4943D01*
X1403Y4947D01*
X1407Y4953D01*
X1408Y4960D01*
X1407Y4967D01*
X1403Y4973D01*
X1397Y4977D01*
X1390Y4978D01*
D02*
G37*
G36*
X878Y5000D02*
X871Y4999D01*
X865Y4995D01*
X861Y4989D01*
X860Y4982D01*
X861Y4975D01*
X865Y4969D01*
X869Y4966D01*
X869Y4961D01*
X869Y4961D01*
X867Y4959D01*
X863Y4953D01*
X862Y4946D01*
X863Y4939D01*
X867Y4933D01*
X873Y4929D01*
X880Y4928D01*
X887Y4929D01*
X893Y4933D01*
X897Y4939D01*
X898Y4946D01*
X897Y4953D01*
X893Y4959D01*
X889Y4962D01*
X889Y4967D01*
X889Y4967D01*
X891Y4969D01*
X895Y4975D01*
X896Y4982D01*
X895Y4989D01*
X891Y4995D01*
X885Y4999D01*
X878Y5000D01*
D02*
G37*
G36*
X1203Y4948D02*
X1196Y4947D01*
X1190Y4943D01*
X1186Y4937D01*
X1185Y4930D01*
X1186Y4923D01*
X1190Y4917D01*
X1196Y4913D01*
X1203Y4912D01*
X1210Y4913D01*
X1216Y4917D01*
X1220Y4923D01*
X1221Y4930D01*
X1220Y4937D01*
X1216Y4943D01*
X1210Y4947D01*
X1203Y4948D01*
D02*
G37*
G36*
X1346Y4931D02*
X1339Y4930D01*
X1333Y4926D01*
X1329Y4920D01*
X1328Y4913D01*
X1329Y4906D01*
X1333Y4900D01*
X1339Y4896D01*
X1346Y4895D01*
X1353Y4896D01*
X1359Y4900D01*
X1363Y4906D01*
X1364Y4913D01*
X1363Y4920D01*
X1359Y4926D01*
X1353Y4930D01*
X1346Y4931D01*
D02*
G37*
G36*
X1015Y4917D02*
X1008Y4916D01*
X1002Y4912D01*
X998Y4906D01*
X997Y4899D01*
X998Y4892D01*
X1002Y4886D01*
X1008Y4882D01*
X1015Y4881D01*
X1022Y4882D01*
X1028Y4886D01*
X1032Y4892D01*
X1033Y4899D01*
X1032Y4906D01*
X1028Y4912D01*
X1022Y4916D01*
X1015Y4917D01*
D02*
G37*
G36*
X1388Y4910D02*
X1381Y4909D01*
X1375Y4905D01*
X1371Y4899D01*
X1370Y4892D01*
X1371Y4885D01*
X1375Y4879D01*
X1381Y4875D01*
X1388Y4874D01*
X1395Y4875D01*
X1401Y4879D01*
X1405Y4885D01*
X1406Y4892D01*
X1405Y4899D01*
X1401Y4905D01*
X1395Y4909D01*
X1388Y4910D01*
D02*
G37*
G36*
X942Y4909D02*
X935Y4908D01*
X929Y4904D01*
X925Y4898D01*
X924Y4891D01*
X925Y4884D01*
X929Y4878D01*
X932Y4876D01*
X931Y4870D01*
X929Y4870D01*
X923Y4866D01*
X922Y4865D01*
X917Y4866D01*
X916Y4870D01*
X912Y4876D01*
X906Y4880D01*
X899Y4881D01*
X894Y4880D01*
X890Y4884D01*
X890Y4884D01*
X890Y4888D01*
X889Y4895D01*
X885Y4901D01*
X879Y4905D01*
X872Y4906D01*
X865Y4905D01*
X859Y4901D01*
X855Y4895D01*
X854Y4888D01*
X855Y4881D01*
X859Y4875D01*
X862Y4873D01*
X861Y4868D01*
X855Y4864D01*
X851Y4858D01*
X850Y4851D01*
X851Y4844D01*
X855Y4838D01*
X861Y4834D01*
X868Y4833D01*
X875Y4834D01*
X881Y4838D01*
X885Y4844D01*
X885Y4846D01*
X890Y4848D01*
X892Y4846D01*
X899Y4845D01*
X906Y4846D01*
X912Y4850D01*
X913Y4851D01*
X918Y4850D01*
X919Y4846D01*
X923Y4840D01*
X929Y4836D01*
X936Y4835D01*
X943Y4836D01*
X949Y4840D01*
X953Y4846D01*
X954Y4853D01*
X953Y4860D01*
X949Y4866D01*
X946Y4868D01*
X947Y4874D01*
X949Y4874D01*
X955Y4878D01*
X959Y4884D01*
X960Y4891D01*
X959Y4898D01*
X955Y4904D01*
X949Y4908D01*
X942Y4909D01*
D02*
G37*
G36*
X1184Y4899D02*
X1177Y4898D01*
X1171Y4894D01*
X1167Y4888D01*
X1166Y4881D01*
X1167Y4874D01*
X1171Y4868D01*
X1177Y4864D01*
X1184Y4863D01*
X1191Y4864D01*
X1197Y4868D01*
X1201Y4874D01*
X1202Y4881D01*
X1201Y4888D01*
X1197Y4894D01*
X1191Y4898D01*
X1184Y4899D01*
D02*
G37*
G36*
X1021Y4858D02*
X1014Y4857D01*
X1008Y4853D01*
X1006Y4849D01*
X1002Y4847D01*
X999Y4848D01*
X995Y4851D01*
X988Y4852D01*
X981Y4851D01*
X975Y4847D01*
X971Y4841D01*
X970Y4834D01*
X971Y4827D01*
X975Y4821D01*
X981Y4817D01*
X988Y4816D01*
X995Y4817D01*
X1001Y4821D01*
X1003Y4825D01*
X1007Y4827D01*
X1010Y4826D01*
X1014Y4823D01*
X1021Y4822D01*
X1028Y4823D01*
X1034Y4827D01*
X1038Y4833D01*
X1039Y4840D01*
X1038Y4847D01*
X1034Y4853D01*
X1028Y4857D01*
X1021Y4858D01*
D02*
G37*
G36*
X1352Y4819D02*
X1345Y4818D01*
X1339Y4814D01*
X1335Y4808D01*
X1334Y4801D01*
X1335Y4794D01*
X1339Y4788D01*
X1345Y4784D01*
X1352Y4783D01*
X1359Y4784D01*
X1364Y4787D01*
X1364Y4787D01*
X1368Y4786D01*
X1369Y4785D01*
X1370Y4780D01*
X1374Y4774D01*
X1380Y4770D01*
X1387Y4769D01*
X1394Y4770D01*
X1400Y4774D01*
X1404Y4780D01*
X1405Y4787D01*
X1404Y4794D01*
X1400Y4800D01*
X1394Y4804D01*
X1387Y4805D01*
X1380Y4804D01*
X1375Y4801D01*
X1375Y4801D01*
X1371Y4802D01*
X1370Y4803D01*
X1369Y4808D01*
X1365Y4814D01*
X1359Y4818D01*
X1352Y4819D01*
D02*
G37*
G36*
X1299Y4772D02*
X1292Y4771D01*
X1286Y4767D01*
X1282Y4761D01*
X1281Y4754D01*
X1282Y4747D01*
X1285Y4742D01*
X1284Y4738D01*
X1283Y4737D01*
X1283Y4737D01*
X1277Y4733D01*
X1277Y4733D01*
X1271Y4733D01*
X1269Y4737D01*
X1263Y4741D01*
X1256Y4742D01*
X1249Y4741D01*
X1243Y4737D01*
X1239Y4731D01*
X1238Y4724D01*
X1239Y4717D01*
X1243Y4711D01*
X1249Y4707D01*
X1256Y4706D01*
X1263Y4707D01*
X1269Y4711D01*
X1269Y4711D01*
X1275Y4711D01*
X1277Y4707D01*
X1283Y4703D01*
X1290Y4702D01*
X1297Y4703D01*
X1303Y4707D01*
X1306Y4712D01*
X1312Y4713D01*
X1312Y4713D01*
X1318Y4709D01*
X1325Y4708D01*
X1332Y4709D01*
X1338Y4713D01*
X1342Y4719D01*
X1343Y4726D01*
X1342Y4733D01*
X1338Y4739D01*
X1332Y4743D01*
X1325Y4744D01*
X1319Y4743D01*
X1317Y4746D01*
X1316Y4747D01*
X1316Y4747D01*
X1317Y4754D01*
X1316Y4761D01*
X1312Y4767D01*
X1306Y4771D01*
X1299Y4772D01*
D02*
G37*
G36*
X1347Y4705D02*
X1340Y4704D01*
X1334Y4700D01*
X1330Y4694D01*
X1329Y4687D01*
X1330Y4680D01*
X1334Y4674D01*
X1340Y4670D01*
X1347Y4669D01*
X1354Y4670D01*
X1360Y4674D01*
X1364Y4680D01*
X1365Y4687D01*
X1364Y4694D01*
X1360Y4700D01*
X1354Y4704D01*
X1347Y4705D01*
D02*
G37*
G36*
X1060Y4693D02*
X1053Y4692D01*
X1047Y4688D01*
X1043Y4682D01*
X1042Y4675D01*
X1043Y4668D01*
X1047Y4662D01*
X1053Y4658D01*
X1060Y4657D01*
X1067Y4658D01*
X1073Y4662D01*
X1077Y4668D01*
X1078Y4675D01*
X1077Y4682D01*
X1073Y4688D01*
X1067Y4692D01*
X1060Y4693D01*
D02*
G37*
G36*
X1256Y4685D02*
X1249Y4684D01*
X1243Y4680D01*
X1239Y4674D01*
X1238Y4667D01*
X1239Y4660D01*
X1243Y4654D01*
X1249Y4650D01*
X1256Y4649D01*
X1263Y4650D01*
X1269Y4654D01*
X1273Y4660D01*
X1274Y4667D01*
X1273Y4674D01*
X1269Y4680D01*
X1263Y4684D01*
X1256Y4685D01*
D02*
G37*
G36*
X1116Y4717D02*
X1109Y4716D01*
X1103Y4712D01*
X1099Y4706D01*
X1098Y4699D01*
X1099Y4692D01*
X1103Y4686D01*
X1109Y4682D01*
X1116Y4681D01*
X1118Y4681D01*
X1123Y4678D01*
X1124Y4671D01*
X1128Y4665D01*
X1134Y4661D01*
X1141Y4660D01*
X1147Y4661D01*
X1150Y4660D01*
X1153Y4659D01*
X1153Y4657D01*
X1157Y4651D01*
X1163Y4647D01*
X1170Y4646D01*
X1177Y4647D01*
X1183Y4651D01*
X1187Y4657D01*
X1188Y4664D01*
X1187Y4671D01*
X1183Y4677D01*
X1177Y4681D01*
X1170Y4682D01*
X1164Y4681D01*
X1161Y4682D01*
X1158Y4683D01*
X1158Y4685D01*
X1154Y4691D01*
X1148Y4695D01*
X1141Y4696D01*
X1139Y4696D01*
X1134Y4699D01*
X1133Y4706D01*
X1129Y4712D01*
X1123Y4716D01*
X1116Y4717D01*
D02*
G37*
G36*
X1388Y4680D02*
X1381Y4679D01*
X1375Y4675D01*
X1371Y4669D01*
X1370Y4662D01*
X1371Y4655D01*
X1375Y4649D01*
X1381Y4645D01*
X1388Y4644D01*
X1395Y4645D01*
X1401Y4649D01*
X1405Y4655D01*
X1406Y4662D01*
X1405Y4669D01*
X1401Y4675D01*
X1395Y4679D01*
X1388Y4680D01*
D02*
G37*
G36*
X1017Y4678D02*
X1010Y4677D01*
X1004Y4673D01*
X1000Y4667D01*
X999Y4660D01*
X1000Y4653D01*
X1004Y4647D01*
X1010Y4643D01*
X1017Y4642D01*
X1024Y4643D01*
X1030Y4647D01*
X1034Y4653D01*
X1035Y4660D01*
X1034Y4667D01*
X1030Y4673D01*
X1024Y4677D01*
X1017Y4678D01*
D02*
G37*
G36*
X877D02*
X870Y4677D01*
X864Y4673D01*
X860Y4667D01*
X859Y4660D01*
X860Y4653D01*
X864Y4647D01*
X870Y4643D01*
X877Y4642D01*
X884Y4643D01*
X890Y4647D01*
X894Y4653D01*
X895Y4660D01*
X894Y4667D01*
X890Y4673D01*
X884Y4677D01*
X877Y4678D01*
D02*
G37*
G36*
X1211Y4671D02*
X1204Y4670D01*
X1198Y4666D01*
X1194Y4660D01*
X1193Y4653D01*
X1194Y4646D01*
X1198Y4640D01*
X1204Y4636D01*
X1211Y4635D01*
X1218Y4636D01*
X1224Y4640D01*
X1228Y4646D01*
X1229Y4653D01*
X1228Y4660D01*
X1224Y4666D01*
X1218Y4670D01*
X1211Y4671D01*
D02*
G37*
G36*
X1341Y4632D02*
X1332Y4631D01*
X1323Y4628D01*
X1316Y4622D01*
X1310Y4614D01*
X1306Y4605D01*
X1305Y4596D01*
X1306Y4586D01*
X1310Y4578D01*
X1316Y4570D01*
X1323Y4564D01*
X1332Y4561D01*
X1341Y4559D01*
X1351Y4561D01*
X1360Y4564D01*
X1367Y4570D01*
X1373Y4578D01*
X1377Y4586D01*
X1378Y4596D01*
X1377Y4605D01*
X1373Y4614D01*
X1367Y4622D01*
X1360Y4628D01*
X1351Y4631D01*
X1341Y4632D01*
D02*
G37*
G36*
X1263D02*
X1253Y4631D01*
X1244Y4628D01*
X1237Y4622D01*
X1231Y4614D01*
X1227Y4605D01*
X1226Y4596D01*
X1227Y4586D01*
X1231Y4578D01*
X1237Y4570D01*
X1244Y4564D01*
X1253Y4561D01*
X1263Y4559D01*
X1272Y4561D01*
X1281Y4564D01*
X1288Y4570D01*
X1294Y4578D01*
X1298Y4586D01*
X1299Y4596D01*
X1298Y4605D01*
X1294Y4614D01*
X1288Y4622D01*
X1281Y4628D01*
X1272Y4631D01*
X1263Y4632D01*
D02*
G37*
G36*
X1184D02*
X1174Y4631D01*
X1166Y4628D01*
X1158Y4622D01*
X1152Y4614D01*
X1149Y4605D01*
X1147Y4596D01*
X1149Y4586D01*
X1152Y4578D01*
X1158Y4570D01*
X1166Y4564D01*
X1174Y4561D01*
X1184Y4559D01*
X1193Y4561D01*
X1202Y4564D01*
X1210Y4570D01*
X1215Y4578D01*
X1219Y4586D01*
X1220Y4596D01*
X1219Y4605D01*
X1215Y4614D01*
X1210Y4622D01*
X1202Y4628D01*
X1193Y4631D01*
X1184Y4632D01*
D02*
G37*
G36*
X1105D02*
X1096Y4631D01*
X1087Y4628D01*
X1079Y4622D01*
X1074Y4614D01*
X1070Y4605D01*
X1069Y4596D01*
X1070Y4586D01*
X1074Y4578D01*
X1079Y4570D01*
X1087Y4564D01*
X1096Y4561D01*
X1105Y4559D01*
X1115Y4561D01*
X1123Y4564D01*
X1131Y4570D01*
X1137Y4578D01*
X1140Y4586D01*
X1142Y4596D01*
X1140Y4605D01*
X1137Y4614D01*
X1131Y4622D01*
X1123Y4628D01*
X1115Y4631D01*
X1105Y4632D01*
D02*
G37*
G36*
X1026D02*
X1017Y4631D01*
X1008Y4628D01*
X1001Y4622D01*
X995Y4614D01*
X991Y4605D01*
X990Y4596D01*
X991Y4586D01*
X995Y4578D01*
X1001Y4570D01*
X1008Y4564D01*
X1017Y4561D01*
X1026Y4559D01*
X1036Y4561D01*
X1045Y4564D01*
X1052Y4570D01*
X1058Y4578D01*
X1062Y4586D01*
X1063Y4596D01*
X1062Y4605D01*
X1058Y4614D01*
X1052Y4622D01*
X1045Y4628D01*
X1036Y4631D01*
X1026Y4632D01*
D02*
G37*
G36*
X948D02*
X938Y4631D01*
X929Y4628D01*
X922Y4622D01*
X916Y4614D01*
X912Y4605D01*
X911Y4596D01*
X912Y4586D01*
X916Y4578D01*
X922Y4570D01*
X929Y4564D01*
X938Y4561D01*
X948Y4559D01*
X957Y4561D01*
X966Y4564D01*
X973Y4570D01*
X979Y4578D01*
X983Y4586D01*
X984Y4596D01*
X983Y4605D01*
X979Y4614D01*
X973Y4622D01*
X966Y4628D01*
X957Y4631D01*
X948Y4632D01*
D02*
G37*
G36*
X790Y5499D02*
X781Y5497D01*
X772Y5494D01*
X764Y5488D01*
X759Y5480D01*
X755Y5472D01*
X754Y5462D01*
X755Y5453D01*
X759Y5444D01*
X764Y5436D01*
X772Y5430D01*
X781Y5427D01*
X790Y5426D01*
X800Y5427D01*
X808Y5430D01*
X816Y5436D01*
X822Y5444D01*
X825Y5453D01*
X827Y5462D01*
X825Y5472D01*
X822Y5480D01*
X816Y5488D01*
X808Y5494D01*
X800Y5497D01*
X790Y5499D01*
D02*
G37*
G36*
X711D02*
X702Y5497D01*
X693Y5494D01*
X686Y5488D01*
X680Y5480D01*
X676Y5472D01*
X675Y5462D01*
X676Y5453D01*
X680Y5444D01*
X686Y5436D01*
X693Y5430D01*
X702Y5427D01*
X711Y5426D01*
X721Y5427D01*
X730Y5430D01*
X737Y5436D01*
X743Y5444D01*
X747Y5453D01*
X748Y5462D01*
X747Y5472D01*
X743Y5480D01*
X737Y5488D01*
X730Y5494D01*
X721Y5497D01*
X711Y5499D01*
D02*
G37*
G36*
X633D02*
X623Y5497D01*
X614Y5494D01*
X607Y5488D01*
X601Y5480D01*
X597Y5472D01*
X596Y5462D01*
X597Y5453D01*
X601Y5444D01*
X607Y5436D01*
X614Y5430D01*
X623Y5427D01*
X633Y5426D01*
X642Y5427D01*
X651Y5430D01*
X658Y5436D01*
X664Y5444D01*
X668Y5453D01*
X669Y5462D01*
X668Y5472D01*
X664Y5480D01*
X658Y5488D01*
X651Y5494D01*
X642Y5497D01*
X633Y5499D01*
D02*
G37*
G36*
X628Y5363D02*
X621Y5362D01*
X615Y5358D01*
X611Y5352D01*
X610Y5345D01*
X611Y5338D01*
X615Y5332D01*
X621Y5328D01*
X628Y5327D01*
X635Y5328D01*
X641Y5332D01*
X645Y5338D01*
X646Y5345D01*
X645Y5352D01*
X641Y5358D01*
X635Y5362D01*
X628Y5363D01*
D02*
G37*
G36*
X670Y5356D02*
X663Y5355D01*
X657Y5351D01*
X653Y5345D01*
X652Y5338D01*
X653Y5331D01*
X657Y5325D01*
X663Y5321D01*
X670Y5320D01*
X677Y5321D01*
X683Y5325D01*
X687Y5331D01*
X688Y5338D01*
X687Y5345D01*
X683Y5351D01*
X677Y5355D01*
X670Y5356D01*
D02*
G37*
G36*
X667Y5212D02*
X660Y5211D01*
X654Y5207D01*
X650Y5201D01*
X649Y5194D01*
X650Y5187D01*
X654Y5181D01*
X660Y5177D01*
X667Y5176D01*
X674Y5177D01*
X680Y5181D01*
X684Y5187D01*
X685Y5194D01*
X684Y5201D01*
X680Y5207D01*
X674Y5211D01*
X667Y5212D01*
D02*
G37*
G36*
X720Y5237D02*
X713Y5236D01*
X707Y5232D01*
X703Y5226D01*
X702Y5219D01*
X703Y5212D01*
X707Y5206D01*
X713Y5202D01*
X714Y5202D01*
X716Y5197D01*
X715Y5196D01*
X714Y5189D01*
X715Y5182D01*
X719Y5176D01*
X725Y5172D01*
X732Y5171D01*
X739Y5172D01*
X745Y5176D01*
X749Y5182D01*
X750Y5189D01*
X749Y5196D01*
X745Y5202D01*
X739Y5206D01*
X738Y5206D01*
X736Y5211D01*
X737Y5212D01*
X738Y5219D01*
X737Y5226D01*
X733Y5232D01*
X727Y5236D01*
X720Y5237D01*
D02*
G37*
G36*
X572Y5186D02*
X565Y5185D01*
X559Y5181D01*
X555Y5175D01*
X554Y5168D01*
X555Y5161D01*
X559Y5155D01*
X565Y5151D01*
X572Y5150D01*
X579Y5151D01*
X585Y5155D01*
X589Y5161D01*
X590Y5168D01*
X589Y5175D01*
X585Y5181D01*
X579Y5185D01*
X572Y5186D01*
D02*
G37*
G36*
X476Y5175D02*
X469Y5174D01*
X463Y5170D01*
X459Y5164D01*
X458Y5157D01*
X459Y5150D01*
X463Y5144D01*
X469Y5140D01*
X476Y5139D01*
X483Y5140D01*
X488Y5144D01*
X492Y5143D01*
X494Y5142D01*
X494Y5140D01*
X498Y5134D01*
X504Y5130D01*
X511Y5129D01*
X518Y5130D01*
X524Y5134D01*
X528Y5140D01*
X529Y5147D01*
X528Y5154D01*
X524Y5160D01*
X518Y5164D01*
X511Y5165D01*
X504Y5164D01*
X499Y5160D01*
X495Y5161D01*
X493Y5162D01*
X493Y5164D01*
X489Y5170D01*
X483Y5174D01*
X476Y5175D01*
D02*
G37*
G36*
X600Y5144D02*
X593Y5143D01*
X587Y5139D01*
X583Y5133D01*
X582Y5126D01*
X583Y5119D01*
X587Y5113D01*
X593Y5109D01*
X600Y5108D01*
X607Y5109D01*
X613Y5113D01*
X617Y5119D01*
X618Y5126D01*
X617Y5133D01*
X613Y5139D01*
X607Y5143D01*
X600Y5144D01*
D02*
G37*
G36*
X504Y5056D02*
X495Y5054D01*
X487Y5051D01*
X480Y5046D01*
X475Y5039D01*
X472Y5031D01*
X471Y5022D01*
X472Y5014D01*
X475Y5006D01*
X480Y4999D01*
X487Y4993D01*
X495Y4990D01*
X504Y4989D01*
X513Y4990D01*
X521Y4993D01*
X528Y4999D01*
X533Y5006D01*
X536Y5014D01*
X537Y5022D01*
X536Y5031D01*
X533Y5039D01*
X528Y5046D01*
X521Y5051D01*
X513Y5054D01*
X504Y5056D01*
D02*
G37*
G36*
X590Y4936D02*
X583Y4935D01*
X577Y4931D01*
X573Y4925D01*
X572Y4918D01*
X573Y4911D01*
X577Y4905D01*
X583Y4901D01*
X590Y4900D01*
X597Y4901D01*
X603Y4905D01*
X607Y4911D01*
X608Y4918D01*
X607Y4925D01*
X603Y4931D01*
X597Y4935D01*
X590Y4936D01*
D02*
G37*
G36*
X448Y4921D02*
X441Y4920D01*
X435Y4916D01*
X431Y4910D01*
X430Y4903D01*
X431Y4896D01*
X435Y4890D01*
X441Y4886D01*
X448Y4885D01*
X455Y4886D01*
X461Y4890D01*
X465Y4896D01*
X466Y4903D01*
X465Y4910D01*
X461Y4916D01*
X455Y4920D01*
X448Y4921D01*
D02*
G37*
G36*
X568Y4899D02*
X561Y4897D01*
X556Y4893D01*
X552Y4888D01*
X550Y4880D01*
X552Y4873D01*
X556Y4868D01*
X561Y4864D01*
X568Y4862D01*
X576Y4864D01*
X581Y4868D01*
X585Y4873D01*
X587Y4880D01*
X585Y4888D01*
X581Y4893D01*
X576Y4897D01*
X568Y4899D01*
D02*
G37*
G36*
X631Y4898D02*
X624Y4897D01*
X618Y4893D01*
X614Y4887D01*
X613Y4880D01*
X614Y4873D01*
X618Y4867D01*
X624Y4863D01*
X631Y4862D01*
X638Y4863D01*
X644Y4867D01*
X648Y4873D01*
X649Y4880D01*
X648Y4887D01*
X644Y4893D01*
X638Y4897D01*
X631Y4898D01*
D02*
G37*
G36*
X708Y4892D02*
X701Y4890D01*
X695Y4886D01*
X691Y4880D01*
X689Y4873D01*
X691Y4866D01*
X695Y4860D01*
X701Y4856D01*
X708Y4855D01*
X715Y4856D01*
X721Y4860D01*
X725Y4866D01*
X726Y4873D01*
X725Y4880D01*
X721Y4886D01*
X715Y4890D01*
X708Y4892D01*
D02*
G37*
G36*
X422Y4751D02*
X415Y4750D01*
X409Y4746D01*
X405Y4740D01*
X404Y4733D01*
X405Y4726D01*
X409Y4720D01*
X415Y4716D01*
X422Y4715D01*
X429Y4716D01*
X435Y4720D01*
X439Y4726D01*
X440Y4733D01*
X439Y4740D01*
X435Y4746D01*
X429Y4750D01*
X422Y4751D01*
D02*
G37*
G36*
X553Y4714D02*
X546Y4713D01*
X540Y4709D01*
X536Y4703D01*
X535Y4696D01*
X536Y4689D01*
X540Y4683D01*
X546Y4679D01*
X553Y4678D01*
X560Y4679D01*
X566Y4683D01*
X570Y4689D01*
X571Y4696D01*
X570Y4703D01*
X566Y4709D01*
X560Y4713D01*
X553Y4714D01*
D02*
G37*
G36*
X580Y4658D02*
X573Y4657D01*
X567Y4653D01*
X563Y4647D01*
X562Y4640D01*
X563Y4633D01*
X567Y4627D01*
X573Y4623D01*
X580Y4622D01*
X587Y4623D01*
X592Y4626D01*
X596Y4624D01*
X597Y4624D01*
Y4560D01*
X669D01*
Y4632D01*
X602D01*
X598Y4637D01*
X598Y4640D01*
X597Y4647D01*
X593Y4653D01*
X587Y4657D01*
X580Y4658D01*
D02*
G37*
G36*
X790Y4632D02*
X781Y4631D01*
X772Y4628D01*
X764Y4622D01*
X759Y4614D01*
X755Y4605D01*
X754Y4596D01*
X755Y4586D01*
X759Y4578D01*
X764Y4570D01*
X772Y4564D01*
X781Y4561D01*
X790Y4559D01*
X800Y4561D01*
X808Y4564D01*
X816Y4570D01*
X822Y4578D01*
X825Y4586D01*
X827Y4596D01*
X825Y4605D01*
X822Y4614D01*
X816Y4622D01*
X808Y4628D01*
X800Y4631D01*
X790Y4632D01*
D02*
G37*
G36*
X711D02*
X702Y4631D01*
X693Y4628D01*
X686Y4622D01*
X680Y4614D01*
X676Y4605D01*
X675Y4596D01*
X676Y4586D01*
X680Y4578D01*
X686Y4570D01*
X693Y4564D01*
X702Y4561D01*
X711Y4559D01*
X721Y4561D01*
X730Y4564D01*
X737Y4570D01*
X743Y4578D01*
X747Y4586D01*
X748Y4596D01*
X747Y4605D01*
X743Y4614D01*
X737Y4622D01*
X730Y4628D01*
X721Y4631D01*
X711Y4632D01*
D02*
G37*
G36*
X4233Y5118D02*
X4157D01*
Y5042D01*
X4233D01*
Y5118D01*
D02*
G37*
G36*
X4295Y5118D02*
X4285Y5117D01*
X4276Y5113D01*
X4268Y5107D01*
X4262Y5099D01*
X4258Y5090D01*
X4257Y5080D01*
X4258Y5070D01*
X4262Y5061D01*
X4268Y5053D01*
X4276Y5047D01*
X4285Y5043D01*
X4295Y5042D01*
X4305Y5043D01*
X4314Y5047D01*
X4322Y5053D01*
X4328Y5061D01*
X4332Y5070D01*
X4333Y5080D01*
X4332Y5090D01*
X4328Y5099D01*
X4322Y5107D01*
X4314Y5113D01*
X4305Y5117D01*
X4295Y5118D01*
D02*
G37*
G36*
X3818Y5078D02*
X3742D01*
Y5002D01*
X3818D01*
Y5078D01*
D02*
G37*
G36*
X3680Y5078D02*
X3670Y5077D01*
X3661Y5073D01*
X3653Y5067D01*
X3647Y5059D01*
X3643Y5050D01*
X3642Y5040D01*
X3643Y5030D01*
X3647Y5021D01*
X3653Y5013D01*
X3661Y5007D01*
X3670Y5003D01*
X3680Y5002D01*
X3690Y5003D01*
X3699Y5007D01*
X3707Y5013D01*
X3713Y5021D01*
X3717Y5030D01*
X3718Y5040D01*
X3717Y5050D01*
X3713Y5059D01*
X3707Y5067D01*
X3699Y5073D01*
X3690Y5077D01*
X3680Y5078D01*
D02*
G37*
G36*
X3580D02*
X3570Y5077D01*
X3561Y5073D01*
X3553Y5067D01*
X3547Y5059D01*
X3543Y5050D01*
X3542Y5040D01*
X3543Y5030D01*
X3547Y5021D01*
X3553Y5013D01*
X3561Y5007D01*
X3570Y5003D01*
X3580Y5002D01*
X3590Y5003D01*
X3599Y5007D01*
X3607Y5013D01*
X3613Y5021D01*
X3617Y5030D01*
X3618Y5040D01*
X3617Y5050D01*
X3613Y5059D01*
X3607Y5067D01*
X3599Y5073D01*
X3590Y5077D01*
X3580Y5078D01*
D02*
G37*
G36*
X3315Y5132D02*
X3298Y5130D01*
X3282Y5126D01*
X3267Y5117D01*
X3253Y5107D01*
X3243Y5093D01*
X3234Y5078D01*
X3230Y5062D01*
X3228Y5045D01*
X3230Y5028D01*
X3234Y5012D01*
X3243Y4997D01*
X3253Y4983D01*
X3267Y4973D01*
X3282Y4964D01*
X3298Y4960D01*
X3315Y4958D01*
X3332Y4960D01*
X3348Y4964D01*
X3363Y4973D01*
X3377Y4983D01*
X3387Y4997D01*
X3396Y5012D01*
X3400Y5028D01*
X3402Y5045D01*
X3400Y5062D01*
X3396Y5078D01*
X3387Y5093D01*
X3377Y5107D01*
X3363Y5117D01*
X3348Y5126D01*
X3332Y5130D01*
X3315Y5132D01*
D02*
G37*
G36*
X4255Y4913D02*
X4248Y4912D01*
X4242Y4908D01*
X4238Y4902D01*
X4237Y4895D01*
X4238Y4888D01*
X4242Y4882D01*
X4248Y4878D01*
X4255Y4877D01*
X4262Y4878D01*
X4268Y4882D01*
X4272Y4888D01*
X4273Y4895D01*
X4272Y4902D01*
X4268Y4908D01*
X4262Y4912D01*
X4255Y4913D01*
D02*
G37*
G36*
X3673Y4902D02*
X3666Y4901D01*
X3659Y4898D01*
X3653Y4894D01*
X3649Y4888D01*
X3646Y4881D01*
X3645Y4874D01*
X3646Y4867D01*
X3649Y4860D01*
X3653Y4854D01*
X3659Y4850D01*
X3666Y4847D01*
X3673Y4846D01*
X3680Y4847D01*
X3687Y4850D01*
X3693Y4854D01*
X3697Y4860D01*
X3700Y4867D01*
X3701Y4874D01*
X3700Y4881D01*
X3697Y4888D01*
X3693Y4894D01*
X3687Y4898D01*
X3680Y4901D01*
X3673Y4902D01*
D02*
G37*
G36*
X4065Y5095D02*
X4015D01*
X4007Y5094D01*
X4001Y5089D01*
X3996Y5083D01*
X3995Y5075D01*
Y4840D01*
X3996Y4832D01*
X4001Y4826D01*
X4007Y4821D01*
X4015Y4820D01*
X4065D01*
X4073Y4821D01*
X4079Y4826D01*
X4084Y4832D01*
X4085Y4840D01*
Y5075D01*
X4084Y5083D01*
X4079Y5089D01*
X4073Y5094D01*
X4065Y5095D01*
D02*
G37*
G36*
X1816Y4975D02*
X1809Y4974D01*
X1803Y4970D01*
X1799Y4964D01*
X1798Y4957D01*
X1799Y4950D01*
X1803Y4944D01*
X1809Y4940D01*
X1816Y4939D01*
X1823Y4940D01*
X1829Y4944D01*
X1833Y4950D01*
X1834Y4957D01*
X1833Y4964D01*
X1829Y4970D01*
X1823Y4974D01*
X1816Y4975D01*
D02*
G37*
G36*
X1738Y4973D02*
X1731Y4972D01*
X1725Y4968D01*
X1721Y4962D01*
X1720Y4955D01*
X1721Y4948D01*
X1725Y4942D01*
X1731Y4938D01*
X1738Y4937D01*
X1745Y4938D01*
X1751Y4942D01*
X1755Y4948D01*
X1756Y4955D01*
X1755Y4962D01*
X1751Y4968D01*
X1745Y4972D01*
X1738Y4973D01*
D02*
G37*
G36*
X2189Y4953D02*
X2123D01*
Y4887D01*
X2189D01*
Y4953D01*
D02*
G37*
G36*
X2050Y4933D02*
X2040Y4932D01*
X2031Y4928D01*
X2023Y4922D01*
X2017Y4914D01*
X2013Y4905D01*
X2012Y4895D01*
X2013Y4885D01*
X2017Y4876D01*
X2023Y4868D01*
X2031Y4862D01*
X2040Y4858D01*
X2050Y4857D01*
X2060Y4858D01*
X2069Y4862D01*
X2077Y4868D01*
X2083Y4876D01*
X2087Y4885D01*
X2088Y4895D01*
X2087Y4905D01*
X2083Y4914D01*
X2077Y4922D01*
X2069Y4928D01*
X2060Y4932D01*
X2050Y4933D01*
D02*
G37*
G36*
X1535Y4895D02*
X1527Y4893D01*
X1520Y4889D01*
X1516Y4882D01*
X1514Y4874D01*
X1516Y4866D01*
X1520Y4859D01*
X1527Y4855D01*
X1535Y4853D01*
X1543Y4855D01*
X1550Y4859D01*
X1554Y4866D01*
X1556Y4874D01*
X1554Y4882D01*
X1550Y4889D01*
X1543Y4893D01*
X1535Y4895D01*
D02*
G37*
G36*
X1897Y4835D02*
X1890Y4834D01*
X1884Y4830D01*
X1880Y4824D01*
X1879Y4817D01*
X1880Y4810D01*
X1884Y4804D01*
X1890Y4800D01*
X1897Y4799D01*
X1904Y4800D01*
X1910Y4804D01*
X1914Y4810D01*
X1915Y4817D01*
X1914Y4824D01*
X1910Y4830D01*
X1904Y4834D01*
X1897Y4835D01*
D02*
G37*
G36*
X1685Y4830D02*
X1677Y4829D01*
X1671Y4824D01*
X1666Y4818D01*
X1665Y4810D01*
X1666Y4802D01*
X1671Y4796D01*
X1677Y4791D01*
X1685Y4790D01*
X1693Y4791D01*
X1699Y4796D01*
X1704Y4802D01*
X1705Y4810D01*
X1704Y4818D01*
X1699Y4824D01*
X1693Y4829D01*
X1685Y4830D01*
D02*
G37*
G36*
X2050Y4813D02*
X2040Y4812D01*
X2031Y4808D01*
X2023Y4802D01*
X2017Y4794D01*
X2013Y4785D01*
X2012Y4775D01*
X2013Y4765D01*
X2017Y4756D01*
X2023Y4748D01*
X2031Y4742D01*
X2040Y4738D01*
X2050Y4737D01*
X2060Y4738D01*
X2069Y4742D01*
X2077Y4748D01*
X2083Y4756D01*
X2087Y4765D01*
X2088Y4775D01*
X2087Y4785D01*
X2083Y4794D01*
X2077Y4802D01*
X2069Y4808D01*
X2060Y4812D01*
X2050Y4813D01*
D02*
G37*
G36*
X2187Y4771D02*
X2121D01*
Y4705D01*
X2187D01*
Y4771D01*
D02*
G37*
G36*
X1747Y4719D02*
X1740Y4718D01*
X1734Y4714D01*
X1730Y4708D01*
X1729Y4701D01*
X1730Y4694D01*
X1734Y4688D01*
X1740Y4684D01*
X1747Y4683D01*
X1754Y4684D01*
X1760Y4688D01*
X1764Y4694D01*
X1765Y4701D01*
X1764Y4708D01*
X1760Y4714D01*
X1754Y4718D01*
X1747Y4719D01*
D02*
G37*
G36*
X2050Y4713D02*
X2040Y4712D01*
X2031Y4708D01*
X2023Y4702D01*
X2017Y4694D01*
X2013Y4685D01*
X2012Y4675D01*
X2013Y4665D01*
X2017Y4656D01*
X2023Y4648D01*
X2031Y4642D01*
X2040Y4638D01*
X2050Y4637D01*
X2060Y4638D01*
X2069Y4642D01*
X2077Y4648D01*
X2083Y4656D01*
X2087Y4665D01*
X2088Y4675D01*
X2087Y4685D01*
X2083Y4694D01*
X2077Y4702D01*
X2069Y4708D01*
X2060Y4712D01*
X2050Y4713D01*
D02*
G37*
G36*
X2154Y4692D02*
X2145Y4691D01*
X2137Y4688D01*
X2130Y4683D01*
X2125Y4676D01*
X2122Y4668D01*
X2121Y4659D01*
X2122Y4650D01*
X2125Y4642D01*
X2130Y4635D01*
X2137Y4630D01*
X2145Y4627D01*
X2154Y4626D01*
X2163Y4627D01*
X2171Y4630D01*
X2178Y4635D01*
X2183Y4642D01*
X2186Y4650D01*
X2187Y4659D01*
X2186Y4668D01*
X2183Y4676D01*
X2178Y4683D01*
X2171Y4688D01*
X2163Y4691D01*
X2154Y4692D01*
D02*
G37*
G36*
Y4614D02*
X2145Y4612D01*
X2137Y4609D01*
X2130Y4604D01*
X2125Y4597D01*
X2122Y4589D01*
X2121Y4580D01*
X2122Y4572D01*
X2125Y4564D01*
X2130Y4557D01*
X2137Y4551D01*
X2145Y4548D01*
X2154Y4547D01*
X2163Y4548D01*
X2171Y4551D01*
X2178Y4557D01*
X2183Y4564D01*
X2186Y4572D01*
X2187Y4580D01*
X2186Y4589D01*
X2183Y4597D01*
X2178Y4604D01*
X2171Y4609D01*
X2163Y4612D01*
X2154Y4614D01*
D02*
G37*
G36*
X2088Y4613D02*
X2012D01*
Y4537D01*
X2088D01*
Y4613D01*
D02*
G37*
G36*
X1978D02*
X1902D01*
Y4537D01*
X1978D01*
Y4613D01*
D02*
G37*
G36*
X1740Y4613D02*
X1730Y4612D01*
X1721Y4608D01*
X1713Y4602D01*
X1707Y4594D01*
X1703Y4585D01*
X1702Y4575D01*
X1703Y4565D01*
X1707Y4556D01*
X1713Y4548D01*
X1721Y4542D01*
X1730Y4538D01*
X1740Y4537D01*
X1750Y4538D01*
X1759Y4542D01*
X1767Y4548D01*
X1773Y4556D01*
X1777Y4565D01*
X1778Y4575D01*
X1777Y4585D01*
X1773Y4594D01*
X1767Y4602D01*
X1759Y4608D01*
X1750Y4612D01*
X1740Y4613D01*
D02*
G37*
G36*
X1530D02*
X1520Y4612D01*
X1511Y4608D01*
X1503Y4602D01*
X1497Y4594D01*
X1493Y4585D01*
X1492Y4575D01*
X1493Y4565D01*
X1497Y4556D01*
X1503Y4548D01*
X1511Y4542D01*
X1520Y4538D01*
X1530Y4537D01*
X1540Y4538D01*
X1549Y4542D01*
X1557Y4548D01*
X1563Y4556D01*
X1567Y4565D01*
X1568Y4575D01*
X1567Y4585D01*
X1563Y4594D01*
X1557Y4602D01*
X1549Y4608D01*
X1540Y4612D01*
X1530Y4613D01*
D02*
G37*
G36*
X2770Y5108D02*
X2763Y5107D01*
X2757Y5103D01*
X2753Y5097D01*
X2752Y5090D01*
X2753Y5083D01*
X2757Y5077D01*
X2763Y5073D01*
X2770Y5072D01*
X2777Y5073D01*
X2783Y5077D01*
X2787Y5083D01*
X2788Y5090D01*
X2787Y5097D01*
X2783Y5103D01*
X2777Y5107D01*
X2770Y5108D01*
D02*
G37*
G36*
X2560Y4968D02*
X2553Y4967D01*
X2547Y4963D01*
X2543Y4957D01*
X2542Y4950D01*
X2543Y4943D01*
X2547Y4937D01*
X2553Y4933D01*
X2560Y4932D01*
X2567Y4933D01*
X2573Y4937D01*
X2577Y4943D01*
X2578Y4950D01*
X2577Y4957D01*
X2573Y4963D01*
X2567Y4967D01*
X2560Y4968D01*
D02*
G37*
G36*
X2820Y4933D02*
X2811Y4932D01*
X2803Y4927D01*
X2798Y4919D01*
X2797Y4910D01*
X2798Y4901D01*
X2803Y4893D01*
X2811Y4888D01*
X2820Y4887D01*
X2829Y4888D01*
X2837Y4893D01*
X2842Y4901D01*
X2843Y4910D01*
X2842Y4919D01*
X2837Y4927D01*
X2829Y4932D01*
X2820Y4933D01*
D02*
G37*
G36*
Y4828D02*
X2813Y4827D01*
X2807Y4823D01*
X2803Y4817D01*
X2802Y4810D01*
X2803Y4803D01*
X2807Y4797D01*
X2813Y4793D01*
X2820Y4792D01*
X2827Y4793D01*
X2833Y4797D01*
X2837Y4803D01*
X2838Y4810D01*
X2837Y4817D01*
X2833Y4823D01*
X2827Y4827D01*
X2820Y4828D01*
D02*
G37*
G36*
X2326Y4815D02*
X2319Y4814D01*
X2313Y4810D01*
X2309Y4804D01*
X2308Y4797D01*
X2309Y4790D01*
X2313Y4784D01*
X2319Y4780D01*
X2326Y4779D01*
X2333Y4780D01*
X2339Y4784D01*
X2343Y4790D01*
X2344Y4797D01*
X2343Y4804D01*
X2339Y4810D01*
X2333Y4814D01*
X2326Y4815D01*
D02*
G37*
G36*
X3090Y4803D02*
X3083Y4802D01*
X3077Y4798D01*
X3073Y4792D01*
X3072Y4785D01*
X3073Y4778D01*
X3077Y4772D01*
X3083Y4768D01*
X3090Y4767D01*
X3097Y4768D01*
X3103Y4772D01*
X3107Y4778D01*
X3108Y4785D01*
X3107Y4792D01*
X3103Y4798D01*
X3097Y4802D01*
X3090Y4803D01*
D02*
G37*
G36*
X2750D02*
X2743Y4802D01*
X2737Y4798D01*
X2733Y4792D01*
X2732Y4785D01*
X2733Y4778D01*
X2737Y4772D01*
X2743Y4768D01*
X2750Y4767D01*
X2757Y4768D01*
X2763Y4772D01*
X2767Y4778D01*
X2768Y4785D01*
X2767Y4792D01*
X2763Y4798D01*
X2757Y4802D01*
X2750Y4803D01*
D02*
G37*
G36*
X2560Y4788D02*
X2553Y4787D01*
X2547Y4783D01*
X2543Y4777D01*
X2542Y4770D01*
X2543Y4763D01*
X2547Y4757D01*
X2553Y4753D01*
X2560Y4752D01*
X2567Y4753D01*
X2573Y4757D01*
X2577Y4763D01*
X2578Y4770D01*
X2577Y4777D01*
X2573Y4783D01*
X2567Y4787D01*
X2560Y4788D01*
D02*
G37*
G36*
X2847Y4723D02*
X2840Y4722D01*
X2834Y4718D01*
X2830Y4712D01*
X2829Y4705D01*
X2830Y4698D01*
X2834Y4692D01*
X2840Y4688D01*
X2847Y4687D01*
X2854Y4688D01*
X2860Y4692D01*
X2864Y4698D01*
X2865Y4705D01*
X2864Y4712D01*
X2860Y4718D01*
X2854Y4722D01*
X2847Y4723D01*
D02*
G37*
G36*
X3030Y4608D02*
X2964D01*
Y4542D01*
X3030D01*
Y4608D01*
D02*
G37*
G36*
X2919Y4608D02*
X2910Y4607D01*
X2902Y4604D01*
X2895Y4599D01*
X2890Y4592D01*
X2887Y4584D01*
X2885Y4575D01*
X2887Y4566D01*
X2890Y4558D01*
X2895Y4551D01*
X2902Y4546D01*
X2910Y4543D01*
X2919Y4542D01*
X2927Y4543D01*
X2935Y4546D01*
X2942Y4551D01*
X2948Y4558D01*
X2951Y4566D01*
X2952Y4575D01*
X2951Y4584D01*
X2948Y4592D01*
X2942Y4599D01*
X2935Y4604D01*
X2927Y4607D01*
X2919Y4608D01*
D02*
G37*
G36*
X2840D02*
X2831Y4607D01*
X2823Y4604D01*
X2816Y4599D01*
X2811Y4592D01*
X2808Y4584D01*
X2807Y4575D01*
X2808Y4566D01*
X2811Y4558D01*
X2816Y4551D01*
X2823Y4546D01*
X2831Y4543D01*
X2840Y4542D01*
X2849Y4543D01*
X2857Y4546D01*
X2864Y4551D01*
X2869Y4558D01*
X2872Y4566D01*
X2873Y4575D01*
X2872Y4584D01*
X2869Y4592D01*
X2864Y4599D01*
X2857Y4604D01*
X2849Y4607D01*
X2840Y4608D01*
D02*
G37*
G36*
X2761D02*
X2753Y4607D01*
X2745Y4604D01*
X2738Y4599D01*
X2732Y4592D01*
X2729Y4584D01*
X2728Y4575D01*
X2729Y4566D01*
X2732Y4558D01*
X2738Y4551D01*
X2745Y4546D01*
X2753Y4543D01*
X2761Y4542D01*
X2770Y4543D01*
X2778Y4546D01*
X2785Y4551D01*
X2790Y4558D01*
X2793Y4566D01*
X2795Y4575D01*
X2793Y4584D01*
X2790Y4592D01*
X2785Y4599D01*
X2778Y4604D01*
X2770Y4607D01*
X2761Y4608D01*
D02*
G37*
G36*
X2683D02*
X2674Y4607D01*
X2666Y4604D01*
X2659Y4599D01*
X2654Y4592D01*
X2650Y4584D01*
X2649Y4575D01*
X2650Y4566D01*
X2654Y4558D01*
X2659Y4551D01*
X2666Y4546D01*
X2674Y4543D01*
X2683Y4542D01*
X2691Y4543D01*
X2699Y4546D01*
X2706Y4551D01*
X2711Y4558D01*
X2715Y4566D01*
X2716Y4575D01*
X2715Y4584D01*
X2711Y4592D01*
X2706Y4599D01*
X2699Y4604D01*
X2691Y4607D01*
X2683Y4608D01*
D02*
G37*
%LPD*%
D37*
X1353Y5373D02*
X1354D01*
X1396Y5331D01*
X1439D01*
X369Y4498D02*
Y5568D01*
X2240Y4838D02*
Y5113D01*
Y4838D02*
X2270D01*
Y5113D01*
X2240D02*
X2270D01*
X2240Y4548D02*
Y4788D01*
Y4548D02*
X2270D01*
Y4788D01*
X2240D02*
X2270D01*
X369Y5568D02*
X2243D01*
Y5165D02*
Y5568D01*
D38*
X369Y4498D02*
X3998D01*
X3135Y4785D02*
X3185D01*
Y4545D02*
Y4785D01*
X3135Y4545D02*
X3185D01*
X3135D02*
Y4785D01*
Y5090D02*
X3185D01*
Y4850D02*
Y5090D01*
X3135Y4850D02*
X3185D01*
X3135D02*
Y5090D01*
X4785Y4498D02*
Y4780D01*
X3998Y4498D02*
X4785D01*
X4015Y4840D02*
Y5080D01*
Y4840D02*
X4065D01*
Y5080D01*
X4015D02*
X4065D01*
X4015Y4535D02*
Y4775D01*
Y4535D02*
X4065D01*
Y4775D01*
X4015D02*
X4065D01*
X2243Y5165D02*
X4785D01*
Y4780D02*
Y5165D01*
D59*
X1840Y4575D02*
D03*
X1630D02*
D03*
X4395Y5080D02*
D03*
D62*
X2154Y4816D02*
D03*
X2156Y5234D02*
D03*
D65*
X911Y4557D02*
D03*
X714Y5280D02*
D03*
X1542Y4714D02*
D03*
X1353Y5373D02*
D03*
X1442Y5269D02*
D03*
X1543Y4783D02*
D03*
X2939Y4993D02*
D03*
X1440Y5102D02*
D03*
X3089Y4948D02*
D03*
X1311Y4803D02*
D03*
X1401Y5000D02*
D03*
X1439Y5331D02*
D03*
X1086Y5148D02*
D03*
X721Y5328D02*
D03*
X878Y5136D02*
D03*
X914Y4669D02*
D03*
X821Y4759D02*
D03*
X439Y5178D02*
D03*
X421Y5128D02*
D03*
X422Y4872D02*
D03*
X1160Y4947D02*
D03*
X587Y4678D02*
D03*
X565Y4735D02*
D03*
X4705Y4585D02*
D03*
X1972Y5281D02*
D03*
X915Y5317D02*
D03*
X1218Y4723D02*
D03*
M02*
